<?xml version="1.0" encoding="UTF-8" standalone="no"?>
<svg
   xmlns:dc="http://purl.org/dc/elements/1.1/"
   xmlns:cc="http://creativecommons.org/ns#"
   xmlns:rdf="http://www.w3.org/1999/02/22-rdf-syntax-ns#"
   xmlns:svg="http://www.w3.org/2000/svg"
   xmlns="http://www.w3.org/2000/svg"
   viewBox="0 0 825.22989 603.58905"
   height="603.58905"
   width="825.22986"
   version="1.1"
   id="svg4206">
  <metadata
     id="metadata4212">
    <rdf:RDF>
      <cc:Work
         rdf:about="">
        <dc:format>image/svg+xml</dc:format>
        <dc:type
           rdf:resource="http://purl.org/dc/dcmitype/StillImage" />
        <dc:title></dc:title>
      </cc:Work>
    </rdf:RDF>
  </metadata>
  <defs
     id="defs4210" />
  <path
     id="path4216"
     d="M 363.53544,602.36463 C 332.91917,579.53179 297.34285,563.48105 262.29985,548.90134 221.09467,541.57342 186.43793,517.00682 148.24666,501.34269 101.8946,475.98361 55.126289,447.34426 22.549269,404.7712 c -31.98255,-16.26992 -29.67672,-78.04761 10.91696,-79.49896 19.21332,0.19171 39.74946,8.79208 26.06493,-16.84179 -5.97328,-23.30557 11.08129,-51.85949 -24.73411,-44.84058 -45.17372,-3.03667 -45.80715,-57.69281 -5.1422,-70.14495 50.10376,-39.36017 95.152441,-84.76278 147.242001,-121.745011 36.84567,-28.57557 80.22655,-49.15361 125.29307,-60.80156 25.13529,-14.7516492 84.45402,-21.071105 77.84827,24.59008 -21.19178,38.64543 48.98496,6.82342 68.684,13.82433 58.55681,13.88859 120.17562,7.23886 176.40521,-13.04453 31.84278,-10.36734 67.61838,-58.661071 101.43165,-20.6533 11.95676,39.42103 52.39996,52.79063 82.17389,72.60603 26.40196,30.875951 20.72216,81.820231 -14.2311,103.815191 -36.16534,30.68486 -84.74876,40.25556 -122.25854,69.24793 -23.37082,7.95483 -47.58067,24.35644 -9.5765,31.63089 21.32898,26.29657 53.64259,13.55259 76.50031,30.80965 26.10445,18.47083 -4.72201,32.30655 -20.70558,13.91431 -30.26476,-10.648 -49.90448,18.853 -19.43055,36.73628 14.10814,15.95897 59.03437,61.72391 22.03515,71.78073 C 693.33866,433.19831 699.60242,387.70499 668.48259,373.5 653.74,334.07778 591.02183,325.89542 592.52203,378.30436 c 1.51676,42.73682 -62.77226,11.43704 -22.50739,-13.50362 18.60781,-25.31263 -15.46618,-55.74103 -34.58394,-24.61764 -19.57814,27.36575 -74.88267,22.57326 -76.6628,61.55596 21.39359,29.60757 40.30879,61.60589 57.05364,94.44433 46.15124,14.80139 48.34256,-75.88164 90.38162,-50.4706 18.08902,32.20643 -63.78158,44.05175 -32.73338,70.71707 29.98164,-3.23547 61.50827,7.19709 89.73255,-7.7186 19.51284,-15.78162 86.28147,-2.91237 54.10562,23.28731 -31.16774,-5.38682 -58.96105,2.03572 -88.81376,9.2975 -33.06279,-8.69906 -46.24782,39.27739 -6.01901,26.44614 16.72066,-5.56121 67.34834,4.26608 33.09648,23.56288 -37.79987,1.69861 -77.3315,6.03165 -112.10693,-11.48909 -24.95093,-10.3231 -65.70361,-32.87435 -74.99493,5.94768 -24.13896,14.9605 -72.9133,-30.47994 -79.50533,-7.95965 5.51434,12.51544 -13.14621,30.67902 -25.42903,24.5606 z"
     style="fill:#000000" />
</svg>
