<?xml version="1.0" encoding="UTF-8" standalone="no"?>
<!-- Created with Inkscape (http://www.inkscape.org/) -->

<svg
   xmlns:dc="http://purl.org/dc/elements/1.1/"
   xmlns:cc="http://creativecommons.org/ns#"
   xmlns:rdf="http://www.w3.org/1999/02/22-rdf-syntax-ns#"
   xmlns:svg="http://www.w3.org/2000/svg"
   xmlns="http://www.w3.org/2000/svg"
   xmlns:sodipodi="http://sodipodi.sourceforge.net/DTD/sodipodi-0.dtd"
   xmlns:inkscape="http://www.inkscape.org/namespaces/inkscape"
   version="1.2"
   width="533.01404"
   height="278.23965"
   viewBox="0 0 533.01404 278.23965"
   id="Layer_1"
   xml:space="preserve"
   inkscape:version="0.91 r13725"
   sodipodi:docname="atlantogenata.svg"><metadata
     id="metadata14"><rdf:RDF><cc:Work
         rdf:about=""><dc:format>image/svg+xml</dc:format><dc:type
           rdf:resource="http://purl.org/dc/dcmitype/StillImage" /><dc:title></dc:title></cc:Work></rdf:RDF></metadata><sodipodi:namedview
     pagecolor="#ffffff"
     bordercolor="#666666"
     borderopacity="1"
     objecttolerance="10"
     gridtolerance="10"
     guidetolerance="10"
     inkscape:pageopacity="0"
     inkscape:pageshadow="2"
     inkscape:window-width="1920"
     inkscape:window-height="1174"
     id="namedview12"
     showgrid="false"
     fit-margin-top="0"
     fit-margin-left="0"
     fit-margin-right="0"
     fit-margin-bottom="0"
     inkscape:zoom="1.3267895"
     inkscape:cx="109.6786"
     inkscape:cy="190.73349"
     inkscape:window-x="0"
     inkscape:window-y="0"
     inkscape:window-maximized="1"
     inkscape:current-layer="Layer_1" /><defs
     id="defs7" /><path
     style="fill-rule:evenodd"
     d="m 53.742097,52.555328 c -16.62773,17.96304 -32.13893,37.30707 -37.30639,61.912412 -6.45871,15.73299 -5.81825,32.63446 -4.44261,49.13759 1.69205,1.42011 -3.31269,20.37127 -4.55,21.102 8.96834,-12.46193 -13.42364,20.84449 -5.851,26.848 0.74423,5.23976 -3.10752,26.43003 0.152,17.5 -3.03209,8.69263 3.46031,-2.71213 3.65,0.801 -0.8392,4.60232 6.41692,9.31735 4.452,3.599 -0.62794,-7.74772 4.37023,-29.01415 2.07612,-7.29963 -0.79469,11.40959 1.43131,-6.36855 1.31988,3.34963 2.06011,-15.72873 1.10359,-5.37373 2.101,-4.397 1.96343,-6.46355 1.62423,-4.44606 2.252,2.349 -0.083,-8.83367 4.07511,-19.61798 4.68763,-17.39987 -1.61051,-9.87015 1.88802,-20.77215 1.01037,-23.40013 1.36864,-2.84578 -2.38102,-17.82751 -1.702,-12.65 -2.62123,-15.12588 -2.42738,-31.52524 5.676,-45.13725 4.54351,-9.98555 -0.34704,25.7517 4.1375,32.50938 3.13912,21.22058 10.15636,42.15034 13.58613,62.463 -4.11829,17.15479 -12.48903,37.14254 -10.1471,53.11287 13.73566,-1.01886 27.27322,3.34436 40.64647,0 6.51087,-4.82385 6.3198,-14.9698 2.03498,-19.46756 -11.44372,-18.62384 3.42434,-35.15495 11.351835,-50.42605 9.93279,-12.94672 22.998608,8.74924 26.612818,17.94574 3.44309,13.01672 15.86717,22.26824 12.75037,36.48417 -2.93956,8.97752 6.6753,9.89724 13.80253,8.8637 11.36127,-0.98747 25.818,3.49807 33.49747,-6.999 0.77587,-14.54699 -22.91008,-19.40805 -19.4,-38.001 -5.32853,-13.88955 -18.67892,-49.57817 7.71107,-39.79993 13.61786,5.59882 30.857,-20.67136 34.87668,-12.10568 -3.17512,18.24931 -1.25555,37.92458 -6.98837,55.20349 3.43887,15.61647 -22.1407,32.46048 -7.24938,43.45112 15.44538,2.63722 31.14334,4.99331 46.2,-0.601 19.76389,-5.53526 -9.02946,-18.10747 -9.16805,-24.21761 10.77068,-15.89023 17.43419,-33.56122 18.9313,-52.74314 3.18146,-9.73247 5.51301,-35.4319 15.04309,-13.7734 6.96939,16.56978 15.92768,34.49121 21.74466,49.73415 7.21938,12.75134 4.63437,25.87627 0.45,37.702 13.87989,5.93348 30.47179,2.30188 45.5,1.8 24.14905,-6.25879 -15.64974,-24.49248 -12.45,-40.05 -0.15778,-16.76367 -4.33333,-31.59145 -7.30611,-48.65923 -3.72477,-17.08262 -6.66988,-34.50503 -8.85652,-51.55327 11.67039,-8.38047 21.44968,-30.920562 37.51749,-29.12897 11.77367,5.44163 26.00537,3.383 35.64614,13.54147 11.04709,10.41833 9.66106,-2.88481 20.64688,7.24995 8.22565,1.38356 -8.48711,-19.59133 5.76866,-8.02045 29.00872,25.27746 53.88002,57.66426 91.43758,70.88879 12.26617,2.13311 20.51919,11.51495 15.14688,20.68271 28.15397,6.64173 15.0569,-28.09889 -1,-35.01275 -3.4933,-4.55228 -23.64162,-19.87234 -6.72525,-10.4755 12.7142,4.20638 27.0104,3.59723 39.99717,2.41269 -11.2752,-13.93641 -35.9666,-9.71695 -51.39921,-20.30731 -14.81511,-4.6693 -23.87582,-15.39714 -30.77271,-27.51713 -8.15585,-11.24561 -14.26549,-24.950302 -23,-35.350002 -7.87546,-9.23755 -16.73646,-19.28212 -25.43738,-30.1 -11.8117,-11.977139 -27.32346,-20.393836 -39.01262,-32.25 C 356.08294,-3.0289244 332.14627,0.03653955 315.45157,0.37521855 296.36447,5.0750336 276.68148,12.014652 257.17972,4.9567026 232.29506,2.7313236 208.42301,11.244597 183.4546,8.5343566 153.26237,7.8743886 123.30609,14.734845 95.392102,25.806328 81.582527,33.892045 66.801207,42.45863 53.742097,52.555328 Z M 178.6921,270.00533 c 0.15533,1.04867 0.19326,-0.92982 0,0 z m -166.050003,-99.15 c 0.58208,0.38521 -0.76648,1.04625 0,0 z m 0.25,3.15 c -12.57726995,27.66521 0.56799,-8.36205 0,0 z m 0.05,3.1 c -3.50514,7.13429 2.3266,-6.6652 0,0 z m -2.5,2.4 c 0.27098,-2.35772 0.98972,0.14213 0,0 z m 0.45,-0.9 c 1.66437,-4.71854 0.32069,1.852 0,0 z m 0.85,3.1 c 3.51065,-9.69649 0.26291,3.60023 0,0 z m 0,2.65 c -1.35213,4.90037 -2.0965,3.12093 0,0 z m -1.35,0.7 c -4.84182,5.68558 -11.74387,34.71458 -8.10138,14.01462 3.90077,-8.74011 6.26392,-10.95422 8.10138,-14.01462 z m 1.1,2.75 c -0.37779,0.47452 0.42515,-0.92757 0,0 z m -0.15,0.55 c -0.35302,3.37182 -5.22053,10.27517 0,0 z m -0.45,3.55 c -1.32801,3.42703 0.58942,-2.50594 0,0 z m 0.35,-1.9 c 0.28577,-1.89572 0.38168,-0.35919 0,0 z m -2.55,2.65 c -0.66952,-0.42253 1.26719,-2.18407 0,0 z m 11.7,-20.5 c 0.12785,-2.12542 2.35366,11.40164 0,0 z m 0.05,1.3 c 1.85193,6.11478 -0.98329,1.62663 0,0 z m 0.65,2.9 c -1.2938,-3.69836 1.08879,0.55364 0,0 z m 0.3,0.85 c 2.42256,9.07971 -0.78524,-0.0921 0,0 z m 0.85,1.45 c 0.14569,0.1423 -0.0105,0.72024 0,0 z m -2.1,-1.2 c 3.20825,9.43879 1.10104,21.22949 0.649,3.68825 -1.02059,-5.96393 0.62688,8.75651 -0.8,-1.08825 l 0.151,-2.6 z m -0.55,1.3 c -0.30261,2.8445 -0.2563,-2.68474 0,0 z m -0.45,4 c -1.83032,-0.49909 1.12038,-4.98604 0,0 z m -0.45,0.6 c 0.81531,1.31539 -0.15398,3.04177 0,0 z m -0.25,-0.55 c 0.17803,-1.44778 0.62286,1.16214 0,0 z m -0.1,0.8 c 1.6756,2.42472 -1.7798,1.06863 0,0 z m 1,1.6 c 0.95593,0.56726 -0.21383,3.4085 0,0 z m -0.95,1.05 c 0.65998,1.23715 -0.92717,-0.16969 0,0 z m -0.3,-0.2 c -0.54732,-1.39837 0.69932,0.41291 0,0 z m 3.6,-3.45 c 1.63258,8.63737 -0.0336,2.02543 0,0 z m -3.25,5.3 c 0.32566,6.94917 -1.24223,-3.38239 0,0 z m 2.3,0.8 c 0.5421,10.79054 -1.06007,-4.63475 0,0 z m 0.2,2.65 c -0.0315,-4.09348 0.24943,5.13288 0,0 z m -2.65,-0.85 c 0.57621,3.54517 -0.74577,-0.962 0,0 z m 0.75,0 c -0.92092,-3.55122 1.12092,1.01542 0,0 z m 0.3,0.4 c 1.11289,4.10111 -1.09019,-0.73838 0,0 z m -1.05,1.15 c 0.20447,2.39225 -0.44316,-1.02285 0,0 z m 0.55,-0.1 c 1.68724,1.82617 -0.45386,0.90153 0,0 z m -0.6,1.25 c 0.22013,1.30851 -0.28401,-0.36928 0,0 z m 3.4,1.85 c 1.27617,-9.86134 0.93258,6.07521 0,0 l 0,0 z m -0.85,-1.5 c 0.54176,1.09849 -0.60131,2.01577 0,0 z m 0.7,4.55 c 0.32859,12.70866 -1.66414,7.60386 0,0 z m 0,-0.4 c -0.74494,1.06099 0.16564,-3.18424 0,0 z m -2.45,0.1 c -1.13845,-4.17689 0.26511,-4.80066 0,0 z m 0.75,4.7 c 0.88464,8.01534 -1.8807,8.62549 0,0 z m 1.65,4.2 c 0.76071,-7.49909 0.70318,11.05619 0,0 z m -0.55,-0.1 c -0.0905,1.77932 -0.0905,-1.77932 0,0 z m -0.5,-1.1 c -0.0947,7.40091 -1.51625,9.65552 0,0 z m -0.55,2.95 c 0.39557,6.65049 -1.07346,1.04059 0,0 z m -1.05,0.45 c 0.3694,-5.11281 0.52752,6.97793 0,0 z m -0.5,3.7 c -0.61287,12.01987 -1.30445,2.9195 0,0 z m 0.3,0.15 c -0.75863,-3.73893 1.00018,-2.36027 0,0 z m 0.8,0.05 c 0.29741,5.25284 -0.69465,-6.0392 0,0 z m -0.95,0.45 c 2.90303,-4.59847 -3.06573,19.11123 0,0 z m -0.6,8.25 c -0.21132,-0.55202 0.39278,-1.02504 0,0 z m -10.65,-24.85 c 1.37886,-7.57822 2.50601,3.43836 -3.8,8.95 1.08414,-3.06637 1.99568,-6.23872 3.8,-8.95 z m -1.3,0.2 c 1.54066,-4.85918 6.46344,-14.84671 0,0 z m -0.4,1 c -8.16043,24.11489 3.27438,-13.21066 0,0 z m 3.4,-2.2 c -0.47627,3.74421 -0.21578,-7.01661 0,0 z m 6.95,3.5 c -0.29004,0.0356 0.22234,-0.64054 0,0 z m 0,0.45 c -0.27413,-0.16964 0.0644,-0.21555 0,0 z m -0.1,0.45 c 0.15278,-0.003 -0.0178,0.19492 0,0 z m 1.75,4.2 c 0.304,7.50685 -1.39935,14.94702 0,0 z m 0.05,-1.475 c 0.17656,1.16726 -0.17975,0.22171 0,0 z m -8.4,0.875 c -2.20645,8.17024 1.51964,-9.10238 0,0 z m -0.95,5.8 c -5.33595,14.1215 1.64329,-8.28823 0,0 l 0,0 z m 6.65,-3.95 c 0.53495,0.53908 -0.60598,0.53125 0,0 z m -0.15,1.1 c 0.0789,-1.1292 0.0982,1.01048 0,0 z m 1.4,0.45 c -0.36421,9.27741 -0.4196,-5.16028 0,0 z m 0.25,3.3 c -0.60419,9.18545 -0.91054,4.5539 0,0 z m 1.25,-1.85 c -0.33646,3.41359 -0.0136,-1.11477 0,0 z m -2.65,-0.5 c 0.11418,8.62518 0.17628,9.12538 0,0 z m 1.55,0.05 c 0.43791,-11.08317 0.49412,3.71016 0,0 z m -2.65,3.35 c 1.64918,-9.5019 -0.25797,6.0244 0,0 z m -0.1,2.75 c 0.61274,8.1978 -0.97875,4.92729 0,0 l 0,0 z m 0.55,-2 c 0.37113,7.68875 -1.28357,3.03559 0,0 z m 2.2,4.35 c -0.20479,1.04954 -0.0628,-0.92254 0,0 z m 0.15,-0.9 c -0.38106,-1.20097 0.33321,-2.34427 0,0 z m -3.4,-0.4 c 0.12587,2.77123 -0.21608,6.55269 0,0 z m -0.45,0.65 c 1.44918,9.44161 -2.44182,22.43786 0,0 z m -3.75,-4.25 c -1.22097,5.30401 -0.83112,1.32984 0,0 z m 3.35,3.3 c 0.33329,-2.35624 0.46784,-0.42841 0,0 z m -2.1,0 c -1.76467,10.78145 -5.26063,29.27144 -3.25,9.751 1.00411,-3.25846 2.12228,-6.70525 3.25,-9.751 z m -2.4,0.2 c -4.3058,11.57181 -3.08159,4.33701 0,0 z m -5.05,-6.95 c -3.49096995,-1.6795 4.91068,-3.73942 0,0 z m 3.65,-2.5 c 1.01627,-0.64937 -6.43224995,16.92761 -0.3,0.799 l 0.3,-0.799 z m -0.75,5.05 c 0.19884,0.24131 -0.58513,0.81636 0,0 z m -2.95,-2.5 c -0.17112,2.84184 -0.92722,-0.0259 0,0 z m 2.25,4.75 c -0.69625,7.33525 -4.40201995,3.20331 0,0 z m -0.5,3.2 c -0.8692,9.49507 -6.03209,9.20116 0,0 z m -2.95,-2.8 c 1.24556,4.16775 -2.10831995,5.01148 0,0 z m 0.35,-0.6 c 2.66843,-6.59395 0.54146,-3.64493 0,0 z m 2.3,10.6 c -1.79398,5.17452 0.10007,-1.69518 0,0 z m 2.95,-2.65 c 0.0954,4.65195 -3.9641,6.33805 0,0 z m -0.9,4 c -0.22538,2.89791 -3.50291,1.44115 0,0 z m -1.2,3.5 c -2.39742,-0.66268 2.62531,-3.03315 0,0 z m -1.4,0.35 c -2.68502,4.67811 0.81965,-2.91304 0,0 z m -1.65,-4.8 c -0.0687,-0.0923 0.16583,-0.052 0,0 z m 0.55,5.05 c -0.31421,2.67543 -0.86268,1.09563 0,0 z m 12.45,-10.9 c 0.2612,-3.04131 0.22267,2.92588 0,0 z m 2.05,-0.15 c 0.45277,-4.48173 0.49132,4.46492 0,0 z m -8.85,15.35 c -1.12383,-3.84387 4.35577,-24.09407 0.6245,-6.13762 -0.35494,3.36008 -0.91746,10.09531 -0.6245,6.13762 z m 0.65,1.2 c -0.061,-0.42251 0.32899,-0.0953 0,0 z m -6.25,-3.85 c 0.37153,-2.04125 1.86323,-0.65737 0,0 z"
     id="path3"
     inkscape:connector-curvature="0" /></svg>