<?xml version="1.0" encoding="UTF-8" standalone="no"?>
<!-- Created with Inkscape (http://www.inkscape.org/) -->

<svg
   xmlns:dc="http://purl.org/dc/elements/1.1/"
   xmlns:cc="http://creativecommons.org/ns#"
   xmlns:rdf="http://www.w3.org/1999/02/22-rdf-syntax-ns#"
   xmlns:svg="http://www.w3.org/2000/svg"
   xmlns="http://www.w3.org/2000/svg"
   xmlns:sodipodi="http://sodipodi.sourceforge.net/DTD/sodipodi-0.dtd"
   xmlns:inkscape="http://www.inkscape.org/namespaces/inkscape"
   version="1.2"
   width="703.58984"
   height="420.78506"
   viewBox="0 0 703.58984 420.78506"
   id="Layer_1"
   xml:space="preserve"
   inkscape:version="0.91 r13725"
   sodipodi:docname="boreoeutheria.svg"><metadata
     id="metadata7"><rdf:RDF><cc:Work
         rdf:about=""><dc:format>image/svg+xml</dc:format><dc:type
           rdf:resource="http://purl.org/dc/dcmitype/StillImage" /><dc:title></dc:title></cc:Work></rdf:RDF></metadata><sodipodi:namedview
     pagecolor="#ffffff"
     bordercolor="#666666"
     borderopacity="1"
     objecttolerance="10"
     gridtolerance="10"
     guidetolerance="10"
     inkscape:pageopacity="0"
     inkscape:pageshadow="2"
     inkscape:window-width="1920"
     inkscape:window-height="1174"
     id="namedview5"
     showgrid="false"
     fit-margin-top="0"
     fit-margin-left="0"
     fit-margin-right="0"
     fit-margin-bottom="0"
     inkscape:zoom="0.34198255"
     inkscape:cx="686.97883"
     inkscape:cy="-272.50649"
     inkscape:window-x="0"
     inkscape:window-y="0"
     inkscape:window-maximized="1"
     inkscape:current-layer="Layer_1" /><defs
     id="defs7" /><path
     style="fill-rule:evenodd"
     d="m 42.63663,142.401 c -16.11666,24.04459 -29.06418,51.10099 -38.15,78.05 C 0.00716,236.09453 1.37394,250.53391 0,265.85037 c 3.08089,25.46555 10.93654,50.47514 20.40866,74.43099 12.40923,31.38203 35.79072,57.65543 60.131002,80.50369 C 97.602662,408.09112 68.26986,374.36925 61.88162,354.97289 44.8099,325.95798 28.75496,294.75304 29.82422,260.06884 26.53376,224.1891 37.49459,189.487 56.66228,159.09511 84.828122,122.54688 123.24673,92.89086 165.73463,75.651 c 0.92354,29.68441 31.46194,45.28443 43.08737,65.46237 1.80235,18.09906 11.12139,40.47691 -1.03637,57.58663 -28.22587,1.59766 -51.99782,30.24278 -71.12973,40.80499 -19.71841,15.88726 -48.095688,18.7036 -69.82829,32.09795 -8.86874,22.43506 17.885982,42.34562 32.106022,56.04706 12.113078,15.5107 -17.75558,19.52384 2.404128,32.937 15.4149,10.9601 52.44871,14.81726 50.84887,-13.338 -3.44648,-15.14369 27.41255,14.74413 15.05,-8.851 -8.64486,-24.10143 -56.37208,-27.91285 -49.88775,-52.83813 36.91949,-15.51011 78.95188,-11.0738 116.07488,-25.98997 30.53145,-0.35864 32.79087,-29.54563 34.85099,-53.02103 3.10616,-11.12873 1.62644,-41.73947 14.16388,-17.99987 -15.74131,34.09765 -2.84405,76.54367 -27.79975,107.426 -14.83948,31.96099 52.03829,29.713 49.79912,49.43662 -7.76476,15.1538 13.51708,17.99615 24.88725,17.9885 25.44204,12.32404 44.28044,-14.92648 26.40376,-34.80903 -18.82046,-16.34082 30.29176,6.56896 10.10102,-13.96852 -20.95951,-11.4688 -48.14534,9.81705 -63.4924,-16.27357 7.93863,-26.34727 25.64231,-53.47618 37.46175,-80.261 8.1475,-21.36749 22.73928,-44.10408 11.18925,-65.937 -8.91819,-12.56289 -37.129,-48.00674 -9.80697,-20.1558 25.85201,22.11916 52.93885,43.96999 83.56972,58.8798 41.54631,0.7195 -29.63383,31.57292 1.74505,52.02959 22.79386,35.31322 58.29553,60.96808 82.2432,95.09541 -8.12369,24.10428 17.46796,44.80574 39.65,42.651 18.76225,8.109 47.47293,-16.5972 23.45019,-29.46028 -13.37317,7.51009 -23.10307,-34.4308 -1.14063,-15.86538 29.11287,6.79445 -15.47175,-29.67732 -28.80956,-18.77334 -29.15096,-8.00974 -40.60668,-45.13886 -57.363,-68.2719 -21.32654,-18.56147 16.46763,-39.82508 26.563,-45.8281 0.31154,13.17115 -0.97711,25.49911 -1.6,38.449 -1.17616,23.23422 32.77486,24.39135 48.56476,35.52039 28.22537,12.23697 63.29442,20.00597 77.23524,50.93061 2.17544,15.85073 18.79865,33.707 40.5,21.75 32.28764,0.15946 34.08856,-38.33007 3.85,-45.801 -33.8221,-5.10441 -55.50886,-34.31787 -82.70054,-52.28547 -18.79783,-14.68207 -45.29779,-26.52399 -32.96191,-54.20814 -2.79785,-20.01343 31.50307,-53.16086 38.57483,-24.06864 11.04938,22.2973 49.29073,26.60207 56.18762,5.31025 4.41219,-16.88377 -20.4593,2.4355 -16.65,-14.749 -3.17575,-19.97258 -2.71139,-36.36475 19.05,-24.1 10.7562,7.53463 13.10499,2.75801 12.05,18.3 9.62735,-5.70144 14.90413,-20.01216 17.98737,-2.96262 21.69231,-7.83711 11.13846,-41.50749 -2.74997,-55.65007 C 668.26607,83.89532 709.22965,82.60089 686.50213,64.475047 665.42718,38.420611 628.88854,29.829511 596.91413,29.8375 571.91239,20.294817 580.10038,62.99224 555.18963,48.75 520.59443,36.235804 483.615,30.48258 450.12118,15.041452 416.6723,5.832197 381.80279,3.72498 347.48863,0 286.81033,3.190339 224.11698,10.448429 170.80138,42.025125 117.68082,59.458941 72.46151,95.15057 42.63663,142.401 Z"
     id="path3"
     inkscape:connector-curvature="0" /></svg>