<?xml version="1.0" encoding="UTF-8" standalone="no"?>
<svg
   xmlns:dc="http://purl.org/dc/elements/1.1/"
   xmlns:cc="http://creativecommons.org/ns#"
   xmlns:rdf="http://www.w3.org/1999/02/22-rdf-syntax-ns#"
   xmlns:svg="http://www.w3.org/2000/svg"
   xmlns="http://www.w3.org/2000/svg"
   xmlns:sodipodi="http://sodipodi.sourceforge.net/DTD/sodipodi-0.dtd"
   xmlns:inkscape="http://www.inkscape.org/namespaces/inkscape"
   id="svg3790"
   height="681.03503"
   width="847.94391"
   version="1.1"
   inkscape:version="0.91 r13725"
   sodipodi:docname="cnidaria.svg">
  <sodipodi:namedview
     pagecolor="#ffffff"
     bordercolor="#666666"
     borderopacity="1"
     objecttolerance="10"
     gridtolerance="10"
     guidetolerance="10"
     inkscape:pageopacity="0"
     inkscape:pageshadow="2"
     inkscape:window-width="1920"
     inkscape:window-height="1174"
     id="namedview6"
     showgrid="false"
     fit-margin-top="0"
     fit-margin-left="0"
     fit-margin-right="0"
     fit-margin-bottom="0"
     inkscape:zoom="0.29183449"
     inkscape:cx="477.83091"
     inkscape:cy="216.08754"
     inkscape:window-x="0"
     inkscape:window-y="0"
     inkscape:window-maximized="1"
     inkscape:current-layer="svg3790" />
  <metadata
     id="metadata8">
    <rdf:RDF>
      <cc:Work
         rdf:about="">
        <dc:format>image/svg+xml</dc:format>
        <dc:type
           rdf:resource="http://purl.org/dc/dcmitype/StillImage" />
        <dc:title></dc:title>
      </cc:Work>
    </rdf:RDF>
  </metadata>
  <defs
     id="defs3792" />
  <path
     id="path3856"
     d="m 378.73082,32.553544 c 27.66469,-41.2254542 84.77994,-33.6605062 125.28994,-19.656972 78.63345,15.214424 137.85564,75.265925 190.04075,131.901678 10.19789,11.75643 46.93303,53.24379 14.71425,26.49694 -14.93392,-22.90863 -33.93323,-38.92841 -53.60277,-45.87355 14.83985,20.50537 -23.60705,-5.85108 1.03091,15.35414 15.45139,13.49404 -16.61852,10.87386 9.59062,23.6119 -0.33433,16.60822 2.61599,30.55897 21.88085,38.8253 -9.26882,25.80943 26.06292,32.75641 27.64922,55.53743 19.45484,-9.96466 13.81418,30.3569 34.01983,21.63206 6.41109,9.50627 7.17604,29.48897 16.46849,14.18706 15.4943,18.21177 12.64084,12.09475 11.73966,-5.99347 25.15476,35.42146 -8.08315,-18.95864 -7.229,-31.30779 -5.59453,-21.19177 -50.97645,-69.97287 -42.60432,-66.0542 36.26209,24.65287 58.24911,65.37671 78.1148,103.38772 29.83705,70.27084 46.55673,148.2841 38.20691,224.64307 3.75675,29.15635 -49.13118,65.64865 -60.74809,52.59637 16.45239,-9.91258 22.61123,-66.43314 19.53518,-62.03475 -9.82739,27.74535 -16.51784,75.56907 -57.52378,66.51034 -5.86674,-8.61657 35.04357,-21.88413 31.90549,-44.48215 7.03127,-15.86682 6.77072,-49.59834 -0.93395,-14.56503 -9.11819,41.34813 -59.1199,68.70522 -94.18673,38.3703 -28.70928,-12.21231 -8.98318,-29.02383 12.59007,-17.65646 33.17042,7.59937 56.58621,-50.7674 57.8515,-59.38726 -17.59471,23.24443 -36.78962,51.87943 -70.43858,47.41149 -29.62656,5.08906 -60.28332,1.44813 -73.43867,-25.29496 -24.57033,7.08424 -47.63725,46.18087 -72.92282,12.70698 -10.97361,-18.6771 -4.92778,-68.525 17.70031,-57.01942 -39.14086,19.52167 5.87532,85.65733 28.21352,43.87771 -2.23133,-20.37763 31.98894,-4.94234 5.66915,-17.30133 -38.55753,-29.5592 18.59929,-51.90468 30.20349,-77.51932 16.94973,-8.0912 38.11326,-44.84504 5.77306,-18.90031 -19.47933,37.92041 -67.62519,58.29217 -94.69428,15.11848 -24.01801,-16.7588 -18.63974,-52.95137 14.61701,-44.66512 17.87625,3.14131 64.23452,-21.80395 22.51782,-11.09446 -33.17212,-5.18612 -104.01484,8.18886 -55.99777,49.68621 31.43875,14.81929 45.16285,60.694 0.27413,65.38416 -25.19682,16.31807 35.88781,54.20859 2.26081,75.46883 -27.55855,2.55047 -51.90892,-42.39476 -58.57994,3.98896 -26.41375,-2.16878 -62.71221,-2.95388 -84.17506,-14.00473 -19.13608,19.40112 54.92487,56.34439 10.48353,64.86904 -10.68748,-16.86592 -33.37672,-38.61414 -36.53642,-4.34698 -23.23919,-3.23614 -42.29556,-3.12157 -31.88744,26.36204 -14.78778,12.41693 -68.46654,-31.33764 -47.10449,8.81587 10.03748,29.05319 -47.49565,-32.7752 -32.61116,13.80867 5.05199,17.019 45.46337,-0.94963 33.24572,26.58241 -16.83803,-18.59105 -44.03179,43.38573 -39.92281,2.46735 -3.3041,-22.68106 -23.93569,-69.24126 17.46879,-62.85048 10.43425,-37.72464 63.79316,24.48177 50.7831,-23.55824 -5.54477,-38.18239 52.99438,12.10593 34.64027,-22.02453 6.82029,-20.14688 48.61583,22.62066 26.0559,-9.0491 -39.02965,-38.16296 31.49654,-43.01005 54.25439,-24.42035 45.99113,6.97114 -17.233,-48.16435 24.17221,-61.19136 24.1175,-33.87695 -28.54427,-62.8696 -59.38059,-48.11191 -21.02078,-7.2275 -42.05841,3.48481 -21.40623,23.74842 -10.4675,36.29911 -90.85474,3.63986 -43.70846,-15.93675 28.923,-16.87603 -36.7402,-17.29751 -30.65012,12.63746 -16.19466,40.42935 67.10548,27.17603 29.35513,62.25859 -24.9857,24.97435 -44.71517,-14.28007 -55.33664,-23.77172 -43.20693,17.45895 50.16712,39.00029 11.07297,54.75039 -8.56355,-4.53748 -44.41949,-38.06762 -33.67946,-10.09492 48.70842,13.56392 -5.11609,62.547 -32.46967,38.93164 -37.08424,-0.57044 -27.05912,34.66856 -24.29477,56.12053 -30.90461,13.37501 -32.82451,-56.26708 -49.01444,-14.31447 -6.54376,30.63473 65.95221,41.45516 18.05716,49.36572 C 113.94715,641.87785 91.796738,628.07572 66.22747,639.13392 53.751917,612.40865 29.692465,608.42477 2.0203154,611.07273 5.3018954,585.2164 68.010653,585.23641 93.943046,600.29432 84.209272,588.20158 52.773061,567.42707 87.33673,566.05016 c 23.38264,19.40054 16.73022,-6.14807 22.82136,-18.87495 15.16894,1.51568 51.96163,31.94721 29.74856,-1.26945 -0.89108,-19.98299 50.57382,-16.57151 9.81334,-26.92834 -11.08841,-32.06931 45.26267,-45.63672 55.98459,-14.61651 24.85289,-11.71971 6.35706,-35.27921 -12.02936,-30.96913 -12.45359,-37.70283 36.10582,20.61182 25.96726,-21.66095 -7.45815,-28.24083 10.27465,-17.06167 24.11016,-5.04397 -16.42201,-14.50582 -41.67915,-59.66348 0.62773,-55.36319 21.7593,10.05687 -17.70974,24.97514 1.69387,45.23818 22.23706,37.49474 21.25024,-15.85371 18.71032,-32.71419 7.32766,-12.60994 52.16715,-12.40511 15.06492,-24.53178 -18.57769,-9.6547 -14.29372,-25.60534 -22.6562,-41.10246 11.89905,-44.6817 58.33901,-10.23701 53.45412,14.24015 20.35147,-20.32893 33.19012,20.19687 7.01176,25.04012 18.07508,40.61855 68.63867,-7.40484 31.37018,-30.46003 -18.53754,-6.80108 -58.23244,-36.76284 -17.26886,-42.46854 43.39183,5.32931 -23.76894,-29.77891 7.93818,-47.78976 11.12324,-21.59193 40.66636,-12.52806 49.93707,-10.94936 0.38577,-21.6916 7.81065,-48.60395 23.80948,-15.32535 31.03995,28.44878 -6.90807,60.96645 -23.63356,73.20016 8.19117,36.37439 43.99553,69.63202 81.47696,67.64672 9.31501,-22.00721 -46.02884,-11.00549 -51.15235,-38.66312 -27.86972,-30.13495 11.14006,-36.99078 34.36744,-27.70595 17.82995,0.20691 55.06605,-19.27141 52.29407,-27.34575 -39.67522,23.23863 -73.23183,-13.3076 -71.19503,-51.78306 6.46958,-37.7319 62.7067,-36.20963 77.9495,-46.36858 -38.29003,-30.13899 -69.68541,33.52864 -93.77166,30.97687 -19.89448,-25.70534 -32.16019,-91.7357 20.35388,-77.34113 16.49147,10.56222 61.62274,-2.32172 21.89876,-6.47098 -25.22556,-5.43045 -60.2675,-8.76466 -74.31814,18.52808 -5.61577,-44.16385 47.81744,-71.051661 84.06332,-50.157436 16.04111,3.606733 69.47692,19.432366 27.70393,4.116739 -39.92982,-22.580652 -87.3929,-25.910921 -121.03218,3.815637 -17.19142,-38.902517 28.98597,-54.166151 58.72314,-37.510162 21.00271,2.475521 30.10438,-4.472733 3.60978,-4.943937 -18.27525,-14.52814 -56.21877,1.407288 -63.07552,-17.082563 l 0.31197,-4.796604 0.7113,-6.06204 0,0 z"
     style="fill:#000000;fill-opacity:1;stroke:#000000;stroke-width:3.51518965;stroke-linecap:butt;stroke-linejoin:miter;stroke-miterlimit:4;stroke-dasharray:none;stroke-opacity:1"
     inkscape:connector-curvature="0" />
</svg>
