<?xml version="1.0" encoding="UTF-8" standalone="no"?>
<!-- Created with Inkscape (http://www.inkscape.org/) -->

<svg
   xmlns:dc="http://purl.org/dc/elements/1.1/"
   xmlns:cc="http://creativecommons.org/ns#"
   xmlns:rdf="http://www.w3.org/1999/02/22-rdf-syntax-ns#"
   xmlns:svg="http://www.w3.org/2000/svg"
   xmlns="http://www.w3.org/2000/svg"
   xmlns:sodipodi="http://sodipodi.sourceforge.net/DTD/sodipodi-0.dtd"
   xmlns:inkscape="http://www.inkscape.org/namespaces/inkscape"
   version="1.2"
   width="1056.9673"
   height="811.71863"
   viewBox="0 0 1056.9673 811.71863"
   id="Layer_1"
   xml:space="preserve"
   style="overflow:inherit"
   inkscape:version="0.91 r13725"
   sodipodi:docname="echinodermata.svg"><metadata
     id="metadata7"><rdf:RDF><cc:Work
         rdf:about=""><dc:format>image/svg+xml</dc:format><dc:type
           rdf:resource="http://purl.org/dc/dcmitype/StillImage" /><dc:title></dc:title></cc:Work></rdf:RDF></metadata><sodipodi:namedview
     pagecolor="#ffffff"
     bordercolor="#666666"
     borderopacity="1"
     objecttolerance="10"
     gridtolerance="10"
     guidetolerance="10"
     inkscape:pageopacity="0"
     inkscape:pageshadow="2"
     inkscape:window-width="1920"
     inkscape:window-height="1174"
     id="namedview5"
     showgrid="false"
     inkscape:zoom="0.73676468"
     inkscape:cx="589.35086"
     inkscape:cy="455.35731"
     inkscape:window-x="0"
     inkscape:window-y="0"
     inkscape:window-maximized="1"
     inkscape:current-layer="Layer_1"
     fit-margin-top="0"
     fit-margin-left="0"
     fit-margin-right="0"
     fit-margin-bottom="0" /><defs
     id="defs7" /><path
     style="fill-rule:evenodd"
     d="m 819.54665,807.46109 c -40.71412,-1.47687 -63.74281,-46.76149 -83.18002,-77.43232 -26.97593,-37.01824 -57.8974,-70.9761 -77.31407,-112.84642 -18.25679,-36.52797 -71.18308,-56.02595 -105.7555,-31.96827 -47.52116,13.13836 -70.4139,59.57891 -109.19495,86.07123 -39.53824,34.74982 -77.45733,77.59298 -80.69496,132.92827 -30.92515,31.92609 -59.74533,-46.49499 -43.33197,-76.31571 2.37329,-41.58686 28.51666,-73.27392 42.50098,-110.77662 19.79371,-37.62484 50.16689,-68.01084 69.68206,-105.78941 55.15287,-37.38443 -31.79527,-57.4362 -60.19525,-67.00587 C 334.58292,425.51871 297.45309,416.18913 262.9516,393.30068 199.32583,369.88585 143.85501,327.78535 77.260953,311.93178 44.263679,305.67432 -31.444689,288.95394 14.310775,243.62996 c 44.41502,-19.15043 93.286895,8.01821 139.084535,13.09288 36.35962,14.86636 79.95065,12.22053 116.54198,27.52362 53.25131,8.47518 107.99268,11.51039 159.76031,27.49481 30.97807,-1.31448 97.89622,51.21873 91.87438,-13.43543 6.13398,-55.3195 -3.15381,-109.81095 -47.20403,-148.9234 C 440.28479,109.41509 390.13384,84.335529 361.28981,40.088847 352.2471,-17.018629 420.6245,-5.949878 442.46875,28.817011 c 50.25654,16.545355 100.02309,37.677768 136.14018,77.780549 32.56353,30.56326 75.88988,74.95815 75.7563,122.19889 13.51146,33.98993 -0.7709,134.3416 60.18072,88.11577 69.15497,-29.40002 144.89054,-7.73987 216.32038,-2.16156 42.16874,10.06441 139.29627,10.63915 124.60157,71.3062 -37.4026,9.63737 -78.63751,-4.34227 -117.50961,1.72244 -42.3244,8.55339 -85.432,14.59611 -126.92124,26.27624 -30.49364,15.44488 -99.76814,43.36966 -72.29481,82.38095 19.96695,40.39617 27.2124,86.14016 43.74777,128.32362 14.90859,50.1141 31.14803,100.0104 44.73429,150.2119 1.13328,11.0186 1.1378,24.28004 -7.67765,32.48908 z"
     id="path3"
     inkscape:connector-curvature="0" /></svg>