<?xml version="1.0" encoding="UTF-8" standalone="no"?>
<svg
   xmlns:dc="http://purl.org/dc/elements/1.1/"
   xmlns:cc="http://creativecommons.org/ns#"
   xmlns:rdf="http://www.w3.org/1999/02/22-rdf-syntax-ns#"
   xmlns:svg="http://www.w3.org/2000/svg"
   xmlns="http://www.w3.org/2000/svg"
   xml:space="preserve"
   id="Layer_1"
   viewBox="0 0 767.21799 301.17251"
   height="301.17252"
   width="767.21802"
   version="1.2"><metadata
     id="metadata12"><rdf:RDF><cc:Work
         rdf:about=""><dc:format>image/svg+xml</dc:format><dc:type
           rdf:resource="http://purl.org/dc/dcmitype/StillImage" /><dc:title></dc:title></cc:Work></rdf:RDF></metadata><defs
     id="defs15" /><path
     id="path9"
     d="m 746.38196,143.67058 c 16.73945,-18.12717 31.687,2.00976 10.1161,12.58869 -48.40273,41.67816 -112.66081,56.60297 -172.7546,72.97487 -48.52668,10.7766 -98.64204,34.28258 -148.81172,20.12742 -33.49368,-10.08676 -39.04858,51.85274 -67.23187,36.81069 -13.40542,9.00095 -39.90383,29.99766 -42.23695,-2.55603 -5.05296,-18.41239 7.96221,-33.11207 18.30419,-44.12098 -27.297,-7.79059 -55.4075,-19.70929 -84.28128,-21.8822 -26.87651,1.42529 -53.64856,47.02038 -75.50073,8.79387 -12.9063,-16.16458 -20.58036,-34.53078 -4.19521,-48.61698 C 153.00945,160.44779 117.18508,149.22372 87.39607,166.80677 60.726505,175.70346 21.556771,205.98753 0,193.74166 5.3955895,160.01117 36.698023,138.63306 52.565249,111.13912 56.026373,77.568393 31.634006,47.807485 33.26419,14.030198 c 3.849005,-34.314266 36.740392,3.564147 46.973482,15.907745 18.734193,20.793667 31.473598,46.500817 50.664058,66.697583 10.99171,9.645514 50.00716,17.663864 47.93811,6.883154 -13.84053,-20.260787 30.89695,-12.642284 33.86558,2.61684 31.78204,14.70298 64.07333,-9.488529 96.04476,-12.334618 22.4269,-2.340729 63.4916,-6.503303 46.48484,-38.739746 -4.35255,-24.023697 19.76988,-78.744611 40.0529,-37.070831 7.03745,30.807986 25.9784,62.754308 62.16972,50.383906 55.8305,-2.203048 110.22488,11.971316 165.2955,18.176499 38.82952,5.799131 76.40056,18.15229 114.74061,25.50856 14.30964,3.90208 14.83625,20.75082 8.88821,31.61129 z" /></svg>