<?xml version="1.0" encoding="UTF-8" standalone="no"?>
<svg
   xmlns:dc="http://purl.org/dc/elements/1.1/"
   xmlns:cc="http://creativecommons.org/ns#"
   xmlns:rdf="http://www.w3.org/1999/02/22-rdf-syntax-ns#"
   xmlns:svg="http://www.w3.org/2000/svg"
   xmlns="http://www.w3.org/2000/svg"
   style="overflow:inherit"
   xml:space="preserve"
   id="Layer_1"
   viewBox="0 0 39.671737 17.800941"
   height="17.800941"
   width="39.671738"
   version="1.2"><metadata
     id="metadata14"><rdf:RDF><cc:Work
         rdf:about=""><dc:format>image/svg+xml</dc:format><dc:type
           rdf:resource="http://purl.org/dc/dcmitype/StillImage" /><dc:title></dc:title></cc:Work></rdf:RDF></metadata><defs
     id="defs21" /><path
     id="path5"
     d="M 2.8383309,0.13203077 C 2.5657519,0.15282437 2.2860063,0.22766247 2.0148111,0.32162357 1.8919842,0.35950077 1.7697458,0.40204227 1.6513755,0.45899097 1.444394,0.55404597 1.2527137,0.66055907 1.0975525,0.77273507 0.71828483,1.0464256 0.51360512,1.3902953 0.42723826,1.7652784 0.24914645,2.2474163 0.34816267,2.6959552 0.55284117,3.1064744 0.77986391,3.764134 1.1951765,4.3855495 1.6176829,4.8059481 c 0.01161,0.044444 0.036011,0.093152 0.036533,0.134923 6.834e-4,0.050594 -0.010904,0.085284 -0.017852,0.1267193 -0.091652,0.078616 -0.1548737,0.1751474 -0.16622,0.2933018 -0.0072,0.00587 -0.017916,0.00981 -0.025467,0.015378 -0.045005,-0.00752 -0.09088,-0.014955 -0.1430522,-0.00769 -0.1337103,0.018616 -0.2261579,0.083075 -0.2947502,0.1632997 -0.12861468,0.035406 -0.21904713,0.1085768 -0.27555288,0.2020382 -0.034087,0.020799 -0.0664395,0.050257 -0.0999807,0.075051 -0.0387638,0.024192 -0.0746008,0.049825 -0.10304166,0.081393 -0.0794301,0.072825 -0.15613453,0.1582591 -0.22496366,0.2679574 -0.0718312,0.1146906 -0.10478587,0.2729413 -0.11705214,0.4481573 -0.0947697,0.1787799 -0.075392,0.4132011 0.0462984,0.5733115 -0.1146224,0.2406825 -0.0123185,0.547585 0.23795611,0.661001 0.177032,0.366645 0.43289161,0.697574 0.76204543,0.941014 0.0533,0.192134 0.1968436,0.353431 0.439315,0.350975 0.036847,0.01809 0.074363,0.03862 0.1188832,0.04655 0.086494,0.0556 0.1920108,0.09159 0.3237401,0.07324 0.051503,-0.0072 0.087914,-0.02677 0.1299767,-0.04373 0.065545,0.02116 0.140196,0.02978 0.2233935,0.0182 0.063389,-0.0088 0.1134854,-0.03312 0.161516,-0.05798 0.067939,0.02386 0.1457242,0.03493 0.2338739,0.02265 0.08815,-0.01227 0.1580187,-0.0439 0.2168566,-0.08541 0.023194,-2e-4 0.041952,0.008 0.065723,0.0047 0.1584714,-0.02206 0.2512929,-0.107744 0.3178418,-0.209898 0.014056,-0.0022 0.020702,-0.008 0.034012,-0.01065 0.2537742,-0.07093 0.4577238,-0.117377 0.6021337,-0.150881 0.07237,0.02159 0.1595842,0.03102 0.2742282,0.01506 0.017828,-0.0025 0.027254,-0.0067 0.043954,-0.01007 0.039404,0.01471 0.1052338,0.0068 0.1574014,0.01161 0.03474,0.05372 0.1137948,0.08989 0.2123,0.108479 0.018153,0.06512 0.08361,0.113524 0.1817889,0.144279 0.049753,0.03094 0.1223996,0.04744 0.206693,0.05405 0.011148,0.0077 0.014362,0.0082 0.025906,0.01611 0,0 0.5692896,0.216206 0.4879275,-0.192168 0.1024604,-0.131577 0.043391,-0.281747 -0.182814,-0.321607 -0.041843,-0.03761 -0.1048187,-0.07466 -0.1694724,-0.11247 -0.02082,-0.0201 -0.04759,-0.03416 -0.079655,-0.04807 -0.055959,-0.02705 -0.1356506,-0.04914 -0.207452,-0.07366 -0.04563,-0.03237 -0.107138,-0.05347 -0.1881563,-0.06254 -0.3504177,-0.08531 -0.8549357,-0.130771 -1.5707825,-0.09287 -0.078864,-0.04283 -0.1674761,-0.07134 -0.2818188,-0.05542 -0.08815,0.01227 -0.1596838,0.0461 -0.2185216,0.08761 -0.023194,2e-4 -0.040018,-0.0082 -0.063788,-0.0049 -0.03758,0.0052 -0.065345,0.02033 -0.095964,0.03308 -0.0541,0.0057 -0.099779,0.0072 -0.1558343,0.01381 -0.046294,-0.0078 -0.089653,-0.02104 -0.1438601,-0.01349 -0.036788,0.0051 -0.06479,0.01998 -0.09403,0.03281 -0.058103,0.004 -0.099845,-0.0091 -0.1532631,-0.01021 -0.056944,-0.02531 -0.1130562,-0.05121 -0.1848753,-0.05314 -0.018492,-0.0095 -0.038054,-0.01418 -0.05627,-0.02174 C 1.7777705,8.1088514 1.637091,8.0642994 1.4317182,8.0875514 1.2627006,7.9729024 1.1544421,7.8151024 1.0872174,7.6385829 1.1646003,7.4663183 1.1434701,7.2513331 1.0278182,7.0986469 1.0758245,7.0010949 1.0966188,6.8915401 1.0803215,6.7817384 1.1452903,6.7262491 1.1918698,6.6545944 1.2191644,6.5750708 1.2540685,6.5429507 1.2815869,6.504129 1.3043551,6.4646118 1.378413,6.4381464 1.4353847,6.3951291 1.4829391,6.3450933 1.652037,6.3062808 1.7375143,6.1925305 1.7888813,6.0638892 1.8853979,6.0028261 1.9371165,5.9730503 2.0139416,5.9240961 2.1632106,5.9022653 2.2555847,5.8244342 2.322062,5.7293555 2.348237,5.7125586 2.4978544,5.6181136 2.4978544,5.6181136 c 0,0 1.0716105,-0.4550355 -0.6571268,-2.4819225 -0.00815,-0.015123 -0.023134,-0.028061 -0.033547,-0.042656 -0.00675,-0.00782 -0.00993,-0.01346 -0.016773,-0.021328 -0.3444722,-1.048917 -0.019757,-1.4609391 0.4120583,-1.6152234 0.084772,-0.024247 0.1700165,-0.046787 0.2518481,-0.060701 0.4183517,-0.059549 0.8434252,0.038356 0.8434252,0.038356 0,0 0.7314037,0.2277061 1.1207584,0.5006218 0,0 0.2313566,0.2008245 0.5021224,0.476324 -0.00247,0.00223 -0.0916,0.090185 -0.1233417,0.1197149 C 4.5731831,2.646498 4.3921635,2.8527073 4.2724454,3.0815875 4.136473,3.2416251 4.0109531,3.4040436 3.9426512,3.5455611 3.8021072,3.8355306 3.4654161,4.8639739 3.7721013,5.6773368 c 0.0061,0.032467 0.00714,0.066431 0.013736,0.098657 0.048076,0.2366246 0.2747131,0.4532321 0.5664968,0.6270903 0.029505,0.018802 0.060564,0.036729 0.092339,0.05419 0.071982,0.038372 0.1439302,0.07308 0.221703,0.105198 0.012115,0.00468 0.024864,0.00805 0.037244,0.012562 0.5123624,0.2028861 1.1023579,0.2610835 1.4438927,0.045464 0.6124271,-0.1597514 1.1968343,-0.6618173 1.0341769,-2.1041207 0.00693,-0.0242 0.018221,-0.043501 0.012709,-0.078676 C 7.177534,4.3321959 7.1468668,4.232451 7.1258885,4.1297546 7.1143452,4.0672407 7.0964462,3.9962829 7.082402,3.9307249 7.0451215,3.767567 7.0166365,3.601966 6.9722899,3.4372888 6.9347699,3.297434 6.8437897,3.1884458 6.7370728,3.0933927 c -0.032457,-0.050939 -0.051973,-0.08 -0.08296,-0.128459 0.065014,0.038582 0.1289249,0.073723 0.1740273,0.074368 0.028671,1.981e-4 0.060491,-4.258e-4 0.090602,-7.824e-4 0.078505,0.017101 0.2809298,0.06004 0.7658247,0.1891694 0.2515787,0.099351 0.5661596,0.1953551 0.8794906,0.382372 L 8.9178407,3.8565984 C 9.1542002,4.0393027 9.3774772,4.2559682 9.5459947,4.544123 9.7818414,4.9545208 9.8515399,5.4933068 9.809383,6.0534719 9.773445,6.6147904 9.6595041,7.207099 9.5307521,7.8197064 c -0.1296046,0.613736 -0.268601,1.252475 -0.3322099,1.91962 -0.00974,0.154823 -0.0462,0.3493806 -0.014281,0.5206146 0.044705,0.234071 0.2072557,0.381691 0.3748154,0.468413 0.341501,0.168518 0.7000524,0.178718 1.0448774,0.168065 0.172563,-0.0079 0.344683,-0.02312 0.514789,-0.05589 0.0059,-0.0011 0.01307,-0.0035 0.01907,-0.0047 0.01559,-0.0018 0.0359,-0.0013 0.05083,-0.0031 0.01671,-0.002 0.02692,-0.01581 0.04261,-0.01973 0.136092,-0.02793 0.281454,-0.06695 0.395392,-0.191115 0.271109,-0.279052 0.417908,-0.558876 0.598248,-0.8444726 0.150862,-0.251577 0.294606,-0.501412 0.440184,-0.74753 l 3.07507,-0.844224 2.076747,0.809239 c -0.292362,0.385233 -0.531042,0.781015 -0.691205,1.1965926 -1.043844,2.705796 0.980795,8.548387 6.67247,7.317753 5.470747,-1.780422 1.970167,-7.275569 1.359082,-7.8719986 -0.609794,-0.601658 -1.458767,-1.143749 -1.458767,-1.143749 l -2.327543,1.440195 c 0,0 0.743976,0.05354 1.788047,0.9026776 1.04308,0.849274 2.113229,2.067922 1.116052,3.14371 -0.996325,1.074659 -2.124999,1.721529 -4.006753,-0.706172 -1.741663,-2.610768 3.415313,-4.7558736 3.463695,-4.8797286 0.04555,-0.122451 1.140264,-0.7897872 1.140264,-0.7897872 0,0 1.004532,-0.7362925 1.24906,-0.8581772 0.24849,-0.1224363 0.973723,-0.3288233 0.973723,-0.3288233 0,0 0.186063,-0.027622 0.674057,-0.569092 0.30166,-0.4802066 1.588413,-0.4299655 1.68825,-0.7063738 0.105641,-0.2782261 -0.635472,-1.0375155 -0.635472,-1.0375155 l 0.309123,-0.088394 c 0,0 0.723503,-0.030389 1.307477,-0.04203 0.58114,-0.010236 1.51045,-1.0980301 4.568387,-1.8034565 1.622555,-0.6014956 5.068039,1.282373 4.469686,0.00872 -0.599343,-1.27351793 -3.338458,-2.29549753 -6.480944,-1.83474943 -3.140504,0.4604723 -4.453878,1.27324103 -4.80608,1.76753173 -0.204025,0.5433257 0.15704,0.5689676 0.05786,0.7412913 -0.09932,0.1713333 -0.169254,0.05906 -0.169254,0.05906 0,0 -0.612325,-0.6175702 -0.779974,-0.5599006 -0.166521,0.058522 -0.20561,0.3981258 -0.249943,0.4567997 -3.145579,1.7651146 -5.920637,3.2043989 -7.781243,4.731512 0.159053,-0.1153443 0.286918,-0.2842667 0.275971,-0.3973209 l 0.283119,-0.076885 c -0.153088,-0.00881 -0.302606,-0.029869 -0.450876,-0.051599 -0.02986,-0.011239 -0.06949,-0.015298 -0.118444,-0.015061 -0.161168,-0.027167 -0.319527,-0.061622 -0.47555,-0.1013601 -0.07849,-0.047453 -0.154242,-0.073297 -0.220723,-0.069839 C 18.238587,6.7346951 17.927259,6.6264046 17.623308,6.499733 17.510829,6.4459967 17.404033,6.3887058 17.288525,6.3471762 16.987011,6.2127019 16.690896,6.0834875 16.400808,5.9482018 16.359586,5.8736877 16.305044,5.8051146 16.207021,5.7602385 15.725973,5.5375682 15.267723,5.3999162 14.820285,5.3321439 c -0.2525,-0.067314 -0.504937,-0.1137517 -0.75941,-0.1289316 -0.04625,-0.026644 -0.115221,-0.041145 -0.234143,-0.024588 -0.02086,0.0029 -0.04249,0.016047 -0.06389,0.022699 -0.256265,0.00968 -0.515397,0.058466 -0.778611,0.1439006 -0.01361,5.017e-4 -0.02296,-0.00272 -0.0395,-4.177e-4 -0.06227,0.00867 -0.127585,0.036684 -0.190852,0.073899 -0.154831,0.064474 -0.31275,0.1447204 -0.471252,0.241117 -0.134016,0.1020949 -0.233393,0.2101765 -0.35246,0.3152907 -0.02416,-0.083745 -0.05444,-0.1585366 -0.08063,-0.2392131 C 11.811817,5.5318397 11.693233,5.0732574 11.000057,3.8269924 10.466276,2.9275477 9.8186217,2.3876787 9.1692176,2.0645791 9.1228395,2.0368838 9.0740921,2.015287 9.0266803,1.9897702 c -0.00492,-0.00221 -0.0097,-0.00367 -0.014619,-0.00585 C 8.8550843,1.9003533 8.6966697,1.8183143 8.5278119,1.7634327 8.4567899,1.7405346 8.4021735,1.7519197 8.3601013,1.776923 7.0891973,1.4602758 5.9942044,1.8085587 5.9942044,1.8085587 l 0.07439,0.052746 c -0.040078,0.00758 -0.078834,0.012369 -0.1193975,0.020571 C 5.1334305,0.69416697 5.0356442,0.88825257 3.9644794,0.35977097 3.9236201,0.34560687 3.8762061,0.33751957 3.8334016,0.32477787 3.7023001,0.26892737 3.5774331,0.20768047 3.4254276,0.17057957 3.2456247,0.12645267 3.0453497,0.11623847 2.8383309,0.13203077 Z M 4.9641083,2.4548292 c 0.0061,0.00633 0.010088,0.011037 0.016235,0.017459 -0.00124,3.184e-4 -0.00263,2.133e-4 -0.00387,5.392e-4 l -0.01237,-0.017997 z m 2.0372274,0.5820507 c 0.030077,-5.429e-4 0.058643,-9.77e-5 0.088667,-5.131e-4 0.076101,-0.00454 0.1606787,0.00659 0.2454805,0.021036 0.022066,0.017534 0.041357,0.025588 0.062564,0.038616 C 7.221905,3.0703135 7.0659262,3.044961 7.0013357,3.0368799 Z M 5.758008,3.6812871 c 0.025438,0.028832 0.05696,0.037351 0.084871,0.057202 0.02586,0.06987 0.056233,0.1407148 0.072724,0.2107347 0.1009012,0.4342763 0.1284947,0.6663216 0.129355,0.8299346 -0.026301,0.2768007 -0.1486236,0.502323 -0.5010807,0.5509245 -0.058235,0.00811 -0.091702,0.00132 -0.1359022,0.00117 C 5.2381444,5.1950104 5.285816,4.8079467 5.285816,4.8079467 c 0,0 0.084998,-0.3935519 0.2282991,-0.7397211 C 5.5997561,3.9418942 5.682072,3.8145269 5.758008,3.6812871 Z m 4.064737,0.8676877 c 0.00687,0.00438 0.00838,0.00726 0.015425,0.011656 0.010656,0.025777 0.021183,0.054679 0.034259,0.076081 0.0094,0.015335 0.00877,0.044837 0.016613,0.062762 -0.019946,-0.051457 -0.042567,-0.1012343 -0.066307,-0.1504977 z m 9.430079,3.0036868 c -0.191356,0.1575228 -0.36605,0.3171228 -0.537002,0.4770468 0.0722,-0.08685 0.11851,-0.177889 0.14597,-0.26879 0.05367,-0.0206 0.07346,-0.057572 0.08266,-0.1002487 0.02193,-0.00204 0.03431,0.00311 0.06105,-6.144e-4 0.0796,-0.011584 0.167094,-0.051783 0.247318,-0.107397 z m -3.197207,0.5476868 c 0.06644,0.02959 0.131139,0.06245 0.198,0.09075 0.173828,0.07373 0.37164,0.117246 0.572035,0.156991 0.221657,0.264965 0.554437,0.359289 0.879515,0.45336 0.09915,0.02882 0.192536,0.0072 0.283507,-0.0316 -0.06111,0.07352 -0.113597,0.148454 -0.170112,0.222852 -0.03038,-0.01668 -0.853025,-0.457546 -1.812435,-0.879563 l 0.04949,-0.01281 z"
     style="fill:#010101;stroke:#000000;stroke-width:0.25;stroke-miterlimit:10" /></svg>