<?xml version="1.0" encoding="UTF-8" standalone="no"?>
<!-- Created with Inkscape (http://www.inkscape.org/) -->

<svg
   xmlns:dc="http://purl.org/dc/elements/1.1/"
   xmlns:cc="http://creativecommons.org/ns#"
   xmlns:rdf="http://www.w3.org/1999/02/22-rdf-syntax-ns#"
   xmlns:svg="http://www.w3.org/2000/svg"
   xmlns="http://www.w3.org/2000/svg"
   xmlns:sodipodi="http://sodipodi.sourceforge.net/DTD/sodipodi-0.dtd"
   xmlns:inkscape="http://www.inkscape.org/namespaces/inkscape"
   width="135.8784mm"
   height="83.540382mm"
   viewBox="0 0 481.45891 296.00923"
   id="svg2"
   version="1.1"
   inkscape:version="0.91 r13725"
   sodipodi:docname="marsupialia.svg">
  <defs
     id="defs4" />
  <sodipodi:namedview
     id="base"
     pagecolor="#ffffff"
     bordercolor="#666666"
     borderopacity="1.0"
     inkscape:pageopacity="0.0"
     inkscape:pageshadow="2"
     inkscape:zoom="0.98994949"
     inkscape:cx="12.612523"
     inkscape:cy="131.6842"
     inkscape:document-units="px"
     inkscape:current-layer="layer1"
     showgrid="false"
     fit-margin-top="0"
     fit-margin-left="0"
     fit-margin-right="0"
     fit-margin-bottom="0"
     inkscape:window-width="1920"
     inkscape:window-height="1174"
     inkscape:window-x="0"
     inkscape:window-y="0"
     inkscape:window-maximized="1" />
  <metadata
     id="metadata7">
    <rdf:RDF>
      <cc:Work
         rdf:about="">
        <dc:format>image/svg+xml</dc:format>
        <dc:type
           rdf:resource="http://purl.org/dc/dcmitype/StillImage" />
        <dc:title></dc:title>
      </cc:Work>
    </rdf:RDF>
  </metadata>
  <g
     inkscape:label="Layer 1"
     inkscape:groupmode="layer"
     id="layer1"
     transform="translate(-154.09861,-285.53007)">
    <path
       style="fill:#000000"
       d="m 553.05564,580.48889 c -1.72321,-0.52417 -4.94558,-1.89032 -7.16086,-3.03588 -2.21528,-1.14557 -14.02414,-3.77147 -26.24191,-5.83534 -12.21778,-2.06389 -28.12039,-4.8597 -35.33914,-6.21294 -7.21875,-1.35322 -18.1875,-3.32251 -24.375,-4.37617 -19.49152,-3.31919 -19.71739,-3.53583 -24.87051,-23.85482 -5.1617,-20.35277 -14.11588,-44.97256 -23.6011,-64.89192 l -8.92839,-18.75 -11.925,-5.90296 c -10.83731,-5.36457 -13.6922,-7.61872 -31.3,-24.7138 -26.15687,-25.39522 -24.37229,-24.21179 -31.292,-20.7509 -5.28273,2.64215 -43.35454,22.78176 -56.833,30.06408 -11.85306,6.40414 -28.7771,13.00095 -38.3848,14.962 -13.45976,2.7473 -21.77625,2.46734 -33.11317,-1.11468 -15.88966,-5.02052 -26.46358,-12.71197 -35.3847,-25.73875 -6.22877,-9.09537 -8.60271,-14.98817 -9.48466,-23.54353 l -0.72279,-7.01146 3.44847,5.625 c 14.05544,22.92669 25.39838,30.8342 46.14165,32.16676 13.62554,0.87531 23.15703,-1.75692 38.50081,-10.63246 25.19437,-14.57356 44.154,-30.48269 64.39516,-54.0343 29.19527,-33.97015 52.78898,-55.85438 72.84705,-67.56893 15.01522,-8.76936 31.93795,-11.71981 49.3399,-8.60234 10.1945,1.82629 28.2503,10.84713 38.15248,19.06131 9.00184,7.46732 25.50286,25.35066 33.92272,36.76449 10.28947,13.9482 13.68138,17.56101 18.24322,19.43123 13.44097,5.51046 23.08317,8.6118 25.11912,8.07939 1.25808,-0.32899 6.85301,-3.5719 12.43321,-7.20646 7.30665,-4.75906 9.80239,-7.02207 8.91863,-8.08694 -0.67494,-0.81326 -5.59108,-3.84488 -10.92474,-6.73694 -10.22805,-5.54594 -18.44595,-14.2044 -17.5736,-18.51573 0.53598,-2.64894 2.58544,-2.61029 12.87604,0.24285 9.57815,2.65561 15.86804,6.40304 23.99874,14.29812 3.93815,3.82403 7.21278,6.03642 8.31096,5.61501 2.10367,-0.80726 13.29647,4.56495 15.80277,7.58485 0.938,1.13021 3.43392,2.93086 5.54649,4.00144 7.26803,3.6832 26.34516,16.91059 29.14733,20.20969 1.54346,1.81717 2.80908,4.55662 2.8125,6.08765 0.009,3.81612 -5.26495,7.11685 -9.6836,6.0611 -5.36462,-1.28178 -15.08355,-0.80152 -25.14738,1.24265 -5.06671,1.02913 -11.32644,1.74642 -13.91051,1.59395 -4.27603,-0.2523 -5.32125,0.39561 -11.62883,7.20855 -3.81177,4.11717 -10.37926,9.98873 -14.59441,13.04791 -5.3904,3.91212 -9.47156,8.34326 -13.75737,14.93715 l -6.09345,9.375 -12.47169,5.41214 -12.47169,5.41215 -14.17994,21.37516 c -7.79896,11.75635 -15.27036,22.39901 -16.60312,23.65036 -2.46763,2.31689 -11.21846,3.14389 -13.95218,1.31855 -4.05676,-2.70877 -5.45793,-11.27378 -2.79897,-17.10955 1.54646,-3.39412 4.32825,-4.51657 3.0705,-1.23893 -1.055,2.74929 2.46977,10.55512 4.76625,10.55512 2.21779,0 1.99155,0.80058 7.56724,-26.77794 2.35213,-11.63412 3.99831,-21.60323 3.65817,-22.15358 -0.34014,-0.55037 -4.34412,-2.15141 -8.89775,-3.55787 l -8.27931,-2.55722 -3.0424,2.8358 c -3.94964,3.68145 -10.93105,14.19005 -13.47989,20.2903 -4.2342,10.13386 -1.33541,55.58166 4.54816,71.30692 2.91957,7.80323 -1.95523,5.69903 56.5949,24.42912 24.79773,7.93274 42.33555,12.8812 46.46587,13.11072 9.08203,0.5047 27.73251,10.55296 19.64011,10.58145 -1.20313,0.004 -3.79868,0.84799 -5.76789,1.875 -3.78265,1.97279 -16.5367,2.37726 -22.0527,0.69938 z"
       id="path4147"
       inkscape:connector-curvature="0" />
  </g>
</svg>
