<?xml version="1.0" encoding="UTF-8" standalone="no"?>
<svg
   xmlns:dc="http://purl.org/dc/elements/1.1/"
   xmlns:cc="http://creativecommons.org/ns#"
   xmlns:rdf="http://www.w3.org/1999/02/22-rdf-syntax-ns#"
   xmlns:svg="http://www.w3.org/2000/svg"
   xmlns="http://www.w3.org/2000/svg"
   xmlns:xlink="http://www.w3.org/1999/xlink"
   xmlns:sodipodi="http://sodipodi.sourceforge.net/DTD/sodipodi-0.dtd"
   xmlns:inkscape="http://www.inkscape.org/namespaces/inkscape"
   xml:space="preserve"
   id="Layer_1"
   viewBox="0 0 104.82671 41.926094"
   height="41.926094"
   width="104.82671"
   version="1.1"
   inkscape:version="0.91 r13725"
   sodipodi:docname="monotremata.svg"><sodipodi:namedview
     pagecolor="#ffffff"
     bordercolor="#666666"
     borderopacity="1"
     objecttolerance="10"
     gridtolerance="10"
     guidetolerance="10"
     inkscape:pageopacity="0"
     inkscape:pageshadow="2"
     inkscape:window-width="640"
     inkscape:window-height="480"
     id="namedview10"
     showgrid="false"
     inkscape:zoom="2.5375211"
     inkscape:cx="52.413357"
     inkscape:cy="20.963047"
     inkscape:window-x="0"
     inkscape:window-y="0"
     inkscape:window-maximized="0"
     inkscape:current-layer="Layer_1" /><metadata
     id="metadata14"><rdf:RDF><cc:Work
         rdf:about=""><dc:format>image/svg+xml</dc:format><dc:type
           rdf:resource="http://purl.org/dc/dcmitype/StillImage" /><dc:title /></cc:Work></rdf:RDF></metadata><defs
     id="defs19"><defs
       id="defs5"><rect
         width="87.533997"
         height="69.160004"
         x="9.4960003"
         y="14"
         id="SVGID_1_" /></defs><clipPath
       id="SVGID_2_"><use
         id="use9"
         style="overflow:visible"
         x="0"
         y="0"
         width="1"
         height="1"
         xlink:href="#SVGID_1_" /></clipPath></defs><path
     style="fill-rule:evenodd"
     id="path15"
     d="m 33.423342,23.670338 c 0.855184,0.918141 -0.09697,1.48056 0.536456,2.353702 -2.411692,1.899285 -2.082682,4.336907 -4.593731,6.217397 0.59442,0.580115 1.401164,0.07561 2.210088,-0.439999 0.207021,1.081237 -0.187662,2.045006 0.972707,3.313501 -0.65686,0.53755 -1.786095,0.981595 -2.061338,1.594103 0.79513,1.036777 2.158307,-0.818406 2.980993,0.08543 -0.02778,1.032953 -1.738689,1.21718 -2.446411,1.643132 1.441577,1.583154 3.439059,-1.721989 4.375726,-0.01534 0.589467,1.074927 -1.463838,1.296388 -2.012036,1.977787 0.926095,1.052413 2.443925,-0.915075 3.489122,-0.472691 0.10777,0.04567 0.484467,0.06129 0.572127,-0.01445 1.077912,-0.931174 2.036633,-1.519686 2.65902,-2.564117 1.986294,-3.332562 -0.825324,-9.486194 4.385204,-10.878962 1.074855,-0.288263 2.013908,0.419357 3.127311,0.613554 3.251684,0.567363 7.208276,0.535993 10.293203,1.647817 -1.668048,1.917805 -3.228672,-0.08651 -4.370316,1.264513 0.059,1.024057 1.323717,0.701026 1.879455,1.243277 -0.591039,1.449811 -0.211652,3.777705 1.982366,3.261767 0.326855,0.522515 -0.180296,0.881212 0.341666,1.44133 1.910256,1.086468 4.056289,0.972578 6.346787,0.123209 0.562265,0.101794 1.053413,0.572988 1.589523,0.811607 3.671886,-0.959241 3.178405,-4.283822 6.520342,-5.214192 1.67554,-0.466448 4.381301,-0.08775 6.108032,0.700367 1.388108,0.633686 2.334586,1.967541 3.613908,2.582741 2.084423,1.003217 4.610972,1.208359 6.974078,0.74509 2.985193,4.286735 6.963239,7.587396 11.124726,5.683751 4.16425,-1.906705 6.437,-6.947076 3.42512,-10.44493 -0.75519,-0.876883 -2.53689,-1.355838 -3.902522,-2.390097 -1.230209,-0.931273 -1.76422,-2.251848 -3.228076,-2.008287 C 96.291054,24.912812 95.10887,22.060436 93.17103,20.29261 91.563166,18.825961 89.479069,18.562163 88.254541,16.703129 86.289213,13.717823 85.321519,11.699537 82.988615,9.1731268 81.41683,7.4714368 79.650378,7.0689788 77.593858,6.1144788 72.893002,3.9329248 67.894086,1.0529158 62.86355,0.34800784 c -6.934642,-0.971545 -15.235644,0.03469 -22.967131,3.73261096 -2.734347,1.307695 -4.920561,3.607256 -7.530001,5.265926 -0.863726,0.548801 -3.125638,1.6451932 -4.272257,2.0346582 -1.188174,0.402922 -2.563294,0.319458 -3.747046,0.637494 -7.648953,2.052384 -15.1487199,7.802739 -20.9126289,14.254366 -0.93109,1.042165 -2.25115,1.96613 -2.82552004,2.942166 C -1.5407139,32.862316 2.4384661,36.087532 5.7358661,38.09142 14.331573,40.27343 25.182882,29.856744 33.423342,23.670338 Z"
     inkscape:connector-curvature="0" /></svg>