<?xml version="1.0" encoding="UTF-8" standalone="no"?>
<svg
   xmlns:dc="http://purl.org/dc/elements/1.1/"
   xmlns:cc="http://creativecommons.org/ns#"
   xmlns:rdf="http://www.w3.org/1999/02/22-rdf-syntax-ns#"
   xmlns:svg="http://www.w3.org/2000/svg"
   xmlns="http://www.w3.org/2000/svg"
   viewBox="0 0 1016.9343 662.64862"
   height="662.64862"
   width="1016.9343"
   version="1.1"
   id="svg4190">
  <metadata
     id="metadata4196">
    <rdf:RDF>
      <cc:Work
         rdf:about="">
        <dc:format>image/svg+xml</dc:format>
        <dc:type
           rdf:resource="http://purl.org/dc/dcmitype/StillImage" />
        <dc:title></dc:title>
      </cc:Work>
    </rdf:RDF>
  </metadata>
  <defs
     id="defs4194" />
  <path
     id="path4200"
     d="m 662.05767,661.15444 c -0.31922,-0.83188 -1.56716,-1.38594 -2.81543,-1.25 -2.65321,0.28894 -5.26516,-4.27662 -6.29641,-11.00583 -0.4182,-2.72887 -1.16626,-4.25 -2.09004,-4.25 -1.1132,0 -1.43873,-1.56765 -1.43873,-6.92857 0,-4.8254 -0.45533,-7.3839 -1.5,-8.42857 -1.04417,-1.04417 -1.5,-3.60183 -1.5,-8.41644 0,-5.64645 -0.36724,-7.24879 -2,-8.72642 -1.1,-0.99549 -2,-2.81709 -2,-4.048 0,-1.23091 -0.64007,-2.48364 -1.42238,-2.78384 -0.8671,-0.33274 -1.21319,-1.34572 -0.88654,-2.59484 0.34661,-1.32544 -0.0339,-2.26765 -1.07763,-2.66816 -0.8874,-0.34052 -1.61345,-1.24599 -1.61345,-2.01215 0,-0.76615 -0.3375,-1.39652 -0.75,-1.40081 -1.02008,-0.0106 -3.25,-4.96195 -3.25,-7.21632 0,-1.00969 -1.07891,-2.23558 -2.41443,-2.74335 -1.32794,-0.50488 -2.73859,-1.95624 -3.13478,-3.22525 -0.39619,-1.269 -1.07539,-2.53763 -1.50932,-2.81917 -1.1409,-0.74023 -7.94147,-15.71956 -7.94147,-17.49234 0,-0.82267 -0.45,-1.49577 -1,-1.49577 -0.55,0 -1,-0.68912 -1,-1.53138 0,-0.84227 -0.675,-1.79041 -1.5,-2.10699 -0.825,-0.31659 -1.5,-1.37932 -1.5,-2.36163 0,-0.98231 -0.675,-2.04504 -1.5,-2.36163 -0.825,-0.31658 -1.5,-1.39972 -1.5,-2.40699 0,-1.00726 -0.51631,-2.34769 -1.14735,-2.97873 -0.63104,-0.63104 -1.21996,-3.30854 -1.3087,-5.95 -0.0888,-2.64146 -0.7359,-6.15265 -1.4381,-7.80265 -0.86948,-2.04304 -1.07152,-5.23291 -0.63338,-10 1.20736,-13.1366 0.32999,-39.5307 -2.00512,-60.32023 -1.66874,-14.85675 -2.84475,-18.87541 -3.9724,-13.57441 -0.33866,1.59205 -1.02556,3.65519 -1.52642,4.58475 -0.55532,1.03061 -0.49918,5.05416 0.14387,10.31128 0.58,4.74165 0.84366,9.17074 0.5859,9.84244 -0.25775,0.67169 0.0653,4.93352 0.71784,9.47074 1.27829,8.88785 0.85251,11.29837 -1.05874,5.994 -1.03098,-2.86131 -1.11688,-2.15953 -0.63544,5.19143 0.59293,9.05317 -0.50213,10.1095 -2.25271,2.17303 l -1.03075,-4.67303 -1.70089,2.54646 c -0.9355,1.40055 -2.2317,6.12555 -2.88046,10.5 -1.05654,7.12398 -2.81451,12.2483 -2.88297,8.40354 -0.0554,-3.10992 -5.14995,12.98027 -6.45999,20.40256 -0.76229,4.31891 -1.60989,8.07647 -1.88355,8.35014 -0.84235,0.84235 -2.63064,-0.73527 -2.63064,-2.32073 0,-0.8255 -0.48885,-1.19788 -1.08712,-0.82813 -0.59791,0.36953 -0.87188,1.49492 -0.60882,2.50087 0.26306,1.00594 -0.0178,3.99266 -0.62401,6.63714 l -1.1023,4.80815 -0.53887,-3.78312 c -0.75032,-5.26749 -2.59207,-4.60285 -2.29641,0.82872 0.13335,2.44992 -0.20415,4.4544 -0.75,4.4544 -0.54586,0 -0.99247,-1.09844 -0.99247,-2.44098 0,-1.34254 -0.40078,-2.68868 -0.89062,-2.99142 -1.18315,-0.73122 -4.00986,3.6848 -4.76024,7.43668 -0.66824,3.34121 -1.78824,3.8204 -3.16777,1.35532 -1.16413,-2.08017 -3.18137,-0.90373 -3.18137,1.85535 0,2.51019 -9.66662,11.7699 -12.29651,11.7789 -0.98808,0.003 -2.56308,1.40543 -3.5,3.11566 -2.98747,5.45327 -5.05516,7.55311 -6.01312,6.10662 -1.39222,-2.10219 -3.5578,-0.49251 -6.93609,5.15562 -4.09985,6.85449 -7.04038,9.40458 -3.78538,3.28276 1.69175,-3.18174 1.98466,-4.38205 0.97479,-3.99453 -0.79403,0.3047 -1.44369,0.0609 -1.44369,-0.54179 0,-1.8611 -5.4016,-0.88338 -7.22776,1.30826 -1.57843,1.89432 -1.72969,1.91646 -1.75,0.25616 -0.0166,-1.35903 -0.52665,-1.65729 -2.02224,-1.18261 -1.14731,0.36414 -2,0.1797 -2,-0.43261 0,-2.23944 -2.99303,-0.94334 -3.62363,1.56918 l -0.66174,2.63657 -1.84996,-2.38657 c -1.54094,-1.98793 -2.00802,-2.14266 -2.79626,-0.92633 -0.81302,1.25456 -1.22774,1.20555 -2.94435,-0.34796 -2.89237,-2.61756 -4.46311,-1.13407 -3.71997,3.51331 0.37653,2.35465 0.22265,3.87441 -0.39227,3.87441 -0.5565,0 -1.01182,-1.09948 -1.01182,-2.4433 0,-1.34381 -0.7875,-3.03816 -1.75,-3.76521 -0.9625,-0.72706 -2.23215,-2.18829 -2.82144,-3.24719 -1.79764,-3.23014 -3.62044,-3.16011 -2.8063,0.10783 0.64092,2.57264 0.54849,2.71523 -0.95639,1.47543 -0.91623,-0.75485 -1.66587,-1.93725 -1.66587,-2.62756 0,-0.69031 -0.64026,-1.78648 -1.4228,-2.43593 -1.15315,-0.95703 -1.48481,-0.74548 -1.75,1.11626 -0.28288,1.98597 -0.78149,1.58756 -3.68145,-2.94163 -3.25624,-5.08564 -5.14447,-6.54894 -5.14697,-3.9887 -6.7e-4,0.6875 -1.12567,-0.0575 -2.5,-1.65554 -1.37433,-1.59805 -2.49878,-3.17764 -2.49878,-3.51022 0,-0.33257 -1.2375,-1.92825 -2.75,-3.54596 -1.5125,-1.61771 -3.27595,-4.08811 -3.91878,-5.48978 l -1.16878,-2.5485 -0.0965,2.5 c -0.21174,5.48368 -1.73928,5.23296 -4.12402,-0.67691 -1.29235,-3.2027 -2.86557,-6.83031 -3.49605,-8.06137 -1.09531,-2.13862 -5.60811,-6.26172 -6.8536,-6.26172 -0.32575,0 -0.59227,1.99844 -0.59227,4.44098 0,9.79371 -3.77417,3.26297 -4.25478,-7.36238 -0.25118,-5.55306 -2.22905,-8.08824 -3.03193,-3.88623 -0.24251,1.2692 -0.50221,-0.36042 -0.57711,-3.62137 -0.12736,-5.5448 -0.77884,-8.67407 -3.34585,-16.071 -0.57261,-1.65 -1.25892,-4.4625 -1.52513,-6.25 -0.26621,-1.7875 -0.84412,-3.25 -1.28425,-3.25 -0.44013,0 -0.76991,-2.00586 -0.73285,-4.45747 0.0626,-4.14393 -1.42023,-7.54253 -3.29095,-7.54253 -0.43888,0 -1.11187,2.93126 -1.49554,6.5139 -0.38367,3.58265 -1.16646,6.80369 -1.73953,7.15786 -0.71262,0.44043 -0.84913,-2.96167 -0.4319,-10.7639 0.5659,-10.58232 -0.0945,-12.27865 -1.76751,-4.53986 -1.31559,6.08561 -1.5802,1.38292 -0.49127,-8.73099 0.81833,-7.60054 0.83735,-11.51168 0.0674,-13.8624 -0.63824,-1.94868 -0.77416,-5.29917 -0.33567,-8.27461 0.40526,-2.75 0.50634,-7.7 0.22461,-11 -0.47349,-5.54626 -0.57447,-5.75222 -1.33526,-2.72354 l -0.82304,3.27646 -2.08819,-2.6547 c -1.98023,-2.51745 -2.02296,-3.04288 -0.82658,-10.16296 0.88894,-5.29033 0.94562,-7.70355 0.1919,-8.16938 -0.58834,-0.36361 -0.79942,-1.76469 -0.46906,-3.1135 0.33036,-1.34881 0.82125,-5.71488 1.09086,-9.70238 l 0.4902,-7.25 -2.58625,0 c -3.85132,0 -5.1901,2.97147 -8.10983,18 -1.44252,7.425 -3.08065,15.525 -3.64028,18 -0.55962,2.475 -1.43654,7.2 -1.9487,10.5 -0.51215,3.3 -1.66621,9.15 -2.56457,13 -1.19696,5.12972 -1.66484,12.38216 -1.75117,27.14411 -0.0994,16.99406 -0.3703,20.43432 -1.73251,22 -0.8881,1.02074 -1.86287,3.48527 -2.16617,5.47674 -0.48946,3.21377 -3.09564,9.61177 -5.65356,13.87915 -0.49452,0.825 -1.62361,3.16838 -2.5091,5.20752 -0.88549,2.03914 -2.04794,3.9782 -2.58322,4.30902 -0.53528,0.33082 -0.97324,1.88744 -0.97324,3.45914 0,1.57171 -0.3375,3.00765 -0.75,3.19099 -1.18154,0.52512 -4.25,6.47262 -4.25,8.23762 0,0.87764 -0.41425,1.59571 -0.92054,1.59571 -0.5063,0 -1.21706,1.35 -1.57946,3 -0.7449,3.3915 -1.922,3.82174 -3.4199,1.25 -0.8571,-1.47155 -1.02501,-1.27265 -1.05527,1.25 -0.0464,3.8666 -1.8859,10.5 -2.91177,10.5 -0.43612,0 -1.39321,1.9125 -2.12688,4.25 -0.73367,2.3375 -1.70569,4.6775 -2.16006,5.2 -0.45437,0.5225 -0.82612,1.95844 -0.82612,3.19098 0,2.74301 -1.90454,4.11899 -3.09649,2.23714 -0.48009,-0.75797 -0.88174,-1.15312 -0.89256,-0.87812 -0.0108,0.275 -1.13321,3.65 -2.49422,7.5 -1.361,3.85 -2.48404,7.81406 -2.49564,8.80902 -0.0116,0.99496 -0.44,1.55012 -0.95199,1.23369 -1.61477,-0.99799 -1.77632,-0.54326 -6.55721,18.45729 -0.76115,3.025 -1.82772,7.24252 -2.37016,9.37226 -2.89269,11.35734 -8.36703,4.20028 -6.02138,-7.87226 0.53431,-2.75 1.31412,-7.025 1.73291,-9.5 0.79304,-4.68672 2.22577,-7.92799 5.1991,-11.76189 0.9648,-1.24404 1.53551,-3.09809 1.26825,-4.12011 -0.56404,-2.15687 4.22545,-12.20724 6.42618,-13.48483 1.23929,-0.71945 1.26165,-1.00992 0.13155,-1.70836 -1.08441,-0.6702 -1.10884,-1.09431 -0.11998,-2.08317 0.6829,-0.6829 1.25852,-2.16414 1.27914,-3.29164 0.0206,-1.1275 1.80939,-5.2 3.97502,-9.05 2.16564,-3.85 4.63532,-8.2375 5.48818,-9.75 0.96442,-1.71034 1.13742,-2.75 0.45759,-2.75 -1.50657,0 -0.50829,-2.8343 4.75487,-13.5 2.44265,-4.95 5.78835,-12.6 7.43487,-17 1.64653,-4.4 3.8618,-10.19751 4.92283,-12.88335 2.26003,-5.72097 2.37216,-6.72387 0.67914,-6.07425 -1.8653,0.71573 -1.44618,-32.12964 0.67684,-53.0424 0.30547,-3.009 3.99508,-14.3627 5.8086,-17.87429 0.53238,-1.03085 1.12478,-2.83085 1.31645,-4 0.56987,-3.47604 7.79743,-23.65758 10.78393,-30.112 2.33085,-5.03744 2.5898,-6.38154 1.6337,-8.47995 -0.98177,-2.15476 -0.81908,-2.76818 1.19715,-4.51371 1.28333,-1.11103 3.89604,-4.49505 5.80601,-7.52005 1.90998,-3.025 5.183,-7.69122 7.27338,-10.36937 2.87563,-3.6842 3.5359,-5.18843 2.71275,-6.18026 -0.82275,-0.99135 -0.56329,-1.59168 1.06441,-2.4628 2.11788,-1.13345 2.19971,-2.6371 0.3989,-7.32992 -0.43535,-1.13451 0.52953,-1.84686 3.74574,-2.76542 5.41971,-1.54789 6.9816,-2.87104 12.50206,-10.59113 2.43799,-3.40939 5.28044,-6.46796 6.31656,-6.79681 1.08747,-0.34515 2.60522,-2.58616 3.59023,-5.3011 3.55798,-9.80667 6.76347,-15.80355 9.99734,-18.70319 3.33052,-2.9863 5.84387,-7.74874 4.69544,-8.89718 -1.18472,-1.18472 -7.8307,-0.47682 -11.25789,1.19913 -1.91862,0.93824 -4.12806,3.04048 -4.90986,4.67165 -1.21554,2.53614 -1.51376,2.7026 -2.05869,1.14913 -0.78013,-2.22399 -1.75377,-1.20036 -5.01813,5.27579 -2.77972,5.51468 -11.18693,13.66981 -15.59063,15.12317 -6.14775,2.02895 -10.43426,-2.80886 -10.43426,-11.77625 0,-9.82525 9.04275,-18.75331 20.20284,-19.94662 5.11996,-0.54745 5.373,-0.72082 7.5643,-5.18261 3.17488,-6.46449 2.77338,-18.62197 -0.63992,-19.37662 -2.68403,-0.59341 -7.51626,1.09825 -9.29286,3.25322 -1.07943,1.30933 -2.48719,1.86825 -4,1.5881 -1.2839,-0.23776 -2.89686,-0.46573 -3.58436,-0.5066 -0.6875,-0.0409 -1.25,-0.79745 -1.25,-1.6813 0,-1.03154 -0.53714,-1.38963 -1.5,-1 -4.6387,1.8771 -5.03133,1.93512 -3.75,0.55417 1.60309,-1.72772 1.65012,-3.7473 0.05,-2.14718 -0.66,0.66 -2.1225,1.16447 -3.25,1.12105 -1.1275,-0.0434 -1.4875,-0.30592 -0.8,-0.58333 2.07147,-0.83586 1.40409,-2.19078 -0.79573,-1.61551 -1.29206,0.33788 -2.53377,-0.13246 -3.37043,-1.27666 -0.89276,-1.22093 -3.22699,-2.02102 -7.15883,-2.4538 -5.49577,-0.60493 -5.99627,-0.47632 -8.62958,2.21752 -1.53748,1.57283 -2.79543,2.39417 -2.79543,1.82521 0,-1.82525 -1.84315,-1.10404 -2.50461,0.98004 -0.35166,1.10799 -1.02619,1.77546 -1.49896,1.48327 -0.47277,-0.29219 -1.62075,0.48878 -2.55105,1.73548 -1.12931,1.51339 -1.49483,1.68512 -1.09981,0.51673 0.93845,-2.77572 -0.962,-2.04001 -3.8747,1.5 -1.47075,1.7875 -2.33081,2.575 -1.91123,1.75 0.41957,-0.825 -0.38623,-0.45459 -1.79068,0.82313 -1.86209,1.69406 -2.67406,1.96484 -2.99863,1 -0.36387,-1.08171 -0.72984,-1.08816 -2.00568,-0.0354 -0.85833,0.70827 -2.39401,1.45581 -3.41262,1.6612 -1.01862,0.20539 -3.20203,0.93373 -4.85203,1.61854 -1.65,0.68481 -3.83248,1.13886 -4.84996,1.00901 -1.01748,-0.12986 -2.5376,0.74563 -3.37804,1.94553 -1.15229,1.64512 -1.72377,1.865 -2.32382,0.8941 -0.61464,-0.9945 -1.11854,-1.01965 -2.21397,-0.11052 -0.78003,0.64736 -1.71432,0.88092 -2.07622,0.51903 -0.36189,-0.36186 -0.65799,0.31705 -0.65799,1.50871 0,1.19167 -0.50248,2.16667 -1.11663,2.16667 -0.63844,0 -0.88381,-0.89031 -0.57297,-2.07896 0.4247,-1.62405 -0.14098,-2.36682 -2.58518,-3.39453 l -3.12884,-1.31558 -1.79819,5.10615 c -0.989,2.80838 -1.80116,6.02342 -1.80478,7.14453 -0.009,2.90458 -3.14493,7.27731 -7.18865,10.02509 -2.56338,1.74186 -3.47143,1.98672 -3.47143,0.9361 0,-0.78254 0.71502,-1.4228 1.58894,-1.4228 0.87391,0 2.93641,-1.61448 4.58333,-3.58773 2.33107,-2.79297 3.25546,-5.26223 4.17287,-11.14678 0.64815,-4.15747 1.60136,-7.83049 2.11824,-8.16226 1.12712,-0.72349 5.04526,-8.50148 6.22289,-12.35323 0.67034,-2.19249 0.52124,-2.75 -0.73543,-2.75 -1.13593,0 -0.82272,-0.69832 1.12133,-2.5 1.48365,-1.375 3.12436,-2.5 3.64602,-2.5 0.52166,0 0.94848,3.375 0.94848,7.5 0,4.125 -0.40787,7.5 -0.90638,7.5 -0.49851,0 -0.66943,0.90611 -0.37982,2.01357 0.47856,1.83002 1.15873,1.97372 7.46181,1.57644 3.81439,-0.24042 7.51831,-0.92102 8.23093,-1.51245 0.71263,-0.59142 2.48768,-1.17397 3.94457,-1.29455 1.45689,-0.12057 2.64889,-0.53438 2.64889,-0.91956 0,-0.38518 1.6875,-1.70103 3.75,-2.9241 7.68429,-4.55682 10.23652,-6.47272 10.24317,-7.68935 0.004,-0.6875 0.45683,-1.25 1.00683,-1.25 0.55,0 1,-0.675 1,-1.5 0,-0.99331 -0.99344,-1.5 -2.94098,-1.5 -3.45774,0 -4.97902,-1.7211 -2.3724,-2.68401 0.99736,-0.36843 3.57419,-1.76717 5.72629,-3.10832 4.37559,-2.72677 12.49947,-3.35521 15.13183,-1.17054 0.84024,0.69734 4.86959,1.48236 8.9541,1.74449 7.16025,0.45952 7.46725,0.38691 8.56665,-2.02602 0.85268,-1.87142 0.85324,-3.03895 0.002,-4.62911 -0.9307,-1.73942 -0.85842,-2.12649 0.39733,-2.12649 0.97086,0 1.53518,-0.91898 1.53518,-2.5 0,-1.375 -0.46882,-2.5 -1.04181,-2.5 -0.573,0 -2.00785,-0.9 -3.18856,-2 -2.24768,-2.09403 -7.22656,-2.62914 -9.72987,-1.04574 -1.2597,0.7968 -1.22537,1.18316 0.25,2.81343 1.96593,2.17232 2.22532,4.79594 0.575,5.81589 -0.62438,0.38589 -4.11188,0.8899 -7.75,1.12002 -3.63812,0.23012 -9.47466,1.29095 -12.9701,2.3574 -3.49543,1.06645 -7.66985,1.939 -9.27649,1.939 -1.60664,0 -6.58457,0.9496 -11.06208,2.11023 -8.54901,2.21601 -14.17096,2.14435 -25.67197,-0.32722 -4.83076,-1.03814 -5.12994,-1.24866 -3,-2.11103 1.30124,-0.52684 5.20801,-0.86305 8.68173,-0.74714 6.68764,0.22315 9.18415,-0.87183 9.18415,-4.02823 0,-3.17157 -4.00536,-3.49491 -19.09556,-1.54153 -4.04531,0.52365 -5.13491,1.59051 -4.44241,4.34967 0.34703,1.38265 0.0978,3.12074 -0.56147,3.91507 -0.65206,0.78568 -0.89644,1.71764 -0.54306,2.07101 0.35337,0.35338 0.6425,0.12048 0.6425,-0.51755 0,-0.63803 1.09106,-0.21139 2.42458,0.94809 2.81653,2.44894 2.53729,3.82532 -1.84133,9.07581 -4.84496,5.80969 -7.16534,9.05262 -8.9186,12.46452 -0.89358,1.73894 -2.75868,4.05371 -4.14467,5.14392 -1.38599,1.09022 -2.51998,2.47996 -2.51998,3.0883 0,0.60834 -0.45965,1.10608 -1.02144,1.10608 -0.56179,0 -1.53402,1.125 -2.16051,2.5 -0.6265,1.375 -1.5072,2.5 -1.95713,2.5 -1.27292,0 1.1554,-4.76223 6.88384,-13.5 2.88462,-4.4 5.2543,-8.9 5.26597,-10 0.0117,-1.1 1.36403,-3.52348 3.00524,-5.38551 3.70394,-4.20227 3.81883,-6.11449 0.3674,-6.11449 -2.25728,0 -2.51911,-0.309 -1.90651,-2.25 1.7964,-5.69186 1.75172,-7.54268 -0.19702,-8.16118 -1.05499,-0.33484 -7.86968,0.0848 -15.14376,0.93254 -7.27409,0.84774 -13.57583,1.32489 -14.00388,1.06035 -0.42804,-0.26455 -3.6704,-0.0889 -7.20523,0.39034 -3.53483,0.47924 -11.02999,1.15367 -16.65591,1.49874 -19.58808,1.20146 -33.07033,2.44219 -35.27106,3.24588 -0.825,0.30128 -2.625,0.68902 -4,0.86163 -1.375,0.17261 -8.35,1.03406 -15.5,1.91432 -7.15,0.88026 -15.19472,2.08577 -17.87715,2.67892 -2.68244,0.59316 -5.93673,1.07846 -7.23177,1.07846 -1.29503,0 -2.08151,0.44187 -1.74774,0.98193 0.38044,0.61556 -0.65243,0.73284 -2.76823,0.31433 -2.25507,-0.44606 -2.91763,-0.35263 -1.99654,0.28154 0.98682,0.67943 -0.14987,1.17545 -4,1.74546 -2.95821,0.43796 -5.94107,0.69342 -6.62857,0.56768 -0.6875,-0.12574 -1.25,0.27144 -1.25,0.88261 0,0.63988 -0.81264,0.8533 -1.91584,0.50316 -1.05372,-0.33444 -2.20527,-0.13976 -2.55902,0.43261 -0.35375,0.57238 -1.40412,1.04731 -2.33416,1.05542 -0.93004,0.008 -2.81598,0.64733 -4.19098,1.42049 -1.375,0.77316 -5.07856,2.62397 -8.23013,4.1129 -3.15157,1.48894 -5.50146,3.07714 -5.22199,3.52934 0.53346,0.86316 -3.50425,3.50143 -4.79788,3.13498 -0.4125,-0.11685 -0.75,0.46255 -0.75,1.28755 0,0.825 -0.45,1.5 -1,1.5 -0.55,0 -1.00001,0.64436 -1.00001,1.43191 0,0.78754 -1.35,2.39319 -3,3.56809 -1.65,1.1749 -3,2.75578 -3,3.51306 0,1.6944 10.6862,9.48694 13.00979,9.48694 1.89558,0 6.60578,3.71778 5.76959,4.55396 -0.2977,0.2977 -1.21627,-0.13372 -2.04127,-0.95872 -0.825,-0.825 -1.77858,-1.22143 -2.11905,-0.88095 -0.34048,0.34047 -0.61905,0.0675 -0.61905,-0.60664 0,-0.67413 -0.37645,-0.99302 -0.83656,-0.70866 -0.46012,0.28437 -3.19939,-1.03908 -6.08729,-2.94098 -2.8879,-1.90191 -5.83135,-3.45801 -6.541,-3.45801 -0.70965,0 -1.85047,-0.675 -2.53516,-1.5 -0.68469,-0.825 -2.11813,-1.5 -3.18542,-1.5 -1.65349,0 -1.45048,-0.50648 1.37244,-3.42399 7.86077,-8.12416 21.18152,-18.37354 29.20598,-22.47197 8.53074,-4.357 8.60701,-4.42967 8.60701,-8.20031 0,-2.56823 -0.56862,-4.13554 -1.75,-4.82363 -0.97121,-0.56568 -1.19372,-1.03282 -0.5,-1.04969 0.6875,-0.0167 1.25,-0.93041 1.25,-2.03041 0,-1.1 0.51296,-2 1.1399,-2 0.78384,0 0.96259,-1.71799 0.57226,-5.5 -0.31221,-3.025 -0.19419,-5.5 0.26227,-5.5 1.07148,0 3.02557,-5.60216 3.02557,-8.67397 0,-2.78151 -0.84816,-3.16921 -16.5,-7.54226 -20.47859,-5.72162 -24.97797,-6.74628 -36.00001,-8.19838 -14.86159,-1.95795 -34.000673,-2.90156 -64.499993,-3.18004 -27.64505,-0.25241 -31.71987,0.0223 -30.05647,2.02661 0.57151,0.68863 0.74302,1.54815 0.38112,1.91005 -0.36189,0.36189 -0.058,0.65799 0.67535,0.65799 0.73333,0 1.04151,0.29182 0.68485,0.64848 -0.35666,0.35666 0.2729,1.44758 1.39902,2.42426 1.12612,0.97668 1.95921,2.0903 1.85131,2.47469 -0.1079,0.3844 0.90502,1.88098 2.25093,3.32574 1.34591,1.44476 2.74682,3.43078 3.11314,4.41338 0.36631,0.9826 2.02099,2.5576 3.67706,3.5 1.65607,0.9424 3.01389,2.20697 3.01736,2.81016 0.008,1.3618 19.41648,20.20123 23.51001,22.82052 1.64797,1.05448 3.7241,2.74198 4.61361,3.75 0.88951,1.00802 2.12701,1.83277 2.75,1.83277 0.62299,0 1.13271,0.45 1.13271,1 0,0.55 0.52002,1 1.1556,1 0.63559,0 2.63056,1.125 4.43328,2.5 1.80272,1.375 4.22182,2.5 5.37578,2.5 1.15396,0 2.35288,0.66394 2.66428,1.47543 0.60919,1.58751 5.8183,4.52457 8.02469,4.52457 0.7405,0 1.34637,0.45 1.34637,1 0,0.55 0.4719,1 1.04867,1 0.57677,0 5.592533,2.25 11.146133,5 5.5536,2.75 10.8766,5 11.82888,5 0.95228,0 2.34902,0.7875 3.10387,1.75 1.24166,1.58325 1.2069,1.62023 -0.36483,0.38812 -0.95549,-0.74903 -2.40358,-1.10618 -3.21797,-0.79367 -0.81439,0.31251 -1.75122,0.13052 -2.08183,-0.40444 -0.33062,-0.53495 -1.00362,-0.72388 -1.49555,-0.41985 -0.49194,0.30404 -1.78574,-0.33852 -2.87513,-1.42791 -1.08938,-1.08938 -3.64218,-2.29239 -5.67289,-2.67336 -9.654403,-1.81117 -38.168333,-19.38049 -55.976723,-34.49096 -10.49199,-8.90248 -25.26269,-23.68373 -28.43411,-28.45442 -0.82969,-1.24808 -3.76054,-5.5777 -6.51301,-9.62138 -4.7335601,-6.9541 -6.4351201,-10.03216 -8.7631101,-15.85213 -0.55,-1.375 -1.37438,-3.4 -1.83196,-4.5 -0.45757,-1.1 -1.00674,-4.22812 -1.22035,-6.95138 -0.21362,-2.72327 -0.88781,-5.11786 -1.49819004,-5.32132 -0.71330996,-0.23777 -0.79245996,-0.96964 -0.22156,-2.04861 0.48852,-0.92328 1.40777004,-3.73403 2.04278004,-6.24611 0.96535,-3.81891 3.60427,-8.14306 8.8424901,-14.48937 0.47975,-0.58124 1.94825,-2.94028 3.26333,-5.2423 1.31508,-2.30203 2.78674,-4.18897 3.27035,-4.19321 0.48361,-0.004 2.74344,-2.00949 5.02185,-4.45612 2.27841,-2.44663 8.95382,-7.33804 14.83425,-10.86979 5.88043,-3.53176 10.42999,-6.68307 10.11015,-7.00292 -0.31985,-0.31984 0.70906,-0.86885 2.28646,-1.22001 1.5774,-0.35117 4.218,-0.99638 5.868,-1.4338 15.79469,-4.18728 34.72684,-6.118 54.589683,-5.5671 18.73905,0.51972 45.8671,2.77926 47.81398,3.9825 0.65738,0.40628 5.11048,1.35614 9.89578,2.11079 8.5565,1.34939 18.33225,3.25655 27.20056,5.30659 12.121,2.80195 18.68103,4.45778 20.5,5.17445 1.1,0.4334 5.825,2.00984 10.5,3.50319 11.09472,3.54403 18.20784,6.10985 25.12505,9.06302 3.09377,1.32082 5.98098,2.4015 6.41602,2.4015 3.86027,0 41.45893,21.6775 41.45893,23.90313 0,0.38328 1.60395,0.69687 3.56433,0.69687 2.93999,0 3.48188,-0.31529 3.09362,-1.8 -0.63639,-2.43355 0.89423,-2.27743 2.68094,0.27344 0.94363,1.34722 1.69191,1.68574 2.13643,0.9665 0.43858,-0.70964 1.37791,-0.22495 2.61708,1.3504 1.91366,2.43283 11.47685,6.37375 12.64123,5.20936 0.33224,-0.33223 1.31559,0.038 2.18522,0.82284 2.24909,2.02969 13.27509,7.71686 13.84879,7.14315 0.26356,-0.26356 1.92864,0.62634 3.70017,1.97756 1.77154,1.35121 3.73062,2.45675 4.35353,2.45675 1.57713,0 4.49176,4.68438 3.70584,5.95602 -1.15773,1.87326 -5.0424,1.1031 -9.86613,-1.95602 -2.60178,-1.65 -5.28975,-3 -5.97327,-3 -0.68352,0 -2.1304,-0.61446 -3.21527,-1.36548 -1.08488,-0.75101 -5.43803,-2.55616 -9.67366,-4.01145 -7.4396,-2.55611 -7.83865,-2.59095 -11.75,-1.02594 -2.22687,0.89102 -4.04885,1.97896 -4.04885,2.41765 0,2.51691 15.00551,15.18007 22.60913,19.07985 1.71002,0.87704 4.17265,2.33954 5.4725,3.25 3.17093,2.221 5.57205,2.0877 6.20812,-0.34463 0.3079,-1.17743 1.36401,-2 2.56784,-2 3.07383,0 12.14279,2.53652 16.45151,4.60137 3.297,1.58001 3.93353,1.62868 4.73469,0.36202 1.70595,-2.69718 0.98098,-5.3532 -2.4351,-8.92123 -4.48292,-4.68233 -5.34103,-7.57986 -2.66838,-9.01022 1.60475,-0.85883 2.9398,-0.64119 6.29806,1.02674 5.40769,2.68581 14.95569,6.0806 15.51864,5.51765 0.23587,-0.23587 -1.00479,-1.17022 -2.75701,-2.07633 -5.86387,-3.03232 -2.29922,-2.65782 4.14218,0.43518 11.27783,5.41533 14.85152,7.64222 19.35148,12.05859 l 4.41474,4.33275 4.49263,-2.38334 c 4.92637,-2.61343 6.95903,-6.60255 4.16195,-8.16788 -2.48866,-1.39271 -1.86439,-3.00698 0.64375,-1.66466 1.84862,0.98935 2.37602,0.88888 3.25,-0.61915 0.5738,-0.99008 2.37254,-3.35713 3.99721,-5.26011 2.8468,-3.33446 2.8852,-3.51022 1.05887,-4.84567 -1.04229,-0.76214 -2.31416,-1.38571 -2.82638,-1.38571 -0.51223,0 -0.43932,-0.59282 0.162,-1.31737 0.84531,-1.01853 0.19863,-1.86922 -2.85065,-3.75 -2.16919,-1.33795 -3.95609,-2.74236 -3.97088,-3.12091 -0.0148,-0.37856 -1.3769,-2.16634 -3.0269,-3.97286 -1.65,-1.80652 -3,-3.73264 -3,-4.28028 0,-0.54763 -2.34713,-3.37234 -5.21584,-6.27713 -5.31105,-5.37785 -5.45354,-6.40078 -0.53416,-3.83459 1.5125,0.78899 2.74832,1.12372 2.74626,0.74384 -0.008,-1.50162 -4.03404,-7.1907 -5.08855,-7.1907 -0.61693,0 -0.85584,-0.69279 -0.53091,-1.53953 0.32492,-0.84675 0.20276,-2.30925 -0.27148,-3.25 -4.88135,-9.68323 -5.98292,-12.65303 -5.09166,-13.72693 0.67258,-0.8104 0.34295,-1.75582 -1.05246,-3.01865 -1.11745,-1.01128 -1.77925,-2.49665 -1.47067,-3.30081 0.30859,-0.80416 -0.079,-3.30755 -0.86132,-5.5631 -3.65583,-10.54036 -5.46605,-21.19478 -3.4028,-20.02787 0.99491,0.56269 1.01192,0.43747 0.0778,-0.57224 -0.65771,-0.71089 -0.96132,-2.4651 -0.6747,-3.89823 0.43319,-2.16595 -0.16378,-3.11172 -3.53738,-5.60417 -2.23219,-1.64916 -4.3346,-3.82758 -4.67204,-4.84094 -0.33744,-1.01336 -3.94499,-5.16316 -8.01679,-9.22176 -4.07183,-4.058596 -7.4033,-7.694056 -7.4033,-8.078786 0,-0.38473 -0.74474,-1.52244 -1.65499,-2.52825 -1.25395,-1.38561 -1.32767,-1.82874 -0.30422,-1.82874 0.74293,0 -0.64983,-1.32486 -3.09501,-2.94413 -5.69154,-3.76911 -7.94578,-5.60293 -7.94578,-6.46386 0,-0.37813 -1.2375,-1.83914 -2.75,-3.24669 -1.5125,-1.40756 -2.66183,-3.07357 -2.55406,-3.70226 0.10776,-0.62868 -2.0935,-2.22093 -4.8917,-3.53833 -3.43133,-1.61547 -5.42112,-3.27878 -6.11201,-5.10916 -0.63931,-1.69371 -2.26628,-3.16298 -4.32803,-3.90852 -1.81701,-0.65704 -4.10477,-2.18791 -5.08392,-3.40195 -0.97916,-1.21403 -3.69528,-3.0593 -6.03584,-4.1006 -4.10069,-1.82437 -11.24444,-7.84214 -11.24444,-9.47213 0,-0.43524 1.16498,-1.32214 2.58883,-1.97089 2.24305,-1.02201 3.3755,-0.7798 8.47845,1.81333 7.64022,3.88248 13.12109,7.36231 14.81984,9.40918 0.74678,0.8998 2.44179,1.63601 3.76671,1.63601 1.32492,0 2.66026,0.65494 2.96744,1.45542 0.92879,2.4204 7.14564,8.54458 8.67387,8.54458 1.22672,0 5.96865,4.84286 14.6874,15 1.50638,1.75489 2.30482,2.11501 2.67896,1.20826 0.75246,-1.82364 3.3385,0.43371 3.3385,2.91418 0,1.13527 0.70546,1.87756 1.78439,1.87756 0.98142,0 2.55072,1.29728 3.48734,2.88285 0.93661,1.58556 2.82586,3.94806 4.19833,5.25 1.37246,1.30193 2.50316,2.76401 2.51266,3.24907 0.01,0.48506 1.70478,2.46911 3.76728,4.40902 2.0625,1.939896 4.76371,4.918026 6.00269,6.618066 1.23897,1.70005 3.48897,3.80173 5,4.67039 2.74313,1.57699 7.56768,9.87106 8.61463,14.80977 0.9265,4.37049 2.48051,14.03701 4.11726,25.61084 2.58434,18.2744 3.15376,20.76238 5.07309,22.16583 1.19998,0.87745 2.04227,0.98148 2.46099,0.30397 0.41594,-0.67299 1.6496,-0.49501 3.55897,0.51348 2.82372,1.49143 3.00676,1.44633 5.42237,-1.33594 8.71938,-10.04287 11.16112,-13.30394 9.15916,-12.23252 -1.7286,0.92512 -2.15916,0.87966 -2.15916,-0.22795 0,-0.76092 1.9125,-2.15681 4.25,-3.10198 4.21854,-1.70578 4.23357,-1.72986 2.03038,-3.2535 -1.81529,-1.25537 -1.98404,-1.77058 -0.92639,-2.82824 0.71129,-0.71128 2.38512,-1.10212 3.71963,-0.86853 1.88434,0.32983 3.16502,-0.47549 5.73284,-3.60496 1.81856,-2.21631 3.11274,-4.02966 2.87596,-4.02966 -0.23678,0 -2.39969,1.09937 -4.80647,2.44305 -4.06935,2.27189 -13.02952,3.73672 -14.41038,2.35585 -0.31506,-0.31506 -0.64881,-1.58132 -0.74165,-2.81391 -0.0992,-1.31687 -2.13907,-3.90242 -4.94637,-6.26957 -2.62765,-2.21567 -4.77755,-4.78305 -4.77755,-5.70529 0,-0.92224 -0.32531,-2.00211 -0.72291,-2.39971 -0.3976,-0.3976 -0.82541,-2.32515 -0.95069,-4.28344 -0.12528,-1.95829 -0.92838,-4.33468 -1.78467,-5.28087 -1.53781,-1.69926 -1.27522,-7.13873 0.46083,-9.54611 0.39663,-0.55 0.98536,-3.025 1.30829,-5.50001 0.32293,-2.475 1.3707,-6.068036 2.32839,-7.984536 0.95768,-1.91649 1.85872,-4.58633 2.00229,-5.93298 0.14358,-1.34665 0.95797,-2.83848 1.80976,-3.31516 0.85179,-0.47669 1.54871,-1.72198 1.54871,-2.76732 0,-1.04534 0.61135,-2.26048 1.35856,-2.70031 0.74721,-0.43983 1.90001,-2.46569 2.56178,-4.50191 0.6746,-2.0757 2.05476,-3.97249 3.14144,-4.31739 1.06602,-0.33834 1.93822,-1.00023 1.93822,-1.47086 0,-1.1261 5.90184,-7.00953 7.03147,-7.00953 0.48269,0 2.00262,-1.125 3.37762,-2.5 1.375,-1.375 3.19546,-2.5 4.04546,-2.5 0.85,0 1.54545,-0.47989 1.54545,-1.06642 0,-0.58654 1.2375,-0.92404 2.75,-0.75 1.5125,0.17403 3.21338,-0.27263 3.77972,-0.99258 0.7838,-0.99637 1.69496,-1.05608 3.8151,-0.25 4.0147,1.52638 7.62438,1.30283 8.3221,-0.51539 0.41575,-1.08343 1.34149,-1.38933 2.96862,-0.98095 2.87681,0.72203 2.91115,0.49169 0.36446,-2.44466 -3.67063,-4.23227 -1.45833,-5.71866 2.69879,-1.81325 1.62695,1.52844 2.64407,1.87039 3.37859,1.13587 0.73453,-0.73453 0.12844,-2.50545 -2.01324,-5.88254 -3.57204,-5.63252 -3.80393,-8.56615 -1.09682,-13.87599 l 1.96733,-3.8588 -2.85836,-3.60264 c -4.9101,-6.18866 -14.261,-14.399209 -22.32522,-19.6026512 -8.26905,-5.33561103 -10.77893,-8.4644874 -3.25107,-4.052868 2.475,1.450447 4.5,2.382833 4.5,2.071969 0,-0.310864 1.18616,0.211996 2.63591,1.16191 2.62558,1.720344 2.63052,1.718473 1.25946,-0.476947 -0.75706,-1.212235 -1.91666,-2.204064 -2.5769,-2.204064 -0.66024,0 -1.52152,-0.519529 -1.91396,-1.154509 -0.39244,-0.63497903 -0.3065,-0.95125903 0.19098,-0.70284403 0.49748,0.24841503 2.1195,1.05693503 3.60448,1.79671103 1.48498,0.739777 4.82605,4.08284 7.4246,7.4290302 2.6042,3.353464 4.9129,5.519184 5.14412,4.825544 0.23071,-0.69215 -0.80696,-2.86639 -2.30595,-4.831664 -2.06612,-2.7088342 -2.27031,-3.3256642 -0.84408,-2.5498692 4.95629,2.6959612 10.26247,8.4855732 12.48802,13.6257822 l 2.39332,5.52768 4.67308,0.0171 c 3.85554,0.0141 5.2025,0.5465 7.69931,3.04331 l 3.02624,3.02623 0.30388,-5.77623 0.30388,-5.77624 1.33384,4.4301 c 0.73362,2.43655 2.67895,5.68661 4.32297,7.22235 2.16833,2.02553 2.81241,3.34904 2.34557,4.81991 -0.35395,1.1152 -0.20277,2.02764 0.33594,2.02764 0.53872,0 1.27591,1.75448 1.6382,3.89886 0.59886,3.5446 0.97359,3.93562 4.12418,4.30343 3.30426,0.38576 3.43813,0.28006 2.87759,-2.27207 -0.4152,-1.89037 -0.13211,-2.85154 0.96371,-3.27205 0.98994,-0.37987 1.55161,-1.85238 1.55161,-4.06777 0,-4.26583 1.37861,-5.31565 3.32717,-2.53369 1.83852,2.62485 2.25949,1.91715 3.78525,-6.36344 1.3799,-7.489 3.43269,-9.22183 2.64491,-2.23266 -0.27653,2.45333 -0.29253,4.67086 -0.0356,4.92783 0.25697,0.25697 1.88719,-0.39862 3.62272,-1.45687 3.90435,-2.38071 10.15318,-2.67089 9.29387,-0.43157 -1.32254,3.44648 1.43864,0.99821 7.61268,-6.75 6.6477,-8.342569 15.749,-17.8157572 15.749,-16.3924682 0,0.425673 -0.46583,1.644366 -1.03518,2.708208 -1.71221,3.1992912 0.60813,2.2534012 4.44274,-1.811085 2.88494,-3.057882 3.42574,-3.333209 2.94635,-1.5 -0.69836,2.670523 -0.63926,2.680345 4.13205,0.686763 2.05162,-0.85722 3.93024,-1.35855 4.17472,-1.114068 0.5158,0.515797 -3.59389,3.059006 -12.3785,7.6602212 -6.5596,3.43579 -17.53856,13.730769 -20.53218,19.253029 -0.96869,1.78693 -1.75,5.35107 -1.75,7.98307 0,2.61518 -0.85114,6.99489 -1.89142,9.73268 -1.86326,4.90372 -1.86263,4.98693 0.0422,5.5915 3.85375,1.22313 9.28848,-0.60537 13.68489,-4.60424 2.38459,-2.16899 4.59183,-3.94361 4.90497,-3.94361 0.47178,0 -1.86753,3.12689 -3.74064,5 -0.275,0.275 -1.28456,1.91445 -2.24347,3.64323 -1.73545,3.12879 -1.73206,3.14609 0.73792,3.76602 1.36872,0.34352 3.41092,0.0551 4.55437,-0.64323 1.76471,-1.07775 2.27711,-0.99088 3.44555,0.58412 0.75491,1.01757 1.82285,1.57184 2.3732,1.2317 1.27279,-0.78663 9.13702,3.26655 9.82708,5.06482 0.28563,0.74433 1.05776,1.35334 1.71584,1.35334 0.65808,0 3.42243,2.54128 6.14301,5.64728 2.72057,3.10601 5.509,6.22387 6.1965,6.92857 0.6875,0.70471 1.25,1.67601 1.25,2.15844 0,0.48243 1.06747,2.32403 2.37217,4.09244 1.30469,1.76841 3.13964,5.34333 4.07766,7.94428 0.93803,2.60094 2.08921,5.628986 2.55819,6.728986 0.46898,1.1 1.38987,4.475 2.04642,7.50001 1.44993,6.68038 2.96087,11 3.84764,11 0.3627,0 1.22583,-1.2375 1.91809,-2.75 2.5347,-5.53805 3.67984,-7.25 4.84957,-7.25 0.65752,0 1.45795,-0.82695 1.77873,-1.83767 0.32079,-1.01071 1.96507,-3.37321 3.65395,-5.25 1.68889,-1.87679 3.73993,-4.691656 4.55788,-6.255266 0.81794,-1.56361 1.74718,-2.58292 2.06497,-2.26514 0.31779,0.31779 1.18461,-0.54039 1.92626,-1.90707 0.74166,-1.36667 1.9762,-3.64338 2.74343,-5.05934 0.82835,-1.52878 1.66468,-2.13804 2.05901,-1.5 1.23701,2.00153 2.47548,1.08869 6.00168,-4.42365 1.93441,-3.02397 4.42324,-6.27398 5.53073,-7.22224 1.10749,-0.94826 2.01362,-2.55239 2.01362,-3.56473 0,-1.33482 0.61829,-1.75465 2.25,-1.52776 1.70857,0.23757 2.61095,-0.46597 3.75,-2.92367 0.825,-1.78009 2.28645,-3.49758 3.24768,-3.81665 0.96122,-0.31907 2.03186,-1.71241 2.3792,-3.09632 0.44945,-1.79077 1.14664,-2.38149 2.41824,-2.04895 1.19435,0.31233 3.33869,-1.15215 6.46775,-4.41716 2.57457,-2.68642 5.10902,-4.88439 5.63212,-4.88439 0.52309,0 3.4132,-1.575 6.42246,-3.5 6.47253,-4.14043 8.31777,-4.31553 11.35932,-1.07795 l 2.27539,2.42204 -3.10108,1.60364 c -1.70559,0.88199 -3.10108,1.96231 -3.10108,2.40069 0,0.43839 -2.1375,1.86061 -4.75,3.16049 -2.6125,1.29988 -6.15844,3.80716 -7.87986,5.57174 -1.72143,1.76457 -4.08393,3.51112 -5.25,3.88122 -1.16608,0.3701 -2.12014,1.26464 -2.12014,1.98787 0,1.45949 -7.72427,9.55026 -9.11765,9.55026 -0.48529,0 -0.88235,0.64948 -0.88235,1.44329 0,0.79382 -0.83951,2.03132 -1.86558,2.75 -1.02607,0.71869 -1.81357,1.68545 -1.75,2.14835 0.16595,1.20839 -10.54437,11.56376 -12.66086,12.24126 -0.97703,0.31276 -1.69356,1.09705 -1.59228,1.74288 0.31317,1.99686 -1.33117,4.99881 -5.12688,9.359736 -2.00367,2.30204 -4.93966,6.12705 -6.52442,8.50001 -1.58476,2.37296 -5.12602,6.4335 -7.86946,9.02342 -3.76465,3.55398 -4.61438,4.85235 -3.46445,5.29362 1.19908,0.46013 1.37957,1.53389 0.84731,5.04105 -0.37197,2.45102 -0.3073,4.45639 0.14372,4.45639 0.45101,0 0.4157,1.0125 -0.0785,2.25 -1.06565,2.66862 -2.92341,12.4268 -3.56961,18.75 -0.71326,6.97939 -2.84958,15.52601 -4.32511,17.30317 -0.73485,0.88507 -1.02729,2.10887 -0.64986,2.71956 0.37742,0.61069 0.029,1.6429 -0.77418,2.2938 -0.80322,0.65091 -1.74545,2.0004 -2.09384,2.99886 -0.49637,1.42255 -0.23909,1.69023 1.18898,1.23698 3.57392,-1.13432 1.33121,5.0397 -3.42231,9.42133 -2.40241,2.21447 -3.89231,4.0263 -3.3109,4.0263 0.65337,0 0.80648,1.14114 0.40088,2.98781 -0.47119,2.1453 -0.10744,3.76669 1.28996,5.75 3.22041,4.57066 8.80237,16.26219 7.76417,16.26219 -0.21653,0 -1.40939,-1.6875 -2.65081,-3.75 -6.15134,-10.21989 -9.22859,-14.25 -10.88079,-14.25 -2.11526,0 -4.44691,2.50866 -3.60211,3.87558 0.32741,0.52975 -0.12784,1.68631 -1.01167,2.57013 -1.47593,1.47593 -1.47237,1.81234 0.0437,4.12616 0.90786,1.38556 2.63935,2.98281 3.84776,3.54944 2.06011,0.96599 6.14046,7.76868 5.21492,8.69422 -0.23242,0.23241 -1.17123,-0.3261 -2.08626,-1.24113 -1.78492,-1.78491 -3.5616,-1.68425 -4.20238,0.2381 -0.21771,0.65313 0.50416,1.1875 1.60416,1.1875 1.1,0 2.15,0.3375 2.33334,0.75 0.18333,0.4125 2.53775,2.2504 5.23205,4.08422 l 4.89871,3.33422 2.60129,-2.02586 c 4.63497,-3.60966 24.06554,-14.32116 25.25765,-13.92379 0.63676,0.21225 -0.37542,1.40383 -2.24931,2.64794 -2.00085,1.3284 -2.58159,2.0575 -1.40706,1.76651 1.1,-0.27253 4.7,-1.02785 8,-1.6785 3.3,-0.65065 7.26151,-1.83061 8.80336,-2.62214 3.44389,-1.76795 11.69667,-0.86416 11.69667,1.28094 0,0.76255 -0.45,1.38646 -1,1.38646 -0.55,0 -1,0.69018 -1,1.53373 0,0.84354 -1.54514,2.44537 -3.43364,3.55962 -3.25618,1.92119 -5.72174,7.0846 -4.13881,8.66753 0.33983,0.33983 2.77785,-0.15884 5.41783,-1.10817 2.63998,-0.94932 5.45163,-1.47597 6.24812,-1.17033 0.79649,0.30565 5.48382,0.68561 10.41629,0.84437 8.09429,0.26053 9.31023,0.0542 12.47917,-2.1172 1.93107,-1.32322 6.70794,-3.89121 10.61527,-5.70664 3.90732,-1.81543 7.38329,-4.02801 7.72437,-4.91685 0.34108,-0.88884 1.79326,-2.06209 3.22706,-2.60722 3.35441,-1.27535 2.70342,-3.1534 -1.63077,-4.70461 -4.45017,-1.59271 -7.95032,-0.99115 -22.20409,3.81615 -11.21988,3.78408 -17.94212,5.02164 -19.39344,3.57031 -1.4985,-1.49849 2.06392,-5.46667 6.02383,-6.70995 2.28185,-0.71642 5.04881,-1.76428 6.14881,-2.32857 1.1,-0.56429 2.61775,-1.12842 3.37278,-1.25361 2.38834,-0.39603 7.12722,-2.58346 7.12722,-3.28988 0,-0.37327 1.53295,-0.67868 3.40655,-0.67868 1.8736,0 4.12184,-0.59363 4.99608,-1.31919 0.87423,-0.72555 3.41527,-1.45535 5.64674,-1.62178 2.23147,-0.16643 4.75306,-0.8801 5.60354,-1.58593 0.85047,-0.70584 2.8352,-1.18512 4.41051,-1.06509 2.15903,0.16451 3.65195,-0.64745 6.06392,-3.29802 3.72556,-4.09412 4.67501,-3.96224 2.45006,0.34033 -2.69154,5.20487 0.51057,5.06173 7.9226,-0.35417 4.13517,-3.02152 23.52498,-11.55536 34,-14.96408 2.75,-0.89488 9.275,-2.74146 14.5,-4.1035 5.225,-1.36204 10.175,-2.75967 11,-3.10585 0.825,-0.34618 1.95,-0.69863 2.5,-0.78322 0.55,-0.0846 1.675,-0.43896 2.5,-0.78748 1.62973,-0.68847 26.92883,-5.79906 31.00003,-6.2622 1.375,-0.15642 9.25,-1.049 17.5,-1.98352 18.2254,-2.06448 54.3993,-2.14998 67.5,-0.15954 1.925,0.29247 6.3429,0.78039 9.8177,1.08425 6.47,0.5658 16.3182,2.9051 19.4187,4.61268 0.955,0.52597 2.7386,0.95631 3.9634,0.95631 1.2249,0 8.0678,1.85818 15.2066,4.12929 9.4078,2.993 14.2585,5.12563 17.6274,7.75 2.5563,1.99139 7.1729,5.19571 10.259,7.12071 3.0861,1.925 5.6327,3.73313 5.6591,4.01808 0.026,0.28494 2.7481,3.4268 6.0481,6.98192 3.3,3.55512 6.00001,6.85723 6.00001,7.33802 0,0.48079 1.2559,2.51393 2.7908,4.51808 3.6397,4.7524 9.4007,16.02497 8.7379,17.09749 -0.2845,0.46026 0.091,1.07032 0.8349,1.35568 2.1099,0.80966 2.9947,6.91072 1.1517,7.94209 -0.8334,0.46641 -1.5469,1.61316 -1.5856,2.54833 -0.057,1.38708 -0.2204,1.33187 -0.8854,-0.29969 -0.7318,-1.79559 -0.8876,-1.69339 -1.5246,1 -0.3903,1.65 -1.3965,4.89553 -2.2361,7.21229 -0.8396,2.31677 -1.2739,4.8707 -0.9651,5.67541 0.7436,1.93772 -1.1354,8.6123 -2.4245,8.6123 -0.5566,0 -0.732,0.45318 -0.3896,1.00706 0.3423,0.55389 -0.079,1.27604 -0.9353,1.60479 -0.8567,0.32874 -1.3751,0.89303 -1.152,1.25396 0.5048,0.81678 -1.5661,3.73505 -2.9171,4.11074 -2.65781,0.73909 -3.44221,1.30788 -2.93521,2.12823 0.3043,0.49237 0.077,0.89522 -0.5058,0.89522 -0.5824,0 -1.059,0.94213 -1.059,2.09362 0,1.25262 -0.8034,2.30371 -2,2.61663 -1.1,0.28766 -2,1.03882 -2,1.66925 0,0.63043 -1.0125,1.60692 -2.25,2.16997 -1.2375,0.56305 -2.1,1.68226 -1.9167,2.48713 0.1833,0.80487 0.02,1.15036 -0.3623,0.76776 -0.6989,-0.69894 -17.2198,13.3338 -18.8339,15.99744 -1.4053,2.31906 -5.078,5.71792 -5.8871,5.4482 -0.4125,-0.1375 -0.75,0.2 -0.75,0.75 0,0.55 -0.3375,0.89029 -0.75,0.75621 -1.0312,-0.33519 -8.3856,4.23488 -10.3673,6.44231 -0.8895,0.99082 -2.127,1.80148 -2.75,1.80148 -0.623,0 -1.1327,0.525 -1.1327,1.16667 0,0.64166 -0.2793,0.88735 -0.6207,0.54596 -0.3414,-0.34138 -2.2459,0.48362 -4.2322,1.83334 -1.9863,1.34972 -4.6585,2.45403 -5.9383,2.45403 -1.2798,0 -2.0734,0.41012 -1.7636,0.91138 0.3098,0.50127 -1.3511,1.22948 -3.691,1.61825 -2.3398,0.38878 -5.4694,1.32865 -6.9546,2.08862 -1.4852,0.75996 -4.6032,1.38175 -6.929,1.38175 -3.9739,0 -7.2457,0.76889 -14.3706,3.37727 -1.65,0.60405 -3.3375,0.99127 -3.75,0.8605 -0.4125,-0.13077 -0.75,0.24671 -0.75,0.83885 0,0.61212 -1.4461,0.95203 -3.3518,0.78785 -1.8434,-0.15883 -4.4309,0.41193 -5.75,1.26835 -1.319,0.85641 -4.3756,1.81776 -6.7924,2.13632 -2.4167,0.31857 -4.6712,1.02765 -5.01,1.57575 -0.3387,0.5481 -1.9614,1.32651 -3.6059,1.7298 -1.6444,0.40329 -3.2149,1.00147 -3.4899,1.32928 -1.427,1.70103 -6.2792,3.58128 -13.4729,5.22082 -4.4149,1.00623 -11.8521,2.73713 -16.5271,3.84645 -11.2797,2.67653 -18,3.45938 -18,2.09683 0,-0.58744 1.7295,-1.06807 3.8434,-1.06807 3.2446,0 11.4717,-2.23549 17.1566,-4.66186 0.825,-0.35212 2.1169,-0.76542 2.8708,-0.91844 9.573,-1.9428 11.3448,-2.73974 12.3217,-5.54216 0.7654,-2.19576 1.6323,-2.87754 3.6585,-2.87754 3.1886,0 15.8666,-3.52424 17.4943,-4.8631 0.6351,-0.52235 3.3523,-1.27695 6.0382,-1.67689 2.686,-0.39994 5.7235,-1.56705 6.75,-2.59358 1.0266,-1.02654 2.7441,-1.86643 3.8168,-1.86643 1.0726,0 2.3101,-0.62024 2.75,-1.3783 1.2393,-2.13608 7.1723,-3.11723 7.8691,-1.30134 0.3453,0.89992 1.8841,1.47964 3.9275,1.47964 1.8479,0 5.192,0.30955 7.4314,0.6879 2.4284,0.41027 4.0717,0.29779 4.0717,-0.27868 0,-0.53162 1.4625,-1.55813 3.25,-2.28113 1.7875,-0.723 3.475,-1.59117 3.75,-1.92928 1.1681,-1.43614 5.5547,-3.99881 6.8449,-3.99881 1.1856,0 1.191,0.25175 0.035,1.64425 -1.2218,1.4722 -1.1038,1.56358 1.1276,0.87331 4.8499,-1.50029 11.8265,-6.01649 10.8315,-7.01156 -0.6231,-0.6231 -6.5655,2.24184 -7.3785,3.55732 -0.3184,0.51518 -1.0712,0.93668 -1.6729,0.93668 -0.6017,0 -0.056,-0.9 1.212,-2 1.2683,-1.1 2.7007,-2 3.183,-2 0.4823,0 3.0786,-2.1375 5.7697,-4.75 2.691,-2.6125 6.6151,-5.62627 8.7201,-6.69726 2.105,-1.071 5.9852,-3.44743 8.6226,-5.28096 2.6375,-1.83353 5.2945,-3.02523 5.9045,-2.64823 0.61,0.37701 0.8387,0.24791 0.5082,-0.28689 -0.3305,-0.53479 0.3448,-1.61682 1.5007,-2.40451 1.1559,-0.78768 2.9996,-2.4293 4.0971,-3.64804 1.0975,-1.21874 2.3777,-1.97969 2.8448,-1.69099 0.4671,0.2887 0.8493,-0.082 0.8493,-0.82376 0,-0.74177 3.15,-4.39971 7,-8.12875 3.85,-3.72904 7.0001,-7.25379 7.0001,-7.83278 0,-0.65155 -0.5716,-0.57831 -1.5,0.19217 -0.857,0.71119 -1.5001,0.81139 -1.5001,0.23374 0,-0.55614 -1.6875,-1.31342 -3.75,-1.68286 -4.5009,-0.8062 -10.3209,-2.6589 -11.8789,-3.78142 -0.6209,-0.44736 -4.8959,-1.09029 -9.5,-1.42873 -4.6041,-0.33844 -9.4961,-1.2572 -10.8711,-2.04169 -1.375,-0.78449 -1.718,-1.18893 -0.7622,-0.89875 0.9558,0.29018 4.1058,0.7707 7,1.06783 l 5.2622,0.54024 -3.25,-1.50705 c -1.7875,-0.82887 -3.25,-1.70735 -3.25,-1.95216 0,-0.69239 6.2704,1.60724 8.4725,3.10724 1.0849,0.73899 3.1959,1.34361 4.691,1.34361 1.4952,0 3.0191,0.48646 3.3866,1.08103 0.3977,0.64345 1.7371,0.79503 3.309,0.37447 1.4525,-0.38861 3.0909,-0.65059 3.6409,-0.58218 5.7459,0.71463 10.2086,0.82928 11.175,0.2871 1.1162,-0.62619 6.32511,-7.77049 6.32511,-8.67519 0,-0.23428 1.125,-2.88546 2.5,-5.89152 1.375,-3.00605 2.5,-6.07939 2.5,-6.82963 0,-0.75025 0.5309,-1.89499 1.1798,-2.54387 2.9446,-2.94457 -3.4831,-8.22021 -10.01521,-8.22021 -1.3954,0 -5.7158,-0.86519 -9.6009,-1.92263 -3.8851,-1.05745 -10.2138,-2.15241 -14.0638,-2.43323 -3.85,-0.28083 -15.1,-1.28083 -25,-2.22223 -30.2755,-2.87892 -123.6899,-2.37389 -126.95,0.68633 -0.5225,0.49047 -3.024,0.89176 -5.5588,0.89176 -2.5349,0 -5.4824,0.66069 -6.55,1.4682 -1.1545,0.87318 -4.211,1.48108 -7.542,1.5 -3.0804,0.0175 -6.9054,0.42974 -8.5,0.91612 -14.44357,4.40557 -18.3214,5.84437 -21.06681,7.81645 -2.78932,2.00362 -3.06144,2.60524 -2.27847,5.0373 0.48904,1.51906 1.12643,3.96308 1.41641,5.43116 0.59327,3.00338 4.1827,4.48901 17.5297,7.25531 10.68257,2.21407 11.94137,2.39836 27.49997,4.02581 22.9429,2.39987 28.5,2.69353 28.5,1.50605 0,-0.59094 0.45,-0.79632 1,-0.4564 0.55,0.33992 1,0.14148 1,-0.44098 0,-0.58246 0.4766,-1.05902 1.059,-1.05902 0.5825,0 0.7809,0.45 0.441,1 -0.3399,0.55 -0.1415,1 0.441,1 0.5825,0 1.059,-0.38786 1.059,-0.86191 0,-1.46568 11.1633,-2.08923 47.5,-2.6532 19.25,-0.29878 36.9159,-0.78318 39.2575,-1.07645 3.2801,-0.41082 4.395,-0.17458 4.857,1.02917 0.3297,0.85931 1.7029,1.56239 3.0515,1.56239 1.5234,0 2.1955,-0.41512 1.7746,-1.09613 -0.4161,-0.67333 0.011,-0.96262 1.1081,-0.75 0.9821,0.19037 1.966,0.88804 2.1865,1.55038 0.2994,0.89916 -2.7197,1.17799 -11.9171,1.10058 -14.6889,-0.12364 -42.7019,1.00532 -43.9406,1.77087 -0.4826,0.29828 -0.8775,0.0658 -0.8775,-0.51668 0,-0.58246 -1.4625,-1.05213 -3.25,-1.04371 -2.4662,0.0116 -2.8882,0.24909 -1.75,0.98469 1.1248,0.7269 0.6246,0.96937 -2,0.96937 -1.925,0 -2.9813,-0.3306 -2.3474,-0.73468 2.2969,-1.46412 -17.3762,-1.23395 -26.6526,0.31183 -5.225,0.87067 -10.2575,1.58412 -11.1833,1.58544 -3.9167,0.006 -4.7078,3.71894 -2.9546,13.86804 0.6175,3.575 1.1262,9.95327 1.1304,14.17394 0.01,8.8691 -0.788,7.89865 14.7666,17.98653 5.0925,3.30272 9.7751,6.96917 10.4058,8.14768 1.083,2.02353 1.0339,2.06066 -0.8826,0.66729 -14.4269,-10.48877 -24.3545,-15.895 -34.7823,-18.94114 -3.85,-1.12466 -8.35,-2.47761 -10,-3.00656 -15.7594,-5.05213 -65.22978,-17.17701 -75.99997,-18.62713 -2.75,-0.37027 -9.05,-1.53598 -14,-2.59048 -14.87841,-3.16954 -24.52084,-4.71601 -33.89205,-5.43567 l -8.89204,-0.68287 0.49525,5.15421 c 0.46946,4.88571 0.37267,5.1542 -1.85795,5.1542 -1.53658,0 -2.35321,0.58266 -2.35321,1.679 0,1.92012 1.83949,8.09172 3.07625,10.321 2.31951,4.18095 6.92375,13.74889 6.92375,14.38804 0,1.68433 -2.20816,-0.84736 -4.54317,-5.20881 -3.67814,-6.87023 -6.38877,-11.27748 -8.94476,-14.54344 -2.1611,-2.76137 -2.19137,-3.03371 -0.6402,-5.76077 0.89547,-1.57431 2.19063,-2.86522 2.87813,-2.8687 0.79061,-0.004 1.25,-1.47636 1.25,-4.00632 0,-3.87996 -1.23864,-5.29484 -2.40744,-2.75 -0.31575,0.6875 -0.34796,0.31637 -0.0716,-0.82473 0.78525,-3.24198 -3.16862,-4.82468 -9.93956,-3.97871 -3.06978,0.38354 -5.58143,0.95087 -5.58143,1.26073 0,1.13527 5.14624,5.29271 6.55152,5.29271 0.79666,0 1.44848,0.50246 1.44848,1.11658 0,0.67293 -1.06923,0.91218 -2.69108,0.60214 -1.55148,-0.29658 -3.68174,0.13468 -5.03046,1.0184 -1.79423,1.17562 -3.82284,1.38084 -8.7051,0.88064 -6.35434,-0.65102 -6.36752,-0.647 -7.37902,2.2546 -0.82001,2.3523 -2.03203,3.21926 -6.35382,4.54492 -2.93729,0.90097 -6.74499,2.08381 -8.46157,2.62853 -1.71658,0.54471 -3.9322,0.67912 -4.92361,0.29868 -1.42689,-0.54755 -1.66217,-0.32587 -1.12895,1.06369 0.37049,0.96547 0.67361,1.94359 0.67361,2.17361 0,0.23001 0.62686,0.41821 1.39301,0.41821 0.76616,0 1.67675,0.73941 2.02354,1.64313 0.72812,1.89746 -0.18826,3.26943 -1.22092,1.82791 -0.3826,-0.53407 -6.32063,-1.08313 -13.19563,-1.22014 -6.875,-0.137 -14.92558,-0.7445 -17.89018,-1.35 -2.96461,-0.60549 -7.01461,-1.07906 -9,-1.05236 -1.9854,0.0267 -6.17135,-0.3934 -9.3021,-0.93354 -3.13076,-0.54014 -6.84326,-0.6932 -8.25,-0.34013 -2.19361,0.55056 -2.55772,1.19405 -2.55772,4.52019 0,2.62403 0.88934,5.13237 2.75,7.75622 2.40781,3.39543 3.48437,4.01521 8.65174,4.98088 7.19628,1.34482 12.67583,4.81684 16.33972,10.35335 2.27338,3.4353 2.75854,5.26895 2.75854,10.4258 0,5.56033 -0.32718,6.59886 -2.93709,9.32303 -4.66594,4.87019 -8.13355,3.94184 -16.70154,-4.47137 -2.72882,-2.67953 -6.09596,-7.14236 -7.48253,-9.91742 -3.50188,-7.00862 -4.13909,-7.38854 -4.90721,-2.9258 -1.61879,9.40505 -2.28874,10.07251 -2.38914,2.38025 l -0.0979,-7.5 -3.7423,-2.00146 c -2.48908,-1.33121 -5.16553,-1.89799 -7.9923,-1.6925 -3.978,0.28918 -4.25,0.49928 -4.25,3.28284 0,1.92024 0.62003,3.2021 1.75,3.61799 5.14657,1.89424 11.80647,13.66801 12.87525,22.76164 0.51986,4.42322 1.29697,5.89281 5.34279,10.10378 7.04961,7.33738 9.15271,8.99544 13.30374,10.48855 2.07447,0.74618 4.42532,2.35413 5.2241,3.57322 1.35635,2.07005 1.2723,2.28234 -1.27177,3.21229 -1.49826,0.54767 -1.99171,1.03128 -1.09655,1.0747 1.93116,0.0937 3.36142,1.71162 4.34468,4.91478 0.67309,2.19271 0.57337,2.25899 -1.62761,1.08182 -1.99785,-1.06854 -1.8678,-0.71071 0.87934,2.41932 2.50209,2.85083 3.10086,4.28889 2.67414,6.42247 -0.38802,1.94009 0.97466,6.42654 4.63033,15.24485 3.57685,8.62816 5.2347,14.04326 5.35637,17.49571 0.10437,2.9614 1.17411,7.0386 2.62373,10 1.34614,2.75 2.32635,5.55741 2.17825,6.23869 -0.1481,0.68127 0.23532,2.18151 0.85204,3.33386 0.61672,1.15235 1.33669,4.19494 1.59993,6.76132 0.26325,2.56637 0.93646,6.24113 1.49603,8.16613 3.16108,10.87459 3.49233,12.23314 4.8766,20 1.77124,9.93814 2.6334,17.02188 2.13266,17.52262 -0.27084,0.27084 -0.56806,3.97655 -0.66048,8.23491 -0.0924,4.25836 -0.53368,13.92728 -0.98055,21.48649 -0.67044,11.34089 -1.04773,13.5488 -2.15776,12.62755 -1.89355,-1.5715 -1.67337,0.0737 0.65474,4.89229 1.1,2.27674 2.01431,4.72377 2.0318,5.43783 0.0175,0.71407 0.6925,2.17182 1.5,3.23944 0.80751,1.06762 1.4682,2.52381 1.4682,3.23597 0,0.71216 2.55106,6.58865 5.66902,13.05887 3.11796,6.47022 5.81623,13.53318 5.99615,15.69548 0.17992,2.1623 1.15986,4.8623 2.17765,6 2.7637,3.08932 11.15718,19.09248 11.15718,21.27248 0,1.04284 0.41542,2.32357 0.92315,2.84607 0.50774,0.5225 1.50332,3.78937 2.21241,7.25971 1.08901,5.32968 1.0721,6.44391 -0.10885,7.17378 -0.9955,0.61525 -1.10135,1.24599 -0.36758,2.19029 1.2763,1.64251 3.38697,9.62345 3.25984,12.32622 -0.0517,1.1 0.65221,4.01147 1.56433,6.46993 0.91212,2.45846 1.75871,5.83346 1.88132,7.5 0.1226,1.66654 0.76572,4.01299 1.42915,5.21433 1.41895,2.56945 1.58077,5.31574 0.31322,5.31574 -0.49116,0 -1.15103,-0.67238 -1.46638,-1.49417 z M 932.91709,325.64861 c 0.3399,-0.55 0.168,-1 -0.382,-1 -0.55,0 -1.2781,0.45 -1.618,1 -0.34,0.55 -0.1681,1 0.3819,1 0.55,0 1.2781,-0.45 1.6181,-1 z m 22.9805,-12.53073 c 3.0357,-1.9419 5.5195,-3.9669 5.5195,-4.5 0,-0.5331 0.5062,-0.85677 1.125,-0.71927 0.6187,0.1375 1.3189,-0.27564 1.556,-0.91809 0.6413,-1.73792 -4.534,-0.90747 -6.4816,1.04004 -1.3564,1.35644 -1.3837,1.63051 -0.1637,1.64279 1.4296,0.0144 -1.3171,1.88814 -5.6886,3.88064 -2.4397,1.112 -3.9965,3.10462 -2.4256,3.10462 0.5718,0 3.5234,-1.58883 6.559,-3.53073 z m -114.0476,-13.25795 c 0.3122,-0.98378 -0.1148,-4.40885 -0.9489,-7.61128 -1.1282,-4.33166 -1.262,-6.7446 -0.5224,-9.4233 1.2442,-4.50595 0.3294,-10.60336 -1.8924,-12.61404 -1.1094,-1.00407 -6.3053,-2.06106 -15.1295,-3.07782 -16.7031,-1.92459 -28.5318,-3.77657 -41.43973,-6.48811 -7.25575,-1.52419 -11.92097,-1.94616 -17,-1.53768 -3.85,0.30965 -21.73733,0.82028 -39.74961,1.13474 -29.2868,0.5113 -32.81384,0.4044 -33.35699,-1.01104 -0.66328,-1.72846 -3.3934,-2.19734 -3.3934,-0.58279 0,0.5812 -3.26667,1 -7.8,1 -4.67127,0 -8.27455,0.47455 -8.98306,1.18306 -0.68197,0.68197 -3.62561,1.11306 -6.95,1.01779 -5.61559,-0.16092 -5.68821,-0.12958 -2.76694,1.19418 2.62449,1.18927 8.49267,3.04438 16.37523,5.17671 1.75423,0.47454 2.17277,0.31494 1.60085,-0.61045 -0.59109,-0.95639 -0.0881,-1.06263 2.12477,-0.44882 1.59453,0.44229 5.21868,0.70947 8.05367,0.59373 2.83499,-0.11574 7.98088,0.52194 11.43531,1.41708 3.45443,0.89513 8.7549,1.83196 11.77882,2.08183 3.02392,0.24988 6.04316,0.90674 6.70943,1.45969 0.66627,0.55296 1.59627,0.90386 2.06666,0.77979 1.02714,-0.27092 7.46574,1.15893 8.80476,1.95532 0.52223,0.3106 1.87223,0.67521 3,0.81024 9.26495,1.10936 64.13683,14.09725 103.05053,24.3915 4.3566,1.15252 4.3141,1.15933 4.9329,-0.79033 z m -267.69638,-3.26226 c 0.1803,-4.52117 -1.67681,-6.09197 -4.85545,-4.10688 -1.01968,0.6368 -3.32257,1.20302 -5.11753,1.25827 l -3.26357,0.10045 3.80973,0.89633 c 5.14726,1.21102 7.69027,2.67856 7.69027,4.43795 0,0.80565 0.35438,1.46482 0.78751,1.46482 0.43313,0 0.8602,-1.82292 0.94904,-4.05094 z m -128.73655,1.08948 c 0,-1.87364 2.6861,-3.07196 9.45356,-4.21739 3.42652,-0.57996 -5.65188,-6.94574 -10.19873,-7.15135 -3.58616,-0.16217 -3.76952,-0.0156 -4.08182,3.26302 -0.55405,5.81649 0.65873,10.06718 2.8723,10.06718 1.27522,0 1.95469,-0.68182 1.95469,-1.96146 z m -107.0856,-5.53854 c 0.0302,-0.55 -0.38124,-0.325 -0.9144,0.5 -0.53316,0.825 -0.94464,2.175 -0.9144,3 0.058,1.58385 1.72467,-1.60578 1.8288,-3.5 z M 637.84575,279.764 c 0.30069,-0.48654 2.57725,-1.18911 5.05901,-1.56128 2.48177,-0.37216 4.5123,-0.95758 4.5123,-1.30093 0,-0.34335 -0.97844,-1.66578 -2.17431,-2.93873 -1.74491,-1.85737 -3.2261,-2.31445 -7.5,-2.31445 -3.90149,0 -5.32569,-0.37487 -5.32569,-1.40181 0,-0.98027 -1.87947,-1.60656 -6.25,-2.08266 -3.4375,-0.37447 -7.96624,-1.17349 -10.06388,-1.77561 -3.44769,-0.98966 -3.74842,-1.34177 -3.13211,-3.66735 0.37497,-1.41491 0.74121,-3.18779 0.81388,-3.93973 0.21054,-2.17874 -4.98845,-2.21914 -7.73323,-0.0601 -1.34757,1.05999 -3.12707,1.92726 -3.95445,1.92726 -1.22945,0 -1.41451,1.125 -1.01277,6.15652 0.27036,3.38609 1.18254,7.21109 2.02707,8.5 1.3468,2.05547 2.3251,2.34348 7.96034,2.34348 4.4415,0 7.62946,-0.61456 10.32714,-1.99081 4.52058,-2.30623 7.01801,-1.76729 7.01801,1.51447 0,1.27032 0.5625,2.53665 1.25,2.81406 2.12748,0.85846 7.60271,0.70962 8.17869,-0.22233 z m -455.29403,-5.08821 c 3.50094,-0.54855 8.56857,-1.45276 11.26141,-2.00936 2.69284,-0.55659 11.69284,-1.94011 20,-3.07449 8.30716,-1.13437 19.15393,-2.6617 24.10393,-3.39406 22.64632,-3.35056 39.60035,-5.4162 47.73808,-5.81631 2.60594,-0.12813 4.93001,-0.73211 5.16459,-1.34218 0.27485,-0.71479 4.36241,-1.12972 11.49518,-1.16687 6.08777,-0.0317 12.44449,-0.35983 14.12605,-0.72916 1.94503,-0.4272 3.8612,-0.16751 5.26674,0.71377 3.85395,2.41645 31.40864,0.77131 35.42794,-2.11521 2.11179,-1.51663 3.30378,-3.8432 1.35052,-2.63602 -0.512,0.31644 -1.21356,0.11799 -1.55902,-0.44098 -0.34546,-0.55897 -2.48358,-1.01631 -4.75137,-1.01631 -7.6298,0 -21.87873,-2.26288 -23.31918,-3.70332 -1.82449,-1.8245 -3.40241,-0.87075 -2.74139,1.657 0.57061,2.18203 0.92888,2.19373 -12.69814,-0.41469 -4.125,-0.78958 -12.16978,-1.71497 -17.87729,-2.05641 -5.7075,-0.34144 -14.0325,-1.26408 -18.5,-2.05032 -4.46749,-0.78624 -10.48521,-1.43014 -13.37271,-1.43089 -2.8875,-7.5e-4 -5.25,-0.37359 -5.25,-0.82852 0,-2.28796 -22.56764,-4.20521 -24.67644,-2.09641 -0.68781,0.68781 -10.95931,1.2746 -28.45,1.62527 -15.05546,0.30185 -28.1417,0.94792 -29.08053,1.43571 -0.93883,0.48779 -1.91226,2.34392 -2.16318,4.12473 -1.02139,7.249 -2.59216,18.51687 -3.19303,22.90505 -0.59525,4.34713 -0.47784,4.69353 1.71205,5.05128 1.29312,0.21124 2.63673,0.25402 2.98579,0.0951 0.34906,-0.15895 3.49906,-0.73782 7,-1.28636 z m 822.31878,-8.90714 c 1.5966,-2.63451 2.5158,-5.42407 2.3066,-7 l -0.3478,-2.62004 -1.4358,3 c -0.7896,1.65 -1.7088,3.225 -2.0426,3.5 -0.8937,0.73629 -5.93381,9.55673 -5.93381,10.38454 0,1.65147 5.00851,-3.23011 7.45341,-7.2645 z m -355.55863,4.50671 c 1.53882,-1.85417 0.51986,-4.11679 -2.46684,-5.47762 -1.9189,-0.8743 -2.26339,-1.51083 -1.56166,-2.88545 0.49519,-0.97002 1.4586,-2.96328 2.14092,-4.42945 1.18326,-2.54262 3.21063,-3.71359 7.39203,-4.26949 1.04459,-0.13887 2.4442,-0.99775 3.11024,-1.90862 1.43624,-1.96418 3.15732,-2.15084 3.74455,-0.40612 0.32932,0.97849 0.77644,0.95637 2.05845,-0.1018 1.48783,-1.22805 1.36144,-1.62811 -1.38069,-4.37024 -2.79994,-2.79994 -3.39534,-2.97559 -8.22513,-2.42659 -12.79822,1.45476 -24.63971,4.11456 -29.70668,6.67261 -1.99765,1.00851 -1.57379,7.68451 0.64345,10.13453 1.07501,1.18788 3.04821,1.84149 5.55929,1.84149 2.95616,0 4.5021,0.65749 6.42536,2.73272 5.30588,5.72515 10.01702,7.60474 12.26671,4.89403 z m 341.10522,0.37325 c -0.825,-0.53316 -2.4,-0.93141 -3.5,-0.88501 -1.6477,0.0695 -1.5596,0.22543 0.5,0.88501 3.5356,1.13232 4.7521,1.13232 3,0 z m -616.09783,-7.6013 c 1.49092,-0.88071 3.13536,-2.56558 3.65429,-3.74416 1.27117,-2.88702 4.10504,-3.29633 4.92546,-0.71141 1.04259,3.28491 4.19943,2.42425 9.81089,-2.67478 2.86394,-2.6024 5.39941,-4.85716 5.63439,-5.01056 0.60531,-0.39517 -2.74174,-3.29791 -7.42723,-6.44129 -2.73627,-1.83569 -6.22493,-2.98546 -11.04245,-3.63928 -4.77563,-0.64815 -8.28074,-1.79613 -10.88954,-3.56651 -4.32267,-2.93344 -7.34972,-3.34314 -8.20638,-1.11071 -0.31659,0.825 -1.00961,1.5 -1.54005,1.5 -1.67123,0 -3.82158,2.77323 -3.82158,4.92857 0,1.5295 0.63861,2.07143 2.44098,2.07143 1.34254,0 2.7191,0.45 3.05902,1 0.33992,0.55 1.55237,1 2.69435,1 1.14197,0 3.18156,1.19259 4.53243,2.6502 1.93137,2.08398 2.32425,3.31248 1.83888,5.75 -1.19835,6.01801 -1.21676,7.05852 -0.14657,8.28498 1.38725,1.58982 1.29703,1.59559 4.48311,-0.28648 z m 541.34783,0.8779 c -1.7875,-0.22182 -4.7125,-0.22182 -6.5,0 -1.7875,0.22183 -0.325,0.40333 3.25,0.40333 3.575,0 5.0375,-0.1815 3.25,-0.40333 z m 5.25,-0.2766 c 0.3399,-0.55 0.1414,-1 -0.441,-1 -0.5825,0 -1.059,0.45 -1.059,1 0,0.55 0.1984,1 0.4409,1 0.2426,0 0.7191,-0.45 1.0591,-1 z m 5.769,-0.65594 c -0.677,-0.27392 -2.027,-0.29059 -3,-0.0371 -0.973,0.25354 -0.419,0.47766 1.231,0.49804 1.65,0.0204 2.446,-0.18706 1.769,-0.46099 z m -166.91732,-5.86074 c 3.21843,-0.74437 6.12295,-1.62465 6.45447,-1.95617 1.10292,-1.10292 1.25771,-5.36963 0.21812,-6.01213 -0.56337,-0.34818 -1.0243,-1.49792 -1.0243,-2.55498 0,-1.24282 -0.93201,-2.15586 -2.63761,-2.58393 -3.99031,-1.00151 -28.73583,0.3541 -38.36239,2.10156 -11.36763,2.06351 -12.12673,2.16734 -22.39726,3.0636 -8.02718,0.70049 -9.02956,0.59551 -10.25,-1.07355 -2.82091,-3.85782 -1.22773,-7.46772 3.29577,-7.46772 2.16964,0 8.35149,-4.98555 8.35149,-6.73532 0,-1.08437 -0.62121,-1.3138 -2.25,-0.83099 -1.2375,0.36683 -5.3458,1.08929 -9.12955,1.60548 -6.54261,0.89256 -18.71821,5.69195 -20.09617,7.92154 -0.35454,0.57367 0.39495,1.43871 1.66555,1.92231 1.27059,0.4836 4.11017,1.6879 6.31017,2.67622 l 4,1.79694 -4,0.57191 c -3.44749,0.49291 -4,0.91723 -4,3.07191 l 0,2.5 15,0.74036 c 8.25,0.4072 19.05,1.13114 24,1.60875 14.15106,1.3654 38.21513,1.16914 44.85171,-0.36579 z m -428.10171,-13.1806 c 0.4125,-0.23141 0.75,-1.23259 0.75,-2.22483 0,-1.50323 1.10188,-1.89252 6.60778,-2.33448 3.8301,-0.30744 7.22384,-1.14646 8.07331,-1.99593 1.28735,-1.28735 1.18307,-1.77542 -0.85779,-4.01475 -1.27781,-1.40208 -4.7983,-3.32769 -7.8233,-4.27913 -3.025,-0.95144 -8.58686,-3.24273 -12.3597,-5.09175 -8.75978,-4.29306 -10.6403,-4.34799 -10.6403,-0.31082 0,2.5688 0.58028,3.29348 3.67142,4.58504 2.56308,1.07092 3.27911,1.77647 2.37188,2.33717 -1.7046,1.0535 -0.43705,3.02676 1.94429,3.02676 1.02825,0 2.61675,0.7472 3.52999,1.66044 1.54203,1.54203 1.54275,1.72629 0.0101,2.58403 -1.10041,0.61581 -2.9696,0.39574 -5.60925,-0.66044 -2.17741,-0.87122 -4.8934,-1.58403 -6.03557,-1.58403 -1.14217,0 -8.89556,-1.5375 -17.22977,-3.41667 -25.28261,-5.70065 -30.40366,-6.58333 -38.19451,-6.58333 l -7.48457,0 -2.18294,4.49313 -2.18293,4.49314 2.09157,1.94859 c 3.01042,2.80464 11.18904,4.88937 23.80029,6.06669 25.47229,2.37797 24.98897,2.36662 26.72798,0.62762 1.90263,-1.90264 5.66823,-2.06813 11.27202,-0.49539 8.43121,2.36627 16.73927,2.858 19.75,1.16894 z m 298.75,-3.80272 c 3.575,-0.78636 8.15536,-1.44555 10.17857,-1.46487 4.16185,-0.0397 6.82874,-2.13864 6.80612,-5.35656 -0.0277,-3.94216 -1.55967,-5.02296 -7.65523,-5.40079 -6.46722,-0.40087 -10.28195,1.02117 -11.77297,4.38868 -0.51893,1.17202 -2.09393,2.84136 -3.5,3.70964 -1.40607,0.86829 -3.68149,2.47886 -5.05649,3.57906 l -2.5,2.00037 3.5,-0.0129 c 1.925,-0.007 6.425,-0.65627 10,-1.44263 z m 90.90708,-0.94258 c 1.90973,-1.18027 30.11547,-0.78359 31.59505,0.44435 0.86079,0.71439 4.35364,0.91057 9.92695,0.55756 6.92804,-0.43882 9.78359,-1.14269 14.69608,-3.62251 3.35347,-1.69283 8.62804,-3.48977 11.72126,-3.9932 3.09323,-0.50344 6.80151,-1.78591 8.24071,-2.84993 4.2738,-3.15972 30.8194,-4.51908 86.9129,-4.45069 35.7105,0.0436 53.774,0.49178 68.5,1.69976 20.6598,1.69475 25.2341,2.1952 29.5,3.22739 1.375,0.33271 5.875,1.02006 10,1.52745 4.125,0.50739 9.18751,1.19224 11.25001,1.52187 3.4461,0.55077 3.75,0.40748 3.75,-1.76802 0,-4.73432 -11.28411,-22.16776 -18.69961,-28.89012 -11.1017,-10.06397 -20.6726,-15.70236 -31.5559,-18.59005 l -6.7555,-1.79245 -10.7445,3.63498 c -10.8858,3.68279 -26.0325,7.3121 -34.2445,8.20535 -2.475,0.26921 -8.5153,1.1635 -13.423,1.98731 -4.9076,0.8238 -9.1966,1.32866 -9.5311,1.12191 -0.3345,-0.20675 -3.6995,0.27206 -7.4776,1.06402 -3.7781,0.79197 -7.0395,1.26974 -7.2475,1.06173 -0.2081,-0.20802 -2.9528,0.27909 -6.0995,1.08246 -3.1468,0.80337 -8.4213,1.81441 -11.7213,2.24676 -3.3,0.43235 -7.2336,1.27534 -8.7414,1.87332 -1.5077,0.59797 -3.373,0.8448 -4.1451,0.54851 -0.7722,-0.29629 -3.1386,-0.0784 -5.2587,0.48422 -9.5587,2.53656 -20.3548,3.46469 -20.3548,1.74989 0,-0.77675 2.4758,-1.78548 6.25,-2.54647 19.8218,-3.99668 24.9197,-5.07019 31.25,-6.58051 3.85,-0.91858 9.25,-1.88256 12,-2.14219 14.4678,-1.36592 28.8233,-3.38313 37.301,-5.24149 2.5844,-0.56652 9.3831,-1.77403 15.1081,-2.68335 9.8005,-1.55664 25.5445,-5.56562 26.8042,-6.82529 1.4485,-1.44849 -2.4709,-3.61117 -9.0276,-4.98131 -16.2952,-3.4052 -20.0881,-3.81477 -40.1857,-4.33936 -35.7499,-0.93315 -66.2714,2.4303 -93.5,10.30362 -4.67503,1.3518 -10.07503,2.87813 -12.00003,3.39185 -1.925,0.51371 -10.71732,3.20004 -19.53849,5.96962 -8.82116,2.76957 -17.50515,5.03559 -19.29775,5.03559 -2.10891,0 -4.03654,0.81847 -5.46151,2.31896 -1.21124,1.27544 -4.30563,3.74858 -6.87642,5.49587 -2.57079,1.7473 -5.49579,4.2203 -6.5,5.49555 -1.00421,1.27526 -3.16238,3.18962 -4.79594,4.25414 -3.49541,2.27779 -11.52989,10.34761 -11.52989,11.5806 0,0.47018 -0.675,0.85488 -1.5,0.85488 -0.825,0 -1.5,0.70257 -1.5,1.56127 0,1.28371 0.80003,1.4413 4.5,0.88646 3.72801,-0.55905 4.5,-0.4023 4.5,0.91373 0,1.24072 0.71161,1.46559 3.25,1.02701 1.7875,-0.30885 3.925,-0.82828 4.75,-1.15429 1.9839,-0.78397 4.87427,-1.24225 8.268,-1.31092 1.73035,-0.035 2.51589,-0.46391 2.09549,-1.14414 -0.39713,-0.64257 -0.20921,-0.8018 0.45893,-0.38887 0.62229,0.38459 3.05432,0.14963 5.40451,-0.52215 2.35019,-0.67178 4.66292,-1.12447 5.13941,-1.00598 0.47649,0.11849 1.99439,-0.52369 3.37312,-1.42707 1.37874,-0.90338 2.20362,-1.15196 1.83308,-0.55242 -0.80045,1.29516 3.58034,0.88987 7.57464,-0.70077 1.45594,-0.57979 2.94223,-0.75912 3.30285,-0.3985 0.36062,0.36062 0.34379,-0.15708 -0.0374,-1.15045 -0.53522,-1.39475 -0.26254,-1.73515 1.19714,-1.49448 1.03963,0.17141 2.34023,0.0417 2.89023,-0.28826 0.55,-0.32995 1.9,-0.26568 3,0.14281 1.66623,0.61877 0.91524,1.28285 -4.5,3.97922 -3.575,1.78008 -9.425,4.03715 -13,5.01571 -3.575,0.97856 -10.55,2.97662 -15.5,4.44013 -4.95,1.4635 -10.125,2.80567 -11.5,2.9826 -2.86848,0.36909 -11.12546,2.5634 -12.26631,3.25979 -0.42147,0.25727 -0.53637,0.83982 -0.25533,1.29456 0.52181,0.8443 6.36361,-0.13126 8.42872,-1.40757 z m 64.74977,-24.30364 c -0.31288,-0.50624 -0.0262,-0.96744 0.63714,-1.02488 0.6633,-0.0574 4.52695,-1.27507 8.58584,-2.70585 7.503,-2.64479 15.5082,-3.96 14.5369,-2.38829 -0.2941,0.47588 -1.3817,0.86524 -2.4167,0.86524 -1.0351,0 -2.0993,0.35167 -2.365,0.7815 -0.2656,0.42982 -1.9097,0.89021 -3.6535,1.02309 -1.7438,0.13287 -3.8352,0.90619 -4.6475,1.7185 -0.8123,0.8123 -2.4572,1.48305 -3.65546,1.49056 -1.19821,0.008 -3.14028,0.27172 -4.31571,0.58712 -1.17543,0.31541 -2.39313,0.15926 -2.70601,-0.34699 z m -567.88515,25.11229 c 4.50525,-0.47089 6.17874,-1.06856 6.50702,-2.32391 0.36986,-1.41433 1.42256,-1.61905 6.45402,-1.25511 3.78001,0.27342 6.26698,0.0224 6.69868,-0.67609 0.37764,-0.61103 1.54955,-1.11096 2.60426,-1.11096 1.84673,0 5.96432,-6.64117 5.96432,-9.61974 0,-2.65518 -12.9857,-8.96941 -26.5,-12.88549 -3.3,-0.95625 -7.66266,-2.34518 -9.6948,-3.08652 -5.06737,-1.84861 -23.00232,-5.59785 -30.3052,-6.3352 -3.3,-0.3332 -6.53693,-0.94669 -7.19318,-1.36333 -1.13992,-0.72371 -10.3907,-1.76653 -46.5313,-5.24538 -8.95154,-0.86167 -20.77553,-2.01091 -26.275523,-2.55389 -16.39954,-1.619 -55.27167,-2.45503 -78.85121,-1.69587 -9.02795,0.29067 -10.01543,0.51997 -11.8162701,2.74391 -1.08077,1.33471 -1.73156,3.12756 -1.44618,3.98412 2.3176101,6.95635 4.4701101,12.17951 5.5609201,13.49385 0.7137,0.85995 0.96242,1.56354 0.55274,1.56354 -0.40969,0 -0.18469,0.675 0.5,1.5 0.68468,0.825 0.90968,1.5 0.5,1.5 -0.40969,0 -0.14702,0.7204 0.58372,1.60088 0.73074,0.88049 1.43092,2.29794 1.55596,3.1499 0.12504,0.85195 0.81977,1.91748 1.54383,2.36783 0.72407,0.45036 13.46649,0.73726 28.31649,0.63755 24.92121,-0.16731 47.7109,0.86629 71.499993,3.24282 27.47029,2.74428 32.93732,3.72932 35.97985,6.48277 1.00848,0.91267 4.46308,2.34479 7.67688,3.18249 3.21381,0.8377 6.51828,1.91725 7.34328,2.39901 1.73087,1.01075 39.74068,1.24675 48.7717,0.30282 z m 182.2283,-1.86867 c 0,-0.27643 -1.80096,-2.12966 -4.00213,-4.11829 -2.20116,-1.98862 -4.56366,-4.75844 -5.25,-6.15515 -1.49167,-3.03562 -2.58991,-3.63217 -9.67671,-5.2563 -5.20238,-1.19226 -5.5069,-1.14777 -7.2998,1.06637 -2.57986,3.18599 -1.96361,7.24529 1.22864,8.0932 1.375,0.36522 6.775,2.03635 12,3.71362 9.14251,2.93483 13,3.72311 13,2.65655 z m -88.58722,-8.86409 c -0.28845,-0.75168 -3.53682,-2.16573 -7.21861,-3.14232 -3.6818,-0.97659 -7.14417,-2.08409 -7.69417,-2.46111 -0.55,-0.37702 -3.25,-1.49509 -6,-2.48461 -2.75,-0.98951 -8.15,-3.14118 -12,-4.78149 -3.85,-1.64031 -8.575,-3.64564 -10.5,-4.4563 -1.925,-0.81065 -4.175,-1.86432 -5,-2.34147 -3.50757,-2.02867 -9.87591,-4.75795 -15,-6.42856 -3.025,-0.98624 -6.49655,-2.41056 -7.71456,-3.16514 -1.21801,-0.75459 -4.36801,-2.09546 -7,-2.97972 -2.63199,-0.88426 -7.03544,-2.62729 -9.78544,-3.8734 -7.97078,-3.61181 -22.61635,-9.51919 -23.59996,-9.51919 -0.49502,0 -0.9305,0.7875 -0.96772,1.75 -0.0543,1.40292 -0.28095,1.30811 -1.143,-0.478 -1.1838,-2.45277 -1.28878,-2.49724 -11.22001,-4.75288 -3.81188,-0.86578 -7.41188,-1.93278 -8,-2.37111 -0.58812,-0.43833 -3.99431,-1.60194 -7.56931,-2.58581 -3.575,-0.98386 -7.80465,-2.18785 -9.39922,-2.67552 -1.59458,-0.48768 -3.97291,-0.88668 -5.28519,-0.88668 -1.31227,0 -3.38262,-0.63379 -4.60077,-1.40842 -2.88489,-1.83453 -12.89396,-3.8438 -15.04185,-3.01958 -0.95665,0.3671 -1.67298,0.15739 -1.67298,-0.48976 0,-1.39636 -3.6557,-2.85239 -11.5,-4.58033 -8.98946,-1.9802 -35.097953,-11.2416 -42.527193,-15.08556 -3.58996,-1.85747 -7.87749,-3.64729 -9.52785,-3.97736 -5.81127,-1.16225 -28.81244,6.27751 -34.09382,11.02769 -0.63188,0.56833 -2.84668,2.38332 -4.92178,4.03332 -11.99324,9.53633 -22.9033101,23.97158 -21.67309,28.67594 0.47161,1.80346 1.11406,1.87569 10.12365,1.13825 15.61118,-1.27777 46.35818,-0.69872 64.62009,1.21698 9.35,0.98083 19.024993,1.86965 21.499993,1.97516 2.475,0.1055 10.125,0.96439 17,1.90862 6.875,0.94424 16.77501,1.88396 22.00001,2.08828 11.50025,0.4497 29.41929,2.3847 33.39922,3.60664 1.59458,0.48957 4.18818,0.89013 5.76357,0.89013 1.57539,0 3.64574,0.41824 4.60078,0.92941 0.95504,0.51118 5.78643,1.67368 10.73643,2.58334 12.29904,2.26019 24.82332,6.59102 38.5,13.31311 6.325,3.10874 11.725,5.88218 12,6.1632 0.275,0.28102 2.075,0.5438 4,0.58396 1.925,0.0402 9.35,1.06956 16.5,2.28754 7.15,1.21799 16.375,2.41678 20.5,2.66398 4.125,0.24719 8.85,0.86662 10.5,1.3765 4.79327,1.48121 9.52932,1.33894 8.91278,-0.26773 z m 113.57191,-7.88331 c -0.0124,-1.81944 -0.20082,-1.96296 -0.98469,-0.75 -1.25292,1.93876 -1.25292,3 0,3 0.55,0 0.99311,-1.0125 0.98469,-2.25 z m -116.36618,-4.19822 c 0.57149,-1.48929 -2.46884,-7.55178 -3.7872,-7.55178 -0.40561,0 -1.47976,-1.56426 -2.38701,-3.47613 -1.82036,-3.83613 -12.94642,-14.29332 -21.32845,-20.04624 -4.59477,-3.15357 -20.98894,-11.47763 -22.6051,-11.47763 -0.2929,0 -2.44014,-0.87659 -4.77165,-1.94797 -7.56786,-3.47761 -30.0694,-12.1912 -36.7391,-14.22699 -16.03079,-4.8931 -23.92187,-7.11554 -29.5,-8.30838 -3.3,-0.70567 -8.025,-1.76978 -10.5,-2.36468 -9.29789,-2.23488 -19.78759,-4.13405 -28.5,-5.15995 -4.95,-0.58287 -12.82501,-1.51789 -17.50001,-2.07783 -10.49105,-1.25654 -39.511833,-1.68899 -43.249993,-0.64449 -3.33254,0.93116 -3.54993,3.16628 -0.5,5.14094 2.04159,1.32182 13.403083,5.46439 29.249993,10.665 3.3,1.08298 7.41801,2.634 9.15113,3.44671 1.73312,0.8127 4.23894,1.47764 5.5685,1.47764 1.32955,0 4.86154,0.73334 7.84888,1.62964 2.98732,0.89631 7.9065,2.19285 10.9315,2.88121 3.025,0.68836 9.55,2.43476 14.5,3.88089 4.95,1.44614 10.8,3.13474 13,3.75245 2.2,0.61772 6.42168,1.9788 9.3815,3.02463 2.95983,1.04583 5.60438,1.67863 5.87679,1.40623 0.2724,-0.27241 1.85953,0.2102 3.52694,1.07245 1.66742,0.86225 6.22286,2.4518 10.12322,3.53234 3.90035,1.08053 7.76655,2.54827 8.59155,3.26166 1.36665,1.18175 14.02534,6.5585 15.44093,6.5585 0.32991,0 4.35747,1.77682 8.95015,3.9485 4.59268,2.17167 9.56985,4.25457 11.06038,4.62867 1.49054,0.3741 2.93711,1.27186 3.21461,1.99501 0.7761,2.02248 7.30242,5.05045 12.58927,5.84094 2.61544,0.39107 5.97848,1.3456 7.47342,2.12118 1.49495,0.77559 4.75504,1.6956 7.24466,2.04447 2.48962,0.34888 4.97658,1.18668 5.52658,1.8618 1.12047,1.37536 6.81695,2.70084 13.31874,3.09906 2.3753,0.14548 4.5878,0.53358 4.91666,0.86244 1.10014,1.10014 3.32129,0.61376 3.88311,-0.85029 z m 278.3578,-39.59605 c -1.34885,-2.52034 -2.97631,-3.39333 -2.97631,-1.59653 0,2.7285 1.15424,4.51884 2.56445,3.9777 1.02766,-0.39436 1.13697,-1.02629 0.41186,-2.38117 z m -151.96828,-2.48441 c 0.69737,-2.49077 1.04074,-4.75588 0.76304,-5.03358 -0.2777,-0.2777 -1.94005,1.12963 -3.69411,3.12739 -3.01004,3.42824 -3.08774,3.70924 -1.38308,5.00178 2.67417,2.02768 2.9314,1.8431 4.31415,-3.09559 z m 160.39312,1.92567 c 0.95317,-2.4839 2.92525,-31.10403 2.26229,-32.83168 -0.49576,-1.29191 -1.26729,-1.11241 -4.87619,1.13446 -3.37272,2.09981 -4.28725,3.25911 -4.28725,5.43471 0,1.52104 0.5625,3.32802 1.25,4.01552 0.6875,0.6875 1.25,1.8866 1.25,2.66466 0,0.77806 -2.87018,-1.27026 -6.37819,-4.55183 -8.32994,-7.79225 -13.96777,-10.57523 -19.215,-9.48502 -2.15367,0.44746 -4.02342,1.46992 -4.18061,2.28613 -0.40067,2.08052 11.82614,8.99664 14.61541,8.26723 1.16946,-0.30582 3.37102,-0.24174 4.89234,0.14241 l 2.76605,0.69845 -3,1.63907 -3,1.63908 2.5,0.36609 c 4.30009,0.62967 7.96544,5.36192 4.93538,6.37194 -0.5965,0.19883 0.50267,2.9576 2.49982,6.2742 4.51705,7.50131 6.73164,9.15116 7.96595,5.93458 z m -131.9869,-34.53573 c -0.65358,-1.05752 -4.54839,-1.10703 -5.91425,-0.0752 -0.55,0.4155 -2.575,2.48354 -4.5,4.59565 l -3.5,3.84018 7.22327,-3.7497 c 3.9728,-2.06233 6.98374,-4.13727 6.69098,-4.61096 z m 15.0133,-125.331495 c -2.3313,-3.55801 -2.80688,-2.59742 -0.75269,1.520299 0.92595,1.8561 1.85625,2.85659 2.06735,2.2233 0.21109,-0.63328 -0.3805,-2.3179 -1.31466,-3.743599 z M 434.91706,542.64861 c 0.33992,-0.55 0.81648,-1 1.05902,-1 0.24254,0 0.44098,0.45 0.44098,1 0,0.55 -0.47656,1 -1.05902,1 -0.58246,0 -0.7809,-0.45 -0.44098,-1 z m 329,-181.00941 c -4.4,-0.36907 -9.52657,-1.17989 -11.39237,-1.80183 -1.86581,-0.62195 -3.84784,-0.84932 -4.40451,-0.50528 -0.55668,0.34405 -0.70814,0.13367 -0.3366,-0.46751 0.37155,-0.60118 -0.12142,-1.55702 -1.09549,-2.1241 -0.97407,-0.56708 -1.32103,-1.03043 -0.77103,-1.02966 0.55,7.7e-4 1.87351,0.66209 2.94113,1.46959 1.06762,0.80751 2.89012,1.4682 4.05,1.4682 1.15988,0 2.53637,0.42282 3.05887,0.9396 0.5225,0.51678 9.275,1.23352 19.45,1.59276 14.94512,0.52766 20.32543,0.33548 28.00003,-1.00014 14.0368,-2.44286 17.5719,-2.88534 16.8568,-2.10996 -0.3538,0.38359 -5.9788,1.56231 -12.5,2.61939 -12.1033,1.9619 -27.74522,2.30035 -43.85683,0.94894 z m -30.86295,-6.03029 c -3.77462,-0.98241 -7.37462,-2.32595 -8,-2.98565 -0.87606,-0.92412 -0.56321,-1.02344 1.36295,-0.43266 1.375,0.42173 3.85,1.09424 5.5,1.49445 4.01005,0.97266 8.5,2.78914 8.5,3.43881 0,0.28861 -0.1125,0.46771 -0.25,0.398 -0.1375,-0.0697 -3.33833,-0.93054 -7.11295,-1.91295 z m -12.63705,-4.62888 c -2.85677,-0.97261 -8,-3.42698 -8,-3.81764 0,-0.71177 8.98545,2.65366 9.55785,3.57982 0.3081,0.49852 0.42113,0.87087 0.25117,0.82745 -0.16996,-0.0434 -0.98402,-0.30875 -1.80902,-0.58963 z m -489.5,-4.96765 c -2.75,-0.22333 -5.9,-0.83445 -7,-1.35805 -1.1,-0.52359 -3.575,-1.12446 -5.5,-1.33527 -1.925,-0.2108 -1.475,-0.23712 1,-0.0585 2.475,0.17863 9.40414,0.85176 15.3981,1.49585 9.3721,1.00709 12.3636,0.93229 21.36415,-0.53425 5.75632,-0.93792 14.12718,-2.81875 18.6019,-4.17962 15.69928,-4.77453 18.14654,-5.50017 19.42937,-5.76099 0.71144,-0.14465 2.12469,-0.97467 3.14056,-1.84448 1.01587,-0.86982 3.2152,-1.88198 4.88738,-2.24926 1.67219,-0.36727 3.57654,-1.31384 4.23189,-2.10349 1.30304,-1.57006 4.94665,-1.97308 4.94665,-0.54714 0,1.2567 -15.38256,9.11143 -17.84368,9.11143 -1.12106,0 -2.32094,0.45734 -2.6664,1.01631 -0.34546,0.55897 -1.09733,0.72632 -1.67082,0.37189 -0.57349,-0.35444 -1.3299,-0.22437 -1.6809,0.28904 -0.35101,0.51341 -3.3382,1.45401 -6.6382,2.09023 -3.3,0.63621 -10.275,2.10599 -15.5,3.26617 -9.37589,2.08185 -24.76155,3.121 -34.5,2.33013 z m 474.20009,-1.70294 c -0.30084,-0.78398 -1.93144,-2.03824 -3.62354,-2.78724 -1.6921,-0.749 -3.07655,-1.92696 -3.07655,-2.6177 0,-0.69074 0.2473,-1.25589 0.54957,-1.25589 1.04636,0 7.76845,7.01532 7.2341,7.54966 -0.29513,0.29513 -0.78274,-0.10485 -1.08358,-0.88883 z m -491.45009,-3.77961 c -1.7875,-0.51612 -3.25,-1.11984 -3.25,-1.34159 0,-0.86717 5.14365,0.20402 6.23891,1.29928 1.31183,1.31183 1.40336,1.31053 -2.98891,0.0423 z m -6.75,-1.88122 c -0.33992,-0.55 0.0835,-1 0.94098,-1 0.85746,0 1.55902,0.45 1.55902,1 0,0.55 -0.42344,1 -0.94098,1 -0.51754,0 -1.2191,-0.45 -1.55902,-1 z m -9.07763,-1.13664 c -0.22015,-0.35015 -2.09275,-0.93224 -4.16132,-1.29354 -4.44634,-0.7766 -20.00844,-5.39448 -22.49748,-6.67588 -0.95504,-0.49167 -2.23703,-0.89394 -2.84887,-0.89394 -0.61184,0 -2.53045,-0.62942 -4.26357,-1.39871 -1.73312,-0.76929 -5.51363,-2.20819 -8.40113,-3.19754 -2.8875,-0.98936 -5.25,-2.15994 -5.25,-2.60129 0,-1.10346 1.39495,-1.00751 2.57992,0.17746 0.53895,0.53895 5.01645,1.75221 9.95,2.69612 4.93354,0.94392 9.19508,2.02261 9.47008,2.3971 1.02291,1.39298 13.81568,5.81039 23.25,8.02835 5.3625,1.26069 9.75,2.6216 9.75,3.02425 0,0.88411 -7.00938,0.64141 -7.57763,-0.26238 z m 493.16431,-4.93731 c -2.70232,-2.71301 -4.61562,-5.23045 -4.25176,-5.5943 0.61095,-0.61095 10.66508,8.94661 10.66508,10.13833 0,1.33986 -1.87792,0.009 -6.41332,-4.54403 z m -250.9373,-6.1588 c -0.32113,-1.22802 -0.14861,-2.66802 0.38337,-3.2 0.623,-0.623 0.96725,0.17166 0.96725,2.23275 0,3.73952 -0.52696,4.1169 -1.35062,0.96725 z m -126.22398,-1.64654 c 0.29889,-0.48361 1.56295,-1.13623 2.80902,-1.45027 2.18576,-0.55085 2.19719,-0.51987 0.32445,0.8793 -2.1498,1.60616 -3.97929,1.93952 -3.13347,0.57097 z m 370.81943,-0.37071 c -0.55003,-0.6875 -1.34074,-2.375 -1.75714,-3.75 -0.4164,-1.375 -1.37147,-3.38763 -2.12239,-4.47251 -1.77434,-2.56346 -1.75632,-3.96776 0.0297,-2.31692 0.76727,0.70919 1.19071,1.62693 0.94098,2.03943 -0.24973,0.4125 0.0225,0.75 0.60496,0.75 0.58246,0 1.05902,0.9 1.05902,2 0,1.1 0.525,2 1.16667,2 0.64166,0 0.86568,0.30098 0.49781,0.66885 -0.36786,0.36787 0.0769,1.49287 0.98833,2.5 0.91144,1.00713 1.19252,1.83115 0.62462,1.83115 -0.5679,0 -1.48257,-0.5625 -2.0326,-1.25 z m 17.37871,-8.28866 c -0.96498,-2.51469 -0.68031,-3.16355 0.49853,-1.13634 0.58369,1.00375 0.8506,2.03566 0.59313,2.29313 -0.25747,0.25747 -0.74872,-0.26309 -1.09166,-1.15679 z m -33.45501,-5.21134 c -1.23426,-2.37445 -1.72917,-4.25 -1.12147,-4.25 0.59825,0 0.85342,-0.7875 0.56705,-1.75 -0.28636,-0.9625 -0.19453,-4.225 0.20408,-7.25 0.62412,-4.73643 0.99942,-5.45448 2.70327,-5.17213 2.48912,0.41248 6.78713,4.86381 5.97112,6.18413 -0.33584,0.5434 -0.0816,0.988 0.56498,0.988 0.71031,0 0.98908,0.97567 0.70436,2.46511 -0.25918,1.35582 -0.0968,2.59332 0.36078,2.75 1.30191,0.44579 2.30133,6.78489 1.06969,6.78489 -0.58169,0 -1.34326,-0.9 -1.69239,-2 -0.34913,-1.1 -1.05445,-2 -1.56739,-2 -0.51293,0 -0.93261,-1.05785 -0.93261,-2.35078 0,-2.70739 -1.86328,-8.6988 -3.1427,-10.10544 -0.49683,-0.54623 -0.62955,1.59757 -0.30953,5 0.30812,3.27592 0.1709,7.98122 -0.30493,10.45622 l -0.86513,4.5 -2.20918,-4.25 z m -6.66853,-4.25 c -1.77225,-0.76156 -1.68684,-0.86743 0.75,-0.92971 1.5125,-0.0387 2.75,0.37971 2.75,0.92971 0,1.17371 -0.76862,1.17371 -3.5,0 z m -4.99292,-1.98855 c -0.35034,-0.56686 0.0511,-0.7345 0.94098,-0.39301 1.73242,0.66479 2.04939,1.38156 0.61096,1.38156 -0.51754,0 -1.21592,-0.44485 -1.55194,-0.98855 z m -5.00708,-2.01145 c -0.33992,-0.55 -0.14148,-1 0.44098,-1 0.58246,0 1.05902,0.45 1.05902,1 0,0.55 -0.19844,1 -0.44098,1 -0.24254,0 -0.7191,-0.45 -1.05902,-1 z m -5,-2 c -0.33992,-0.55 -0.16803,-1 0.38197,-1 0.55,0 1.27811,0.45 1.61803,1 0.33992,0.55 0.16803,1 -0.38197,1 -0.55,0 -1.27811,-0.45 -1.61803,-1 z m 363.00004,-43 c -0.3399,-0.55 -0.1415,-1 0.441,-1 0.5824,0 1.059,0.45 1.059,1 0,0.55 -0.1984,1 -0.441,1 -0.2425,0 -0.7191,-0.45 -1.059,-1 z m 0.5153,-2.69098 c 0.01,-0.44496 0.4515,-1.48402 0.9847,-2.30902 0.8354,-1.29269 0.9715,-1.26629 0.9847,0.19098 0.01,0.93004 -0.4347,1.9691 -0.9847,2.30902 -0.55,0.33992 -0.9931,0.25398 -0.9847,-0.19098 z"
     style="fill:#000000" />
</svg>
