<?xml version="1.0" encoding="UTF-8" standalone="no"?>
<svg
   xmlns:dc="http://purl.org/dc/elements/1.1/"
   xmlns:cc="http://creativecommons.org/ns#"
   xmlns:rdf="http://www.w3.org/1999/02/22-rdf-syntax-ns#"
   xmlns:svg="http://www.w3.org/2000/svg"
   xmlns="http://www.w3.org/2000/svg"
   xmlns:sodipodi="http://sodipodi.sourceforge.net/DTD/sodipodi-0.dtd"
   xmlns:inkscape="http://www.inkscape.org/namespaces/inkscape"
   viewBox="0 0 1320.8696 349.88425"
   height="349.88425"
   width="1320.8696"
   version="1.1"
   id="svg4190"
   inkscape:version="0.91 r13725"
   sodipodi:docname="reptilia.svg">
  <sodipodi:namedview
     pagecolor="#ffffff"
     bordercolor="#666666"
     borderopacity="1"
     objecttolerance="10"
     gridtolerance="10"
     guidetolerance="10"
     inkscape:pageopacity="0"
     inkscape:pageshadow="2"
     inkscape:window-width="729"
     inkscape:window-height="480"
     id="namedview16"
     showgrid="false"
     inkscape:zoom="0.19532586"
     inkscape:cx="660.43481"
     inkscape:cy="174.94212"
     inkscape:window-x="0"
     inkscape:window-y="0"
     inkscape:window-maximized="0"
     inkscape:current-layer="svg4190" />
  <metadata
     id="metadata4196">
    <rdf:RDF>
      <cc:Work
         rdf:about="">
        <dc:format>image/svg+xml</dc:format>
        <dc:type
           rdf:resource="http://purl.org/dc/dcmitype/StillImage" />
        <dc:title />
      </cc:Work>
    </rdf:RDF>
  </metadata>
  <defs
     id="defs4194" />
  <path
     id="path4200"
     d="m 161.00686,349.45696 c -0.2368,-0.23678 -4.6993,-0.71752 -9.9167,-1.0683 -16.1697,-1.08715 -39.1645,-8.2763 -53.683699,-16.78378 -3.9586,-2.31957 -10.8981,-6.2424 -15.4211,-8.7174 -4.523,-2.475 -10.5091,-6.58622 -13.3024,-9.13605 -2.7934,-2.54984 -8.6789,-6.80709 -13.0789,-9.46056 -17.6627,-10.65169 -33.8056,-31.27109 -44.1583,-56.40339 -10.1610999,-24.66722 -12.4960999,-39.44586 -11.05999993,-70 0.2973,-6.325 1.05540003,-13.75 1.68460003,-16.5 1.8264,-7.98176 7.516,-21.61064 17.3129999,-41.47159 l 9.1117,-18.47158 11.069,-11.028409 c 16.9436,-16.8816 19.0416,-18.42154 37.54,-27.5539 7.5787,-3.74149 22.2488,-9.64224 33.499999,-13.47465 2.2,-0.74937 6.834,-1.60511 10.2977,-1.90164 3.4637,-0.29654 6.6137,-0.72735 7,-0.95737 0.3863,-0.23003 3.4023,-0.71138 6.7023,-1.06969 3.3,-0.35831 7.4092,-0.89849 9.1317,-1.20041 1.7224,-0.30192 6.8974,-0.69627 11.5,-0.87634 19.0072,-0.74361 31.0462,-1.61023 33.1427,-2.38574 2.4151,-0.89335 8.7707,-0.74048 35.5559,0.85523 21.2299,1.26476 35.2615,3.32203 62.1697,9.11515 2.475,0.53285 5.85,1.20614 7.5,1.4962 1.65,0.29006 6.825,1.58555 11.5,2.87886 4.675,1.29331 13,3.3474 18.49999,4.56465 5.5,1.21724 13.375,3.305 17.5,4.63947 4.125,1.33447 8.175,2.55799 9,2.71893 0.825,0.16094 2.625,0.76156 4,1.3347 6.26455,2.61126 13.95743,5.30137 19,6.64407 3.025,0.80548 10.45,3.26317 16.5,5.46152 6.05,2.19835 15.95,5.59076 22,7.53868 6.05,1.94793 14.15,4.72596 18,6.173403 12.02784,4.522 20.75307,6.673736 44.83452,11.056726 7.79101,1.41801 17.76548,3.24316 22.16548,4.05587 7.53312,1.39143 40.08694,1.99452 48,0.88924 1.65,-0.23047 6.6,-0.71617 11,-1.07933 8.44583,-0.6971 35.1592,-6.80373 39.64496,-9.06277 1.45473,-0.732596 4.37973,-1.757176 6.5,-2.276826 6.6812,-1.6375 22.93699,-7.889143 33.08396,-12.723423 13.5871,-6.47324 22.98704,-10.39942 28.27108,-11.80831 3.68552,-0.98268 4.55467,-1.65981 4.80203,-3.74117 0.39794,-3.34824 -2.62926,-5.29197 -11.41525,-7.32957 -3.75393,-0.8706 -8.90355,-2.91649 -11.4436,-4.54644 -5.1884,-3.32939 -7.73071,-3.64189 -11.93609,-1.4672 -3.58055,1.85157 -4.68173,0.5466 -2.98841,-3.54144 1.87152,-4.51826 9.13454,-6.1712 15.47519,-3.52191 1.88629,0.78815 5.54373,1.75002 8.12763,2.1375 3.8047,0.57055 4.58627,0.44069 4.11036,-0.68299 -0.32321,-0.76312 -2.1732,-5.14282 -4.1111,-9.73265 -7.95527,-18.84176 -8.16319,-19.00031 -25.12076,-19.1555 -24.47271,-0.22396 -23.03198,-0.41697 -27.5838,3.69532 -3.52849,3.18778 -4.03553,4.15749 -3.69574,7.06804 0.57671,4.93995 -2.34706,6.28275 -5.73058,2.63187 -5.56616,-6.00598 -1.65703,-16.10647 8.79431,-22.7229 2.82999,-1.79159 5.31704,-1.89583 29.71581,-1.24551 9.18759,0.24489 16.67896,1.41221 20,3.11645 4.03586,2.07105 12.22473,10.40344 17.8938,18.20738 2.89667,3.9875 5.70095,7.25 6.23174,7.25 0.97265,0 0.51287,-4.2008 -1.21256,-11.07859 -1.37385,-5.47635 -12.87728,-16.05324 -22.35448,-20.5539398 -6.30244,-2.99302 -8.39733,-3.53302 -12.09088,-3.11671 -5.09622,0.57442 -5.45341,0.024 -2.05572,-3.16799 2.1217,-1.99324002 3.17451,-2.20923002 8.75,-1.79514002 12.54251,0.93152002 25.51908,8.99420002 37.15787,23.08715982 2.67962,3.24465 4.56478,4.62521 6.31574,4.62521 1.37279,0 3.32617,0.44431 4.34085,0.98735 2.59658,1.38965 6.02364,7.26201 6.02364,10.32167 0,4.94617 2.21233,4.22148 8.93983,-2.92838 9.82924,-10.44635 24.32593,-18.42129 33.34719,-18.34502 5.92927,0.0501 15.65167,2.53108 18.6673,4.76349 1.4725,1.09007 4.07906,5.42915 6.183,10.29271 4.19021,9.68628 3.34072,9.37961 17.86268,6.44854 12.26423,-2.47538 10.64894,-2.27534 36.5,-4.52031 25.98738,-2.25681 41.60107,-2.78516 72.5,-2.4533 32.8325,0.35263 42.12743,0.79267 53,2.50909 3.575,0.56437 9.2,1.44132 12.5,1.94878 3.3,0.50745 9.825,1.57768 14.5,2.37828 4.675,0.8006 11.9845,1.75058 16.24333,2.11107 4.25883,0.36048 8.00247,1.07465 8.31907,1.58704 0.3167,0.51239 0.9984,0.67041 1.515,0.35115 1.81845,-1.12385 34.79235,6.43685 40.24175,9.22715 3.6348,1.86121 14.8962,3.94491 25.6809,4.75177 9.742,0.72886 15.798,-0.1993 41.8787,-6.4184 13.7587,-3.28085 20.5285,-4.34062 32.5,-5.0877 8.3167,-0.51899 17.5963,-1.47794 20.6213,-2.13098 10.8314,-2.33831 29.9779,-0.93027 39.8328,2.92931 3.483,1.36409 8.208,2.58972 10.5,2.72361 2.2919,0.13389 9.5013,1.4381 16.0208,2.89826 6.5195,1.46015 13.2407,2.65482 14.9361,2.65482 3.9535,0 15.3235,2.81123 19.2103,4.74974 5.6001,2.79305 12.3203,8.51649 17.9865,15.31869 3.1067,3.72954 8.2056,8.49967 11.331,10.60028 24.626,16.551489 32.0251,26.119589 30.8253,39.861459 -1.0291,11.78723 -11.9887,27.01433 -23.0622,32.04258 -7.8734,3.57513 -24.4213,6.48072 -42.0806,7.38883 -8.8,0.45253 -17.35,1.3032 -19,1.89037 -9.6413,3.43102 -36.1726,11.30584 -42.9368,12.74422 -6.1691,1.31181 -10.8847,1.56413 -21.1715,1.13282 -12.6493,-0.53035 -13.437,-0.4472 -17.8089,1.88015 -7.7639,4.13306 -19.4236,5.54362 -43.6497,5.28061 -11.8618,-0.12877 -22.0512,0.0652 -22.6433,0.43112 -0.592,0.3659 -1.3989,4.74071 -1.7932,9.72181 -0.8879,11.219 -0.9697,11.10992 13.9543,18.61569 6.077,3.05635 11.8366,6.25328 12.7991,7.1043 2.003,1.77096 2.3365,7.25088 0.55,9.03733 -1.6468,1.64675 -3.8,1.50889 -3.8,-0.2433 0,-2.34271 -4.1409,-4.5567 -8.5225,-4.5567 -2.2426,0 -4.6175,-0.54 -5.2775,-1.2 -0.8713,-0.87125 -1.5007,-0.89926 -2.2978,-0.10223 -0.797,0.79704 -0.2405,1.73155 2.0313,3.41118 5.101,3.77136 9.0665,10.83358 9.0665,16.14681 0,2.51937 -0.2731,5.29247 -0.607,6.16245 -0.7815,2.03648 -3.393,2.06121 -3.393,0.0321 0,-3.4601 -3.2341,-7.62281 -7.3066,-9.40471 -2.3064,-1.00912 -6.5926,-3.90721 -9.5251,-6.44019 -9.1421,-7.89695 -10.0416,-5.74823 -3.5623,8.51001 3.8313,8.4311 3.9005,12.87815 0.2927,18.81074 -2.4235,3.98511 -4.77,3.91881 -6.2356,-0.17619 -1.0577,-2.95544 -3.407,-7.71838 -8.8385,-17.91933 -1.0746,-2.01813 -1.9932,-5.0574 -2.0415,-6.75394 -0.1219,-4.28957 -2.1759,-5.80873 -4.3774,-3.2376 -2.0969,2.44896 -4.3704,8.77648 -4.3906,12.21974 -0.019,3.13261 -2.126,6.16833 -3.5909,5.17247 -0.5918,-0.40224 -2.2793,-2.5233 -3.75,-4.71347 -2.1643,-3.2229 -2.673,-5.12951 -2.668,-10 0,-3.30983 0.6477,-7.24775 1.4319,-8.75093 1.8068,-3.4635 -0.1209,-5.13037 -2.2408,-1.93763 -0.7927,1.19388 -2.2534,2.17069 -3.246,2.17069 -1.2156,0 -2.6266,1.79519 -4.3227,5.5 -1.3849,3.025 -2.9673,5.5 -3.5166,5.5 -1.49,0 -4.1151,-4.15423 -4.09,-6.47251 0.045,-4.17719 3.9311,-10.26314 11.3381,-17.75751 4.2019,-4.25151 7.6399,-8.43568 7.6399,-9.29815 0,-2.52577 -8.6154,-20.11253 -10.1234,-20.66515 -0.7571,-0.27745 -7.6766,-0.14406 -15.3766,0.29642 -48.64849,2.78293 -49.74046,2.80668 -60.00005,1.30504 -5.5,-0.80501 -13.6,-2.34607 -18,-3.4246 -4.4,-1.07852 -12.05,-2.8117 -17,-3.85151 -4.95,-1.03981 -16.425,-3.82168 -25.5,-6.18193 -14.77603,-3.84299 -17.74873,-4.29965 -28.45155,-4.37073 -13.55523,-0.09 -11.80223,-1.17322 -16.86432,10.42063 -1.32077,3.025 -3.80783,7.075 -5.5268,9 -1.71896,1.925 -3.13257,3.80297 -3.14136,4.17327 -0.009,0.37031 -1.20382,2.08496 -2.65563,3.81034 -2.04075,2.42529 -2.36964,3.40699 -1.44956,4.32673 1.87069,1.86999 8.92719,1.20545 16.90842,-1.59234 8.45307,-2.96319 12.26642,-2.3869 14.64525,2.21325 0.77202,1.49293 2.10835,3.29924 2.96961,4.01403 1.55329,1.28911 2.13285,5.15447 0.95018,6.33715 -0.33867,0.33867 -2.78941,-0.52081 -5.44609,-1.90995 -2.65668,-1.38914 -5.83184,-2.37873 -7.05591,-2.1991 -3.00617,0.44117 -3.69437,2.82662 -0.81549,2.82662 4.25218,0 13.17139,5.53264 20.95739,13 8.80317,8.4429 10.34297,12.12111 7.83393,18.71338 -1.45718,3.8286 -3.85807,5.58369 -3.85807,2.82029 0,-4.31388 -4.87079,-9.93466 -16.5,-19.04061 -6.57583,-5.14904 -9,-6.1789 -9,-3.82346 0,1.19156 7.74194,7.88328 15.21244,13.14883 2.30373,1.62377 3.37952,3.31336 3.80307,5.97292 0.32484,2.03976 2.0207,6.78134 3.76858,10.53684 3.82013,8.208 3.93069,12.7522 0.47144,19.37759 -3.78254,7.24456 -10.74263,9.02662 -7.83497,2.00605 2.15905,-5.21304 2.47378,-9.61148 0.82334,-11.50644 -0.81692,-0.93797 -2.47822,-4.73697 -3.69176,-8.44223 -1.66473,-5.08285 -2.98543,-7.27937 -5.37929,-8.9466 -1.74507,-1.21536 -6.5139,-5.04628 -10.59741,-8.51316 -7.10408,-6.03131 -10.23673,-7.46948 -11.57025,-5.3118 -0.33706,0.54537 0.70087,2.90787 2.3065,5.25 2.65757,3.87657 17.18831,32.72617 17.18831,34.126 0,0.32646 1.5016,2.9648 3.33689,5.86298 5.52219,8.72032 7.14549,23.24203 3.66311,32.76942 -1.1,3.00947 -2,5.62812 -2,5.81922 0,0.19109 -0.53485,0.16916 -1.18856,-0.0487 -0.65371,-0.2179 -1.74757,-2.6179 -2.43081,-5.33333 -0.68323,-2.71543 -2.15869,-7.41215 -3.27879,-10.43715 -1.1201,-3.025 -2.06568,-6.85 -2.10129,-8.5 -0.0735,-3.40548 -2.91669,-9.17174 -11.38044,-23.08052 -3.23393,-5.31445 -6.83393,-12.01549 -8,-14.89119 -1.64546,-4.05798 -4.06304,-6.99719 -10.79849,-13.12842 -9.96195,-9.0683 -14.1846,-12.39988 -15.71636,-12.39988 -0.59313,0 -1.693,1.4709 -2.44416,3.26867 -1.40361,3.35932 -5.69989,7.1673 -11.39661,10.10131 -3.60734,1.8579 -5.18761,5.81281 -3.25371,8.14301 1.02516,1.23524 0.88071,1.48701 -0.85315,1.48701 -3.10633,0 -4.36072,-3.34623 -3.84854,-10.2664 0.41788,-5.64615 0.75772,-6.38586 4.32223,-9.40804 7.70377,-6.53166 8.36858,-7.29008 8.36236,-9.53983 -0.004,-1.43605 -1.02624,-2.87537 -2.75,-3.87192 -1.86233,-1.07666 -3.46645,-3.49855 -4.99368,-7.53945 -2.74566,-7.26471 -2.7567,-8.23069 -0.25,-21.87436 2.66982,-14.53155 2.62288,-16.30556 -0.45191,-17.07729 -1.34855,-0.33846 -4.61105,0.0775 -7.25,0.92433 -6.97758,2.23912 -20.04544,3.94435 -24.73869,3.22816 -2.23267,-0.34071 -6.1969,-1.3734 -8.8094,-2.29488 -4.4003,-1.55206 -5.0997,-1.55614 -9.5,-0.0554 -2.6125,0.89102 -6.54914,1.92125 -8.74809,2.2894 -2.19895,0.36814 -6.47395,2.185 -9.5,4.03747 -7.62735,4.66926 -11.92578,5.3957 -32.09291,5.42372 -19.89216,0.0276 -31.66311,1.24754 -40.409,4.18784 -3.3,1.10943 -10.98621,2.85866 -17.08047,3.88717 -6.09426,1.02852 -12.39426,2.37241 -14,2.98644 -1.60574,0.61402 -7.64453,1.75668 -13.41953,2.53925 -39.75577,5.38729 -67.29404,6.13462 -93.45225,2.53609 -8.77374,-1.20699 -17.77374,-2.60135 -20,-3.09859 -2.22626,-0.49724 -9.22275,-1.81594 -15.54775,-2.93045 -6.325,-1.11451 -14.875,-3.20649 -19,-4.64885 -4.125,-1.44237 -10.65,-3.45273 -14.5,-4.46748 -19.11556,-5.03832 -26.29877,-7.35001 -40.52006,-13.04012 -8.49445,-3.39873 -24.67744,-10.65563 -35.9622,-16.12645 -11.28476,-5.47081 -24.1819,-11.22226 -28.66032,-12.78099 -4.47841,-1.55873 -9.15673,-3.37682 -10.39625,-4.04019 -2.35046,-1.25793 -15.40858,-6.10613 -29.96116,-11.12394 -4.675,-1.61196 -9.85,-3.54436 -11.5,-4.29421 -14.7011,-6.68099 -44.734,-17.93892 -52,-19.49236 -3.3,-0.70553 -7.125,-1.66137 -8.5,-2.1241 -1.375,-0.46272 -7.45,-1.79914 -13.5,-2.969816 -6.05,-1.17068 -16.0684,-3.41895 -22.2632,-4.99617 -6.1947,-1.577213 -15.6447,-3.376483 -21,-3.998393 -9.3054,-1.08059 -36.7695,-0.8147 -44.2368,0.42832 -1.925,0.32044 -5.75,0.77547 -8.5,1.01118 -12.827,1.09942 -29.828099,5.698293 -43.867599,11.866409 -12.8343,5.63859 -11.9568,4.8917 -30.2121,25.7139 -5.2259,5.96072 -12.4203,18.57573 -12.4203,21.77839 0,0.73415 -1.5734,5.1358 -3.4965,9.78144 -3.1578,7.6284 -4.8362,13.2327 -6.1216,20.44017 -0.2452,1.375 -1.3655,6.1 -2.4894,10.5 -1.1239,4.4 -2.2161,9.35 -2.4271,11 -0.2109,1.65 -0.6728,5.31458 -1.0264,8.1435 -0.8096,6.47795 0.8702,12.44693 7.9795,28.35401 7.5246,16.83625 16.7145,30.77943 26.7783,40.62872 19.8368,19.41399 27.6447,25.82824 34.0162,27.94451 2.6199,0.8702 4.9813,1.93465 5.2476,2.36545 1.035499,1.67558 19.118699,11.46446 25.406599,13.75329 24.3049,8.84704 33.216,11.26175 41.9482,11.36696 7.0048,0.0844 11.4642,1.93753 12.6247,5.24633 1.3878,3.95661 -0.1693,5.86601 -6.0209,7.3832 -4.8248,1.25098 -11.666,1.73389 -12.5164,0.88351 z M 690.27505,39.283741 c -0.55156,-3.17903 -3.25323,-6.71403 -4.31772,-5.64954 -0.61404,0.61404 -0.33007,2.28261 0.78719,4.62554 1.78952,3.75265 4.12129,4.42896 3.53053,1.024 z"
     style="fill:#000000"
     inkscape:connector-curvature="0" />
</svg>
