<?xml version="1.0" encoding="UTF-8" standalone="no"?>
<svg
   xmlns:dc="http://purl.org/dc/elements/1.1/"
   xmlns:cc="http://creativecommons.org/ns#"
   xmlns:rdf="http://www.w3.org/1999/02/22-rdf-syntax-ns#"
   xmlns:svg="http://www.w3.org/2000/svg"
   xmlns="http://www.w3.org/2000/svg"
   id="svg2"
   height="913.20654"
   width="632.09692"
   version="1.1">
  <metadata
     id="metadata8">
    <rdf:RDF>
      <cc:Work
         rdf:about="">
        <dc:format>image/svg+xml</dc:format>
        <dc:type
           rdf:resource="http://purl.org/dc/dcmitype/StillImage" />
        <dc:title></dc:title>
      </cc:Work>
    </rdf:RDF>
  </metadata>
  <defs
     id="defs4" />
  <g
     transform="matrix(-1,0,0,1,673.18566,-24.094688)"
     id="g4162">
    <path
       style="fill:#000000;fill-opacity:1;stroke:#070000;stroke-width:3.78653932;stroke-linecap:butt;stroke-linejoin:miter;stroke-miterlimit:4;stroke-dasharray:none;stroke-opacity:1"
       d="m 302.84391,53.133039 c 10.16924,-50.4132521 74.84675,-14.70837 109.47744,-16.945586 46.94505,5.220238 75.47614,57.275335 57.55518,99.956787 -8.86848,44.44464 -30.34873,84.9981 -41.65175,128.73891 39.17486,15.06244 65.95012,-25.42125 90.9635,-48.18771 30.4297,-29.49399 78.8334,-33.57688 113.10101,-7.27384 40.14297,36.36483 -38.58714,-28.95002 -42.23583,8.16136 7.89317,13.98766 33.52404,-3.00012 28.6686,26.39411 22.18501,-0.0205 18.17206,21.82096 33.86708,20.38105 8.86145,28.27287 20.97321,-33.18134 18.33424,5.51341 -11.33603,44.29271 -69.14933,53.24412 -97.82184,85.66998 -54.71925,38.40812 -89.26106,111.98866 -63.98372,177.16025 29.52489,64.20327 93.37012,112.57515 99.54293,187.12884 8.26757,69.28032 -47.07348,122.44389 -99.67413,157.73326 C 421.89059,933.45131 310.12073,949.56193 210.4838,922.7305 137.4864,898.94592 66.982499,847.63494 43.434865,771.6508 39.767573,716.16866 58.771226,660.78895 86.917144,614.17413 97.83684,568.53856 60.747731,526.19679 72.945536,480.1393 81.058653,434.2198 95.249099,389.2708 110.6958,345.44719 c 23.9978,-54.06896 65.46922,-98.51523 113.31515,-132.45626 38.58204,-32.09533 39.24614,-84.66243 51.03797,-128.617157 17.42104,-31.498827 37.06296,3.309119 57.30202,-5.942033 16.20521,16.077857 35.51589,25.41035 54.18119,19.935141 28.82088,25.063769 77.2273,-1.146301 50.08718,-33.837817 -35.44234,-16.855658 -76.69862,-26.464269 -115.82895,-22.846818 -6.96316,1.825375 -13.58499,5.612563 -17.94645,11.450793 z"
       id="path2997" />
    <path
       style="fill:#000000;fill-opacity:1;fill-rule:evenodd;stroke:#000000;stroke-width:1px;stroke-linecap:butt;stroke-linejoin:miter;stroke-opacity:1"
       d="m 305.97087,40.132454 -19.47559,37.066783 137.66314,59.362593 35.21616,-20.62362 1.86752,-43.75553 -44.02019,-28.984552 -82.7046,-11.7053 z"
       id="path4139" />
    <ellipse
       style="fill:#ffffff;fill-opacity:1;stroke:#000000;stroke-width:2;stroke-miterlimit:4;stroke-dasharray:none;stroke-dashoffset:0;stroke-opacity:0"
       id="path4137"
       cx="392.16669"
       cy="-1.7493467"
       rx="68.977661"
       ry="32.468273"
       transform="matrix(0.97868853,0.20535036,-0.20535036,0.97868853,0,0)" />
    <path
       style="fill:#000000;fill-opacity:1;fill-rule:evenodd;stroke:#000000;stroke-width:1px;stroke-linecap:butt;stroke-linejoin:miter;stroke-opacity:1"
       d="m 671.24622,256.59768 c -1.57655,-1.97069 -27.58965,-37.83725 -27.58965,-37.83725 l -52.02621,-21.28344 -41.38449,9.85344 c 0,0 3.94138,54.39104 3.94138,55.96759 0,1.57655 43.35518,25.22483 46.11414,25.61897 2.75897,0.39414 44.14345,4.72965 44.14345,4.72965 l 22.46586,-17.34207 z"
       id="path4160" />
    <ellipse
       style="fill:#ffffff;fill-opacity:1;stroke:#000000;stroke-width:2;stroke-miterlimit:4;stroke-dasharray:none;stroke-dashoffset:0;stroke-opacity:0"
       id="path4145"
       cx="638.20453"
       cy="-145.64578"
       rx="59.514828"
       ry="28.77207"
       transform="matrix(0.82249802,0.56876797,-0.56876797,0.82249802,0,0)" />
  </g>
</svg>
